<svg width="370" height="415" viewBox="0 0 370 415" fill="none" xmlns="http://www.w3.org/2000/svg">
<path d="M35 303.324C35 302.741 35 270.183 35.3008 220.082C35.4079 202.236 36.2031 199.786 37.0742 197.685C37.9452 195.584 39.0676 193.909 40.207 194.012C54.8564 195.326 50.0203 241.548 57.3055 257.852C58.8049 261.208 61.2189 263.971 63.1463 266.086C65.0737 268.202 66.8654 269.363 68.7583 266.851C74.4979 259.233 75.9964 241.203 78.838 217.452C82.2896 188.602 85.3553 161.617 94.9626 128.925C111.367 73.1018 129.452 37.3983 131.975 36.1448C148.544 27.9111 131.821 66.0102 130.017 96.0385C128.629 119.13 129.39 158.3 134.042 207.44C138.694 256.58 148.009 314.537 153.206 345.767C158.403 376.998 159.2 379.745 160.249 379.84C163.685 380.151 165.65 361.631 168.584 332.693C170.202 316.735 170.313 298.038 172.572 277.407C174.832 256.775 178.785 234.737 181.14 224.752C183.496 214.767 184.134 217.504 184.535 225.158C185.591 245.277 186.014 260.886 188.223 266.715C190.837 273.616 196.298 278.819 201.326 282.18C203.689 283.76 206.388 283.846 208.852 282.869C214.282 280.715 217.496 273.357 226.371 241.798C234.164 214.085 247.159 162.215 254.042 133.753C260.925 105.291 260.925 101.705 261.1 101.341C262.247 98.9472 262.09 135.058 264.923 188.5C267.461 236.356 280.257 262.085 284.043 267.477C285.514 269.572 288.315 268.222 290.34 266.043C307.164 247.938 311.622 211.518 318.016 203.001C321.578 198.256 325.786 194.842 328.522 193.725C338.575 189.621 329.486 224.003 329.399 244.818C329.381 249.075 331.012 251.054 332.772 252.194C334.531 253.334 336.943 253.539 338.961 252.808C343.009 251.342 351.589 234.54 376.822 190.163C394.16 159.67 422.464 114.01 438.733 86.2449C455.003 58.4796 458.831 50.2532 460.727 48.0271C472.932 33.7012 444.622 102.221 440.139 146.595C438.186 180.791 436.884 238.698 436.526 270.458C436.167 302.217 436.792 306.074 437.989 311.136" stroke="#D9ED8E" stroke-width="70" stroke-linecap="square"/>
</svg>
