<svg width="280" height="346" viewBox="0 0 280 346" fill="none" xmlns="http://www.w3.org/2000/svg">
<path d="M-90 310.217C-87.6083 306.671 -79.659 297.098 -72.4106 287.957C-65.9956 279.867 -59.8163 272.688 -49.6686 262.958C-40.8566 254.509 -29.543 243.605 -12.2599 229.659C2.23799 217.961 21.7178 212.556 42.0953 206.329C70.8634 197.538 107.688 195.706 137.941 195.71C158.033 195.713 165.255 200.968 168.867 203.844C181.396 213.819 172.171 244.065 162.475 273.795C155.624 294.801 142.814 300.682 128.834 306.405C121.739 309.309 114.921 306.148 110.351 303.35C102.403 298.483 97.9742 289.94 95.6016 280.885C92.4182 268.738 91.0758 254.843 90.6411 226.527C90.4283 212.659 103.796 186.168 120.058 158.293C140.648 123 170.093 104.051 194.472 79.3429C208.572 65.8175 218.479 56.879 231.486 47.4491C235.103 44.5162 238.97 40.7783 244.282 35.0002" stroke="#D9ED8E" stroke-width="70" stroke-linecap="round"/>
</svg>
