<svg width="296" height="346" viewBox="0 0 296 346" fill="none" xmlns="http://www.w3.org/2000/svg">
<path d="M-74 310.217C-71.6083 306.671 -63.659 297.098 -56.4106 287.957C-49.9956 279.867 -43.8163 272.688 -33.6686 262.958C-24.8566 254.509 -13.543 243.605 3.74008 229.659C18.238 217.961 37.7178 212.556 58.0953 206.329C86.8634 197.538 123.688 195.706 153.941 195.71C174.033 195.713 181.255 200.968 184.867 203.844C197.396 213.819 188.171 244.065 178.475 273.795C171.624 294.801 158.814 300.682 144.834 306.405C137.739 309.309 130.921 306.148 126.351 303.35C118.403 298.483 113.974 289.94 111.602 280.885C108.418 268.738 107.076 254.843 106.641 226.527C106.428 212.659 119.796 186.168 136.058 158.293C156.648 123 186.093 104.051 210.472 79.3429C224.572 65.8175 234.479 56.879 247.486 47.4491C251.103 44.5162 254.97 40.7783 260.282 35.0002" stroke="#ED5FC5" stroke-width="70" stroke-linecap="round"/>
</svg>
