<svg width="364" height="327" viewBox="0 0 364 327" fill="none" xmlns="http://www.w3.org/2000/svg">
<path d="M-41.844 291.136C-41.844 288.261 -41.4507 279.17 -21.9716 236.983C-3.54162 197.069 34.8804 120.828 55.2265 79.7269C75.5726 38.6259 77.3541 35.2942 78.9263 35.0206C82.7576 34.3539 83.2816 62.0337 87.1424 113.761C92.3306 183.271 106.156 225.327 107.642 228.821C109.008 232.03 119.556 180.954 131.771 108.862C136.598 80.3691 139.946 68.5334 141.729 64.1092C142.646 61.8329 144.589 91.1455 145.623 132.792C146.271 158.901 153.635 177.895 160.546 193.828C163.208 199.967 165.304 201.624 167.931 201.071C174.742 199.637 187.141 170.925 203.793 131.783C213.495 108.978 230 89.3962 248.105 70.5386C254.231 64.1571 256.687 66.9581 257.627 72.1829C258.567 77.4078 258.567 85.6644 260.434 90.6979C262.302 95.7313 266.037 97.2914 270.808 98.2124C281.275 99.3681 289.873 99.0711 296.336 94.9925C300.069 91.4527 304.723 84.928 313.965 76.3727" stroke="#ED5FC5" stroke-width="70" stroke-linecap="square"/>
</svg>
