<?xml version="1.0" encoding="UTF-8"?>
<svg id="Ebene_2" xmlns="http://www.w3.org/2000/svg" viewBox="0 0 89.4 86.03">
  <defs>
    <style>
      .cls-1 {
        fill: #ed5fc5;
      }

      .cls-2 {
        fill: #d9ed8e;
      }
    </style>
  </defs>
  <g id="Ebene_1-2" data-name="Ebene_1">
    <g>
      <g>
        <path class="cls-1" d="M12.21,74.21h-.02c-4.43,0-8.6-2.64-10.62-6.7-1.99-3.98-1.31-7.82-1.06-9.27.56-3.19,1.42-6.4,2.61-9.67-3.57-3.89-4.13-9.57-1.43-15.03,2.42-4.89,6.17-9.16,11.8-13.43.32-.24.77-.62,1.26-1.02,3.3-2.75,8.83-7.35,16.01-6.41,8.02,1.05,11.48,8.03,11.35,14.48h0c-.1,4.88-1.84,10.1-3.53,14.56l-.18.47c-2.35,6.31-4.54,11.05-7.08,15.38l-.07.11c-2.77,4.72-6.57,11.19-12.76,14.77-2.03,1.17-4.15,1.77-6.29,1.77ZM12.39,32.93c-.33,0-.63.03-.9.09-.02,0-.04,0-.09.05l7.2,5.95c.17-.42.34-.84.52-1.28-.37-.94-.97-1.91-1.88-2.77-1.53-1.46-3.41-2.04-4.83-2.04Z"/>
        <path class="cls-1" d="M36.68,61.97c-.49,0-.98-.01-1.49-.04-7.09-.42-11.94-5.01-12.98-12.29-1.12-7.84.5-16.2,4.55-23.53h0c3.28-5.93,7.81-11.09,12.76-14.52,4.57-3.17,9.85-4.15,14.5-2.71,4.45,1.38,7.9,4.77,9.7,9.53,2.79,7.37.68,14.62-.46,18.52-1.99,6.84-4.76,11.85-9.25,16.76-3.3,3.6-8.62,8.28-17.34,8.28Z"/>
        <path class="cls-1" d="M42.08,48.16c-2.05,0-4.09-.58-5.88-1.75-3.12-2.04-4.92-5.56-4.82-9.4.06-2.2.86-4.51,1.52-6.07l.05-.11c1.37-3.29,4.66-8.79,11.42-8.79.03,0,.06,0,.09,0,3.6.02,6.86,1.7,8.95,4.59,2.62,3.64,2.55,8.04,1.6,10.94-1.22,3.75-3.85,6.42-5.31,7.68-2.23,1.93-4.94,2.91-7.62,2.91ZM36.15,32.31c-.53,2.63.58,4.71,1.35,5.77,1.59,2.2,4.14,3.53,6.82,3.55.02,0,.04,0,.06,0,3.34,0,5.61-1.87,6.5-3.13.04-.25.07-.58.08-.98.08-2.96-1.47-5.84-4.03-7.51-3.16-2.07-7.39-1.91-10.06.39h0s-.28.34-.52,1.09c-.09.28-.16.55-.22.82l5.77,2.45-5.77-2.45Z"/>
        <path class="cls-1" d="M60.98,53.74c-.49,0-.98-.01-1.49-.04-7.09-.42-11.94-5.01-12.98-12.29-1.12-7.84.5-16.19,4.55-23.53h0c3.28-5.93,7.81-11.09,12.76-14.52,4.57-3.17,9.86-4.15,14.5-2.71,4.45,1.38,7.9,4.77,9.7,9.53,2.79,7.37.68,14.63-.46,18.52-1.99,6.83-4.76,11.84-9.25,16.76-3.3,3.6-8.62,8.28-17.34,8.28Z"/>
        <path class="cls-1" d="M66.33,40c-2.07,0-4.13-.59-5.93-1.79-3.11-2.06-4.89-5.59-4.77-9.43.07-2.2.88-4.51,1.55-6.06h0s.05-.11.05-.11c1.38-3.27,4.69-8.72,11.4-8.72.05,0,.1,0,.15,0,3.6.04,6.85,1.73,8.92,4.64,2.6,3.65,2.51,8.05,1.54,10.95-1.24,3.74-3.88,6.4-5.35,7.65-2.22,1.9-4.91,2.87-7.57,2.87ZM61.18,22.23s-.28.34-.53,1.09c-.99,3,.26,5.42,1.1,6.59,1.58,2.21,4.12,3.55,6.8,3.59.04,0,.07,0,.11,0,3.27,0,5.51-1.8,6.44-3.04l-8.91-3.84,8.91,3.84s.02-.03.04-.05c.04-.25.08-.58.09-.98.09-2.96-1.43-5.84-3.99-7.53-3.15-2.09-7.38-1.95-10.06.34h0Z"/>
        <g>
          <path class="cls-1" d="M22.58,80.57l.1-.11-15.08-12.51c1.68-2.03,17.64-19.95,58.52-23.95l1.91,19.51c-32.85,3.21-45.31,16.93-45.44,17.07Z"/>
          <path class="cls-1" d="M15.19,86.03c-2.89,0-5.77-1.05-8.05-3.15-4.52-4.15-5.15-10.99-1.46-15.9l.3-.38c8.55-10.3,21.77-18.45,39.29-24.22l.25-.08c.29-.09,1.24-.38,2.17-.67,1.01-.31,2.01-.62,2.3-.71l.27-.08c.39-.1,1.08-.28,1.73-.44.38-.1.75-.19,1-.25,3.55-.96,7.39-1.71,10.77-2.37l.79-.15c8.8-1.76,17.41,3.98,19.21,12.8,1,4.8-.23,9.75-3.37,13.59-3.1,3.79-7.62,5.98-12.46,6.03l-6.37.27-5.48.51c-3.65.49-7.02,1.07-9.78,1.68-5.59,1.36-10.21,2.91-14.1,4.75-3.42,1.63-6.01,3.2-8.12,4.9-.26.21-.54.46-.84.73l-.13.12c-2.27,2.02-5.09,3.03-7.91,3.03ZM68.35,56.85h-.02s.02,0,.02,0Z"/>
        </g>
      </g>
      <g>
        <path class="cls-2" d="M32.31,26.95c.05-2.4-.65-4.28-2.82-4.56-3.63-.48-7.47,3.55-10.07,5.52-3.59,2.73-6.94,5.93-8.94,9.98-.67,1.35-1.1,3.15,0,4.19.79.75,2.05.75,3.12.51,1.58-.35,3.07-1.1,4.28-2.16-3.59,6.07-6.5,12.6-7.71,19.51-.19,1.06-.32,2.2.18,3.21.35.7,1.06,1.27,1.86,1.27.49,0,.96-.21,1.38-.45,3.99-2.31,7.04-7.54,9.28-11.37,2.58-4.39,4.57-9.09,6.35-13.84.68-1.83,3.01-7.61,3.09-11.79Z"/>
        <path class="cls-2" d="M35.34,30.85c-2.91,5.26-4.28,11.44-3.43,17.4.35,2.48,1.36,3.74,3.86,3.89,4.79.28,7.87-1.62,11.02-5.06,3.61-3.95,5.58-7.78,7.07-12.88,1.15-3.96,2.22-8.3.7-12.32-1.73-4.56-5.8-4.77-9.45-2.24-3.96,2.74-7.44,7-9.77,11.21Z"/>
        <path class="cls-1" d="M41.92,34.76c-.45,1.06-.73,2.1-.74,2.49,0,.34.06.73.4.95.54.35,1.27,0,1.72-.38,1.02-.88,2-2.09,2.4-3.29.26-.8.22-2.69-1.3-2.7-1.34,0-2.13,2.13-2.47,2.93Z"/>
        <path class="cls-2" d="M59.64,22.62c-2.91,5.26-4.28,11.44-3.43,17.4.35,2.48,1.36,3.74,3.86,3.89,4.79.28,7.87-1.62,11.02-5.06,3.61-3.95,5.58-7.78,7.07-12.88,1.15-3.96,2.22-8.3.7-12.32-1.73-4.56-5.8-4.77-9.45-2.24-3.96,2.74-7.44,7-9.77,11.21Z"/>
        <path class="cls-1" d="M66.19,26.61c-.46,1.06-.74,2.1-.76,2.49-.01.34.06.73.39.95.54.36,1.27,0,1.72-.37,1.02-.87,2.01-2.08,2.41-3.28.26-.8.23-2.68-1.29-2.7-1.34-.02-2.14,2.12-2.48,2.91Z"/>
        <path class="cls-2" d="M13.52,72.86c8.63-10.4,22.18-17.01,34.81-21.17.61-.18,3.91-1.21,4.46-1.38.61-.16,2.08-.53,2.71-.69,3.48-.95,7.4-1.69,10.93-2.38,3.55-.71,7.01,1.6,7.72,5.15.85,4.02-2.36,7.88-6.45,7.85,0,0-6.8.29-6.8.29-1.6.15-4.37.4-5.93.55-3.55.47-7.4,1.1-10.89,1.88-5.47,1.32-10.98,3.03-16.08,5.44-3.55,1.7-7.02,3.66-10.08,6.13-.49.4-.95.8-1.33,1.15-1.89,1.68-4.6-.8-3.07-2.83h0Z"/>
      </g>
    </g>
  </g>
</svg>