<?xml version="1.0" encoding="UTF-8"?>
<svg id="Ebene_2" xmlns="http://www.w3.org/2000/svg" viewBox="0 0 76.66 66.84">
  <defs>
    <style>
      .cls-1 {
        fill: #ed5fc5;
      }

      .cls-2 {
        fill: #d9ed8e;
      }
    </style>
  </defs>
  <g id="Ebene_1-2" data-name="Ebene_1">
    <g id="color-palette">
      <g>
        <path class="cls-1" d="M38.62,63.06c-11.86,0-25.48-6.02-33.56-18.44-.31-.47-.57-.97-.79-1.48-2.92-6.81-5.41-16.98-.71-26.71C9.15,4.87,21.28,1.29,22.65.92c.1-.03.2-.05.3-.08,9.13-2.18,39.07-1.57,49.65,19.59,1.69,3.38,6.83,13.65,1.59,21.87-1.61,2.53-5.47,6.69-13.41,6.69-.1,0-.2,0-.3,0-1,4.91-4.47,9.19-9.83,11.64-3.52,1.61-7.65,2.43-12.02,2.43ZM22.02,34.58c5.35,7.58,14.06,9.24,18.42,8.72-.71-5.97,1.52-9.68,3.74-11.83,3.04-2.94,6.71-3.7,10.01-3.59-5.67-8.11-22.14-8.79-26.44-7.95-.87.3-5.01,1.9-6.52,5.15-1.07,2.3-.81,5.49.78,9.51Z"/>
        <path class="cls-1" d="M47.77,32.46c-1.93,0-3.85-.45-5.58-1.37-2.12-1.11-3.46-2.62-4.24-3.63-1.23-.76-3.14-2.13-4.57-4.59-1.92-3.29-2.07-7.34-.4-10.81,1.61-3.35,4.73-5.68,8.37-6.24.51-.08,1.03-.12,1.54-.13.77,0,1.45.06,1.99.14,1.25-.08,3.21-.02,5.33.91,1.17.51,2.11,1.17,2.83,1.8.53.21,1.11.49,1.71.85,3.56,2.14,5.68,5.92,5.68,10.11,0,4.51-2.48,8.91-6.32,11.21-1.94,1.16-4.14,1.75-6.33,1.75ZM43.08,25.06c.32.11.63.19.92.25.1-.01.19-.02.28-.04,2.81-.43,5.21-2.19,6.42-4.72,1.09-2.29,1.03-4.96-.15-7.23-2.17-.86-4.57-.68-6.56.51-.36.22-.7.46-1,.72v.98s0-.97,0-.97c-1.46,1.24-2.24,2.96-2.24,4.94,0,2.09.86,4.1,2.34,5.57Z"/>
        <path class="cls-1" d="M34.59,31.52c-.23,0-.47,0-.7-.02-4.58-.25-7.48-2.84-8.91-4.15-.31-.12-.67-.28-1.06-.47-3.21-1.58-5.45-4.4-6.18-7.74-.83-3.8.29-9.08,5.93-12.5,1.2-.73,3.23-1.96,6.02-2.44,0,0,0,0,0,0,2.5-.43,5-.14,7.25.85.78,0,1.64.09,2.56.3,5.25,1.24,8.97,5.97,9.05,11.5.04,2.8-.84,5.54-2.6,8.16-2.81,4.16-6.92,6.5-11.36,6.5ZM25.89,27.68h0,0ZM34.56,11.85c-2.51,0-4.34,1.3-4.92,2.16-.03.05-.79,1.19-.76,3.12.04,2.72,1.56,5.15,3.9,6.49.08-.01.15-.02.23-.04l-1.66-9.69,1.67,9.69c.54-.09.93-.24,1.14-.33,1.74-1.27,3.63-4.49,2.79-8.31-.24-1.1-.69-2.12-1.29-3.02-.22-.03-.45-.06-.69-.07-.14,0-.27-.01-.4-.01ZM33.87,23.46h0s0,0,0,0Z"/>
        <path class="cls-1" d="M23.8,37.38c-.36,0-.72-.01-1.08-.04-3.19-.24-5.67-1.49-7.15-2.24-1.24-.63-3.31-1.68-5.18-3.59-2.11-2.16-3.37-4.81-3.64-7.66-.39-4.08,1.43-8.05,4.62-10.4,1.23-1.81,2.93-3.2,4.95-4.03,3.42-1.4,6.53-.73,8.48-.03.85-.07,1.85-.07,2.95.11,3.92.64,7.23,3.18,9.08,6.95,2.29,4.67,1.91,10.24-1,14.54-2.71,4-7.24,6.39-12.03,6.39ZM23.77,17.71c-1.73,0-3.25.81-4.24,2.27-1.06,1.57-1.19,3.45-.36,5.16.61,1.25,1.68,2.29,2.98,2.98.55-.11,1.13-.28,1.72-.53.48-.2.94-.45,1.37-.74.84-1.43,1.24-3.11,1.08-4.84-.15-1.63-.84-3.18-1.87-4.24l-.02-.02c-.08-.01-.16-.02-.25-.03-.14-.01-.28-.02-.42-.02ZM19.28,19.42h0,0Z"/>
        <path class="cls-1" d="M21.34,47.09c-4.72,0-8.11-2.47-9.58-3.54-.95-.69-3.16-2.31-4.54-5.25-2.43-5.17-.72-11.34,3.98-14.34.54-.35,1.08-.62,1.6-.85,2.3-2.33,5.51-3.64,8.84-3.53h0c2.25.08,4.3.76,6.13,2.04,3.87,1.17,6.88,4.48,7.69,8.57.42,2.13.24,4.38-.55,6.65-2.08,6-7.41,10.11-13.26,10.25-.11,0-.21,0-.32,0ZM21.31,29.41l-.34,9.83c.96.03,1.89-.1,2.76-.39,2.1-2.46,2.69-5.94,1.29-8.91-.49-1.04-1.1-1.73-1.47-2.09-.39-.17-1.22-.46-2.35-.43-2.24.05-4.3,1.3-4.87,2.97-.13.38-.53,1.75-.16,3.61.4,2.01,1.54,3.77,3.14,5,.52.13,1.08.21,1.66.23l.34-9.83ZM30.01,23.58h0,0Z"/>
        <path class="cls-1" d="M38.81,55.5c-1.16,0-2.33-.13-3.51-.39-4.25-.94-7.64-3.44-9.54-7.05-2.93-5.56-1.54-12.92,3.22-17.13h0c3.36-2.97,8.18-4.17,12.89-3.2,4.5.92,8.16,3.71,10.03,7.65,2.6,5.48,1.14,12.43-3.46,16.52-2.65,2.35-6.03,3.59-9.63,3.59ZM38.81,35.83c-1.03,0-2.34.4-3.44,1.38-2.86,2.54-1.67,5.7-1.24,6.61.78,1.65,2.24,2.87,3.8,3.19,1.89.39,3.48-.8,4.08-1.33l-6.51-7.37,6.51,7.37c3-2.65,1.65-5.86,1.16-6.78-.97-1.83-2.56-2.76-3.62-2.99-.22-.05-.47-.07-.73-.07Z"/>
        <path class="cls-1" d="M50.78,54.77c-4.7,0-8.74-3.43-9.64-8.06-.46-2.39-1.54-10.58,4.05-15.89,2.77-2.63,6.57-3.71,10.41-2.95.7.14,1.34.32,1.94.53,1.27-3.11,4.1-5.47,7.63-6.01,5.16-.78,10.03,2.6,11.1,7.7.35,1.68.47,3.45.32,5.2-.15,6.39-2.31,11.15-6.43,14.2-4.12,3.04-8.74,3.21-12.52,2.55-1.75,1.68-4.13,2.7-6.73,2.74-.04,0-.09,0-.13,0Z"/>
        <path class="cls-1" d="M35.31,66.84c-9.02,0-18.06-3.81-24.77-10.83C-6.75,37.92,2.35,19.34,2.74,18.56c2-3.96,6.42-6.09,10.77-5.19,4.35.9,7.56,4.61,7.82,9.04l.65,10.78,5.52,7.18,9.84,3.02,4.24-.82,1.82-2.13c2.77-3.25,7.33-4.34,11.28-2.69,3.95,1.65,6.37,5.66,6.01,9.92-.67,7.73-6.42,14.41-15.02,17.43-3.36,1.18-6.86,1.76-10.36,1.76Z"/>
        <path class="cls-1" d="M43.32,51.54c-1.59,0-3.18-.38-4.63-1.16-3.19,1.71-7.14,1.54-10.2-.57-3.6-2.47-5.13-7.02-3.77-11.17,1.03-3.15,1.5-4.58,2.8-6.17,1.84-2.23,3.69-2.92,7.73-4.43,2.09-.78,4.38-.83,6.5-.14l3.33,1.09c2.81.92,5.05,3.05,6.12,5.8l1.3,3.36c1.54,3.98.34,8.5-2.98,11.19-1.8,1.46-3.99,2.2-6.2,2.2ZM41.23,44.06l.66,1.77c.27-.26.55-.55.82-.87.09-.11.18-.22.26-.33l-1.73-.57Z"/>
      </g>
      <g>
        <g>
          <path class="cls-1" d="M25.22,10.41s-21.75,5.9-11.91,28.85c12.57,19.34,40.54,16.06,37.37,5.14-3.17-10.93,8.31-5.25,9.51-5.25s11.26.98,3.61-14.32c-7.65-15.3-31.69-16.06-38.58-14.43Z"/>
          <path class="cls-2" d="M38.62,54.51c-8.68,0-19.64-4.11-26.4-14.53l-.11-.2c-3.23-7.54-3.52-14.15-.87-19.64,4.01-8.3,13.25-10.89,13.64-11h.04c8.27-1.98,32.32-.37,40.05,15.1,3.14,6.28,3.8,10.69,2.02,13.48-1.21,1.91-3.44,2.83-6.63,2.74h-.18c-.39,0-.81-.14-1.73-.43-1.59-.52-5.33-1.73-6.52-.57-.66.64-.66,2.26,0,4.56,1.06,3.66-.75,6.97-4.85,8.85-2.28,1.04-5.22,1.62-8.48,1.62ZM14.47,38.64c5.57,8.47,20.19,17.05,31.53,11.86,2.05-.94,4.3-2.69,3.42-5.73-.99-3.42-.77-5.77.69-7.18,2.33-2.26,6.77-.82,9.16-.05.37.12.82.27.99.3.05,0,.11,0,.18,0,.82.02,3.31.09,4.34-1.53,1.19-1.87.42-5.73-2.16-10.9-6.98-13.95-29.61-15.51-37.08-13.74-.42.12-8.56,2.55-11.96,9.62-2.29,4.75-1.99,10.58.88,17.34ZM60.2,37.84s0,0,.02,0h-.02Z"/>
        </g>
        <path class="cls-2" d="M43.01,15.53c-.06,0-.13,0-.19.02-1.06.16-1.43,1.55-.94,2.39.59,1.01,1.75,1.34,2.61,2.04s1.28,1.89,2.29,2.42c.7.37,1.59.29,2.27-.11,1.38-.83,2.31-3.44.63-4.45-.66-.4-1.53-.3-2.15-.79-.47-.36-.72-1.04-1.28-1.28s-1.28.03-1.88-.01c-.46-.03-.91-.22-1.36-.21Z"/>
        <path class="cls-2" d="M31.35,13.9c-.94.16-1.78.66-2.59,1.16-.75.45-1.6,1.14-1.42,1.99.1.46.49.8.91,1s.88.31,1.31.5c1.79.8,2.91,3.02,4.87,3.12,1.39.08,2.58-1.01,3.36-2.16.51-.75.93-1.61.92-2.52s-.58-1.86-1.46-2.07c-.99-.23-2.12.53-3.06.07-.44-.21-.66-.7-1.14-.92-.52-.24-1.14-.28-1.7-.19Z"/>
        <path class="cls-2" d="M19.28,19.42c-.17.43-.17.96-.49,1.29-.36.37-.96.34-1.42.57-.59.29-.89,1-.82,1.65s.43,1.24.88,1.71c.72.74,1.66,1.22,2.58,1.68,1.09.55,2.23,1.12,3.45,1.21,1.64.12,3.31-.69,4.23-2.05s1.05-3.22.32-4.69c-.37-.76-1.02-1.45-1.85-1.58-.69-.11-1.37.16-2.06.27-1.42.23-3.89-2.41-4.82-.07Z"/>
        <path class="cls-2" d="M21.31,29.41c-.69-.02-1.39.34-1.76.93-.29.46-.41,1.05-.85,1.37-.62.45-1.55.12-2.19.53-.59.38-.68,1.25-.38,1.88s.88,1.08,1.44,1.49c1.16.84,2.44,1.68,3.87,1.65,1.97-.05,3.54-1.78,4.19-3.64.17-.49.29-1.02.19-1.53s-.48-1-.99-1.08c-.75-.13-1.17.11-1.76-.45s-.84-1.11-1.76-1.15Z"/>
        <g>
          <path class="cls-1" d="M35.49,38.31c-1.31,1.16-1.9,3.52-1.03,5.17.62,1.18,1.81,1.77,2.96,2.03,1.54.34,3.23.16,4.48-.95s1.88-3.33,1.11-4.95c-1.28-2.7-5.6-2.99-7.52-1.29Z"/>
          <path class="cls-2" d="M38.78,46.86c-.53,0-1.07-.06-1.62-.18-1.75-.39-3.05-1.3-3.76-2.64-1.09-2.06-.5-5.04,1.3-6.63h0c1.3-1.15,3.44-1.62,5.44-1.21,1.82.37,3.26,1.43,3.96,2.89.96,2.02.34,4.82-1.4,6.36-1.04.92-2.41,1.41-3.92,1.41ZM36.29,39.21h0c-.88.77-1.39,2.53-.76,3.71.46.88,1.43,1.26,2.15,1.42.8.18,2.3.32,3.43-.68.83-.74,1.38-2.38.82-3.54-.5-1.06-1.64-1.44-2.27-1.57-1.25-.25-2.64.01-3.37.66Z"/>
        </g>
        <path class="cls-2" d="M50.79,44.83s.95-5.02,3.06-4.29,14.29,7.31,12.79-8.44c0,0,1.34,6.4-3.9,7.56s-8.66-3.73-10.78-1.72-1.17,6.88-1.17,6.88Z"/>
        <path class="cls-2" d="M11.52,23s-6.55,12.95,6.13,26.21,32.37,7.58,33.24-2.4l-4.05,4.75-10.03,1.95-15.19-4.66-9.27-12.05-.83-13.79Z"/>
        <path class="cls-2" d="M34.05,41.7s4.12-3.35,9.26,0l-1.3-3.36-3.33-1.09s-3.43,1.28-3.56,1.45-1.07,3.01-1.07,3.01Z"/>
      </g>
    </g>
  </g>
</svg>