<?xml version="1.0" encoding="UTF-8"?>
<svg id="Ebene_2" xmlns="http://www.w3.org/2000/svg" viewBox="0 0 104.21 85.29">
  <defs>
    <style>
      .cls-1 {
        fill: #ed5fc5;
      }

      .cls-2 {
        fill: #d9ed8e;
      }
    </style>
  </defs>
  <g id="Ebene_1-2" data-name="Ebene_1">
    <g id="disco">
      <g>
        <g>
          <path class="cls-1" d="M53.68,85.29c-.96,0-1.95-.02-2.92-.07-3.78-.18-7.42-.71-10.81-1.56-1.55-.39-3.14-.87-4.67-1.43-5.29-1.94-9.77-4.74-13.35-8.31-2-2-3.81-4.29-5.38-6.81-.98-1.55-1.9-3.27-2.71-5.05-.04-.09-.08-.18-.12-.27-1.61-3.61-2.76-7.44-3.43-11.39-.02-.12-.04-.24-.06-.35-.24-1.48-.4-2.86-.5-4.22-.01-.14-.02-.29-.03-.44-.07-1.07-.11-2.15-.11-3.22,0-.34,0-.69.02-1.03.05-1.97.25-3.95.6-5.9.01-.07.02-.14.04-.22.69-3.82,1.94-7.59,3.71-11.19,2.24-4.59,5.25-8.78,8.93-12.46,2.13-2.12,4.51-3.96,7.11-5.5,1.58-.93,3.24-1.75,4.93-2.45,3-1.24,6.31-2.16,9.8-2.72,1.29-.22,2.66-.39,4.09-.5,1.35-.11,2.75-.18,4.16-.19,1.38-.03,2.76.01,4.04.1,4.28.26,8.43,1.08,12.27,2.44,2.6.92,5.09,2.09,7.4,3.49,2.67,1.62,5.14,3.56,7.36,5.77,1.12,1.12,2.18,2.31,3.14,3.53,1.18,1.49,2.26,3.09,3.21,4.74,2.34,4.05,3.97,8.51,4.86,13.28.21,1.14.39,2.36.53,3.61.18,1.76.27,3.48.27,5.19,0,.95-.03,1.83-.08,2.71-.07,1.28-.2,2.57-.39,3.82-.7,4.9-2.27,9.6-4.64,13.91-.05.1-.1.19-.16.29-1.09,1.94-2.34,3.79-3.71,5.51-1.03,1.3-2.16,2.57-3.37,3.77-.26.26-.52.51-.78.77-.02.02-.04.04-.06.06-1.47,1.41-3.03,2.73-4.62,3.91-4.79,3.56-9.97,6.01-15.41,7.3-1.33.32-2.69.57-4.04.74-1.47.19-2.95.3-4.41.32-.23,0-.46,0-.69,0ZM31.84,54.09c.42.91.89,1.78,1.39,2.57.81,1.29,1.68,2.4,2.61,3.34,1.54,1.55,3.63,2.81,6.19,3.75.86.31,1.78.59,2.69.82,2.16.54,4.49.87,6.97.99.66.03,1.33.05,1.98.05h.11c.08,0,.16,0,.23,0,.74,0,1.49-.06,2.25-.16.02,0,.05,0,.07,0,.62-.08,1.26-.19,1.88-.34.02,0,.04-.01.06-.02,2.82-.66,5.57-1.98,8.18-3.92.93-.69,1.86-1.49,2.76-2.34.19-.18.37-.36.56-.55.67-.67,1.3-1.38,1.87-2.09.69-.87,1.32-1.8,1.88-2.77.03-.05.06-.11.09-.16,1.27-2.27,2.1-4.76,2.49-7.4.11-.72.17-1.37.21-2.06,0-.04,0-.08,0-.12.03-.46.04-.95.04-1.5,0-1.04-.05-2.1-.16-3.13-.07-.68-.18-1.39-.3-2.04-.48-2.59-1.34-4.96-2.55-7.05-.49-.84-1.04-1.66-1.64-2.41-.49-.63-1.02-1.22-1.6-1.8-1.1-1.1-2.33-2.06-3.65-2.86-1.15-.7-2.41-1.29-3.74-1.76-2.12-.75-4.47-1.21-6.99-1.36-.68-.05-1.35-.07-2.06-.07h-.21c-.1,0-.18,0-.28,0-.93,0-1.85.05-2.75.12-.92.08-1.75.18-2.49.3-.03,0-.06.01-.1.02-1.99.32-3.82.82-5.45,1.49-.85.35-1.65.75-2.41,1.19-1.18.7-2.26,1.53-3.22,2.48-2.1,2.1-3.89,4.59-5.16,7.2-.95,1.92-1.61,3.89-1.98,5.86-.01.07-.02.13-.03.2-.19,1.02-.29,2.05-.32,3.07,0,.17,0,.36,0,.54,0,.64.02,1.28.07,1.92,0,.07.01.13.01.2.05.73.14,1.5.26,2.34.02.09.03.18.05.27.4,2.45,1.11,4.82,2.11,7.03.02.05.05.11.07.16ZM82.2,58.06h0,0ZM29.36,44.83h0s0,0,0,0ZM29.36,44.83h0s0,0,0,0ZM29.16,42.89s0,0,0,0c0,0,0,0,0,0ZM29.15,42.88s0,0,0,0c0,0,0,0,0,0ZM29.15,42.87s0,0,0,0c0,0,0,0,0,0ZM29.15,42.85h0s0,0,0,0Z"/>
          <path class="cls-1" d="M57.54,85.04c-3.04,0-5.94-1.41-7.81-3.86-2.12-2.77-2.61-6.46-1.29-9.69.58-1.43,1.04-3.19,1.47-5.72.15-.83.27-1.64.39-2.44.01-.08.02-.15.04-.23.03-.19.06-.37.09-.56,0-.02,0-.04.01-.07.41-2.68.6-5.67.62-9.69,0-.86,0-1.69,0-2.51-.01-1.16-.02-2.33-.04-3.5-.05-3.43-.13-7.37-.39-10.97-.06-.79-.12-1.58-.2-2.37-.24-2.43-.57-4.55-1-6.46-.31-1.37-.57-2.41-.83-3.36-.25-.91-.44-1.55-.63-2.12l-.03-.1c-.79-2.41-1.69-4.31-2.77-5.81-2.12-2.95-2.44-6.82-.84-10.07C45.91,2.26,49.17.15,52.79.02c1.45-.05,2.88,0,4.21.1,3.18.21,6.05,1.95,7.72,4.66,1.92,3.12,3.46,6.63,4.71,10.72.33,1.06.62,2.08.87,3.06.3,1.14.59,2.33.86,3.54.64,2.83,1.12,5.93,1.46,9.43.09.94.17,1.93.24,2.91.29,4.09.37,8.33.43,11.98v1.12c.02.74.04,1.47.04,2.22.01.93.02,1.86.01,2.8-.02,5.19-.3,9.4-.88,13.26h0s-.01.09-.02.14c-.14.92-.28,1.86-.44,2.8-.41,2.45-1.03,5.75-2.18,9.09-1.09,3.18-3.73,5.58-6.99,6.37-1.35.33-2.73.58-4.1.75-.4.05-.8.07-1.2.07Z"/>
          <path class="cls-1" d="M72.34,78.89c-2.04,0-4.07-.63-5.8-1.89-3.49-2.55-4.9-7.08-3.49-11.16.43-1.24.82-2.53,1.14-3.83l.02-.07c.22-.85.42-1.69.58-2.48.63-3.05,1.04-6.27,1.21-9.6.04-.79.07-1.6.09-2.41.07-3.4-.09-6.94-.46-10.53,0-.06-.01-.12-.02-.18,0-.04-.01-.08-.01-.13-.08-.7-.16-1.43-.26-2.19-.47-3.49-1.1-6.24-1.97-8.64-.24-.66-.48-1.27-.76-1.85-.07-.13-.13-.27-.19-.4-.13-.3-.31-.64-.53-1.04-.76-1.38-1.67-2.59-2.71-3.58-3.34-3.21-3.98-8.31-1.55-12.25,2.43-3.94,7.28-5.65,11.64-4.12,2.61.92,5.1,2.09,7.4,3.49,1.23.75,2.28,1.76,3.08,2.95.58.87,1.14,1.8,1.66,2.74.84,1.53,1.6,3.13,2.26,4.75.49,1.19.94,2.44,1.32,3.68,1.14,3.57,1.97,7.54,2.53,12.11.09.66.16,1.31.23,1.94l.03.31c.03.27.06.54.08.82.39,3.93.56,7.86.52,11.7,0,0,0,.02,0,.03-.01.99-.04,2-.09,3.02-.17,4.05-.61,8.07-1.31,11.95-.24,1.29-.48,2.43-.73,3.51-.21.96-.46,1.95-.73,2.93-.47,1.72-1.4,3.28-2.69,4.51-1.47,1.41-3.03,2.73-4.62,3.91-1.75,1.3-3.82,1.96-5.89,1.96Z"/>
          <path class="cls-1" d="M53.68,85.29c-.96,0-1.95-.02-2.92-.07-3.69-.18-6.96-2.4-8.49-5.76-1.33-2.93-2.28-5.79-3.12-8.31-.02-.05-.05-.15-.07-.2-.02-.07-.05-.16-.08-.25-.3-.93-.59-1.9-.91-3.07-1.23-4.46-1.96-8.78-2.47-12.06-.15-.92-.29-1.85-.41-2.76v-.03c-.05-.31-.1-.62-.14-.93-.77-5.41-1.25-10.71-1.43-15.76-.04-.96-.06-1.92-.08-2.87-.06-4.27.09-8.38.47-12.23.09-1.03.2-2.05.33-3.03.21-1.7.48-3.45.8-5.2.43-2.32,1.24-4.64,2.41-6.89,1.42-2.74,4.04-4.65,7.09-5.16,1.3-.22,2.69-.39,4.14-.51,3.79-.31,7.43,1.59,9.33,4.89,1.9,3.3,1.73,7.4-.45,10.52-.48.7-.59,1.15-.6,1.23-.2,1.05-.38,2.16-.53,3.32-.1.78-.19,1.58-.28,2.38-.33,3.21-.47,6.62-.42,10.13,0,.02,0,.05,0,.07,0,.77.02,1.55.05,2.33.15,4.37.57,8.95,1.24,13.65l.17,1.18c.12.87.25,1.69.37,2.5.64,4.13,1.28,7.2,2.09,9.98.16.56.34,1.12.52,1.69l.2.6c.77,2.31,1.53,4.53,2.45,6.39,1.47,2.98,1.34,6.51-.35,9.37-1.69,2.86-4.72,4.67-8.05,4.82-.29.01-.59.02-.88.02Z"/>
          <path class="cls-1" d="M42.36,83.96c-.79,0-1.58-.09-2.37-.29-1.58-.39-3.17-.88-4.7-1.44-2.21-.81-4.06-2.38-5.21-4.43-1.56-2.77-2.94-5.65-4.12-8.55-.46-1.12-.92-2.31-1.35-3.55-1.29-3.64-2.32-7.45-3.06-11.32-.2-1.01-.38-2.08-.55-3.25-.27-1.8-.47-3.61-.6-5.37-.18-2.39-.25-4.85-.21-7.29.01-.94.05-1.99.12-3.17.24-4.08.8-8.14,1.67-12.07.27-1.23.58-2.47.9-3.67.82-3.03,1.84-6.03,3.02-8.92.81-1.99,2.26-3.67,4.11-4.76,1.57-.93,3.23-1.75,4.92-2.44,3.74-1.53,8.04-.62,10.83,2.3,2.79,2.92,3.52,7.25,1.83,10.92-1.09,2.35-2.01,4.79-2.76,7.26-.27.87-.5,1.73-.72,2.59-.76,3.04-1.26,6.17-1.49,9.29-.07.84-.11,1.61-.13,2.32-.06,1.99-.02,3.99.13,5.97.13,1.61.31,3.19.56,4.66,0,.06.02.11.03.17.12.75.26,1.45.4,2.14,0,.03.01.05.02.08.6,2.92,1.45,5.82,2.53,8.6.36.92.69,1.74,1.04,2.52,1.02,2.32,2.2,4.55,3.52,6.67,2.11,3.4,1.95,7.74-.41,10.98-1.88,2.58-4.85,4.05-7.95,4.05Z"/>
          <path class="cls-1" d="M19.52,54.68c-1.14,0-2.29-.2-3.4-.61-3.62-1.34-6.12-4.66-6.41-8.51-.08-1.13-.12-2.27-.12-3.39,0-.34,0-.69.02-1.03.07-2.85,1.37-5.53,3.57-7.34,3.81-3.15,8.37-5.54,13.93-7.3.97-.32,2.01-.62,3.19-.93,1.41-.38,2.93-.74,4.74-1.12,2.32-.49,4.78-.88,7.3-1.15.99-.11,1.99-.2,2.98-.27,4.86-.37,9.56-.38,14.12-.39h.77c.9,0,1.8,0,2.71,0,3.89.01,8.56.11,13.37.72.8.1,1.63.22,2.54.37.04,0,.07.01.11.02h.06c.17.04.35.07.53.1,2.93.49,5.81,1,8.81,1.88,3.56,1.04,6.23,3.98,6.91,7.62.22,1.16.4,2.38.53,3.63.36,3.33-1,6.61-3.6,8.71-2.6,2.1-6.1,2.74-9.27,1.69-1.81-.6-3.89-1.01-6.45-1.43l-1.32-.22c-.38-.07-.75-.12-1.12-.17-3.67-.51-7.63-.59-11.01-.61-.88,0-1.73,0-2.58,0h-.98c-4.18,0-8.51.01-12.6.33-.84.06-1.58.13-2.27.21-1.74.19-3.39.45-4.94.78-1.71.37-3.1.7-4.35,1.05-.66.19-1.38.41-2.13.66-2.93,1.01-5.12,2.25-6.65,3.8-1.88,1.9-4.41,2.92-7,2.92Z"/>
          <path class="cls-1" d="M19.92,46.61c-.92,0-1.85-.13-2.77-.4-4.82-1.41-7.81-6.24-6.91-11.19.69-3.82,1.94-7.59,3.71-11.19.5-1.03,1.18-1.96,2.01-2.75,2.45-2.36,5.26-4.39,8.37-6.05,1.41-.75,2.89-1.44,4.4-2.03,1.2-.48,2.44-.92,3.77-1.33,3.13-.97,6.5-1.69,10.31-2.21,1.02-.14,2.04-.26,3.03-.36l.99-.1c3.52-.33,7.02-.5,10.45-.5,1.1,0,2.12.02,3.11.05,4.31.14,8.53.56,12.55,1.26.18.03.36.06.53.1,1.12.2,2.21.41,3.25.65,1.87.41,3.78.91,5.61,1.47,1.92.59,3.62,1.75,4.86,3.32,1.17,1.49,2.25,3.08,3.21,4.73,2.08,3.58,1.69,8.08-.98,11.25-2.66,3.17-7.03,4.34-10.91,2.91-1.71-.63-3.48-1.17-5.25-1.6-.02,0-.05-.01-.07-.02-.81-.21-1.62-.39-2.47-.56-3.26-.66-6.72-1.06-10.32-1.21-.89-.04-1.67-.06-2.4-.06-2.98-.03-6,.1-9.03.38-.48.04-.93.09-1.39.14-.73.08-1.53.18-2.34.3-2.84.41-5.25.98-7.35,1.73-.75.27-1.45.56-2.1.87-.05.03-.11.05-.16.08-.24.11-.5.24-.77.38-2.8,1.5-4.92,3.62-5.84,5.83-1.55,3.76-5.2,6.08-9.09,6.09Z"/>
          <path class="cls-1" d="M45.34,63.86h-.39c-4.57,0-8.72-.34-12.69-1.05-1.09-.19-2.23-.43-3.37-.71-2.02-.48-4-1.08-5.87-1.76-.26-.09-.51-.18-.75-.27l-.5-.18c-1.93-.67-4.34-1.51-6.75-2.92-.87-.51-1.65-1.14-2.33-1.89-1.28-1.41-2.13-3.17-2.44-5.05-.25-1.57-.42-3.03-.52-4.47-.27-4.03,1.96-7.82,5.62-9.54,3.63-1.71,7.93-1.05,10.87,1.67.44.28,1.82.77,2.86,1.13.54.18,1.08.37,1.62.57.82.3,1.66.56,2.55.8.75.2,1.45.36,2.08.48.13.02.26.05.39.08,2.79.53,5.82.79,9.24.79.82,0,1.56-.01,2.28-.04,4.48-.14,8.99-.65,12.43-1.08l2.57-.33c3.67-.48,7.59-1.06,11.28-1.99.85-.21,1.53-.4,2.13-.59.09-.03.18-.05.27-.08.12-.03.24-.07.35-.11l.09-.03c2.13-.68,4.14-1.32,5.93-2.08,3.12-1.32,6.7-.95,9.48,1,2.78,1.95,4.36,5.18,4.18,8.57-.07,1.3-.2,2.61-.39,3.88-.52,3.49-2.88,6.44-6.17,7.72-2.2.85-4.36,1.54-6.26,2.15l-.11.04c-.63.2-1.25.39-1.87.56-.99.29-2.02.56-3.08.81-4.59,1.1-9.29,1.78-13.28,2.3l-.98.12c-.57.08-1.15.15-1.74.22-5.46.68-9.72,1.05-13.75,1.19-1,.03-1.96.05-2.91.06h-.08Z"/>
        </g>
        <g>
          <path class="cls-1" d="M84.06,40.35c-4.66,0-8.91-2.5-11.11-6.53-.12-.22-.23-.43-.33-.64-.22-.07-.44-.15-.67-.24-4.52-1.73-7.64-5.97-7.96-10.81-.32-4.89,2.25-9.56,6.54-11.9.15-.08.3-.16.44-.23.1-.31.21-.63.34-.96,1.87-4.88,6.5-8.03,11.79-8.03,4.65,0,8.9,2.5,11.09,6.54l.04.07c.09.16.17.32.25.49.24.08.49.17.74.27,4.53,1.74,7.67,6.03,8,10.94.33,4.93-2.23,9.62-6.51,11.95-.19.1-.37.2-.55.29-.08.25-.17.5-.27.76-1.87,4.89-6.52,8.04-11.84,8.04ZM90.31,24.61h0,0Z"/>
          <path class="cls-1" d="M84.06,41.3c-5.01,0-9.58-2.69-11.94-7.03-.06-.11-.12-.22-.17-.32-.11-.04-.22-.08-.33-.12-4.86-1.87-8.23-6.43-8.57-11.64-.35-5.26,2.41-10.29,7.04-12.81.04-.02.08-.04.11-.06.07-.21.15-.42.23-.64C72.44,3.44,77.42.05,83.11.05c5,0,9.57,2.7,11.94,7.04l.1.19s.02.04.03.05c.13.05.27.1.4.15,4.88,1.87,8.26,6.49,8.61,11.77.35,5.3-2.4,10.34-7,12.85-.08.04-.15.08-.23.12-.05.14-.1.29-.16.43-2.02,5.26-7.01,8.65-12.73,8.65Z"/>
        </g>
        <g>
          <path class="cls-1" d="M17.15,81.3c-4.05,0-7.79-2.06-9.95-5.35-3.27-2.13-5.31-5.82-5.31-9.8s1.96-7.55,5.12-9.73c2.11-3.47,5.94-5.65,10.1-5.65h0c4.01,0,7.71,2.02,9.87,5.27,3.33,2.14,5.41,5.89,5.41,9.95s-2.01,7.7-5.25,9.86c-2.13,3.35-5.91,5.45-9.99,5.45ZM19.51,73.76h0,0ZM13.62,69.6c1.07.54,2.26.84,3.5.84,1.31,0,2.58-.34,3.7-.94.49-1.03.76-2.17.76-3.35,0-1.29-.32-2.54-.89-3.66-.61-.31-1.26-.55-1.93-.69l-5.88,2.71c-.09.48-.14.98-.14,1.48,0,1.28.32,2.51.9,3.61ZM13.55,62.53c-.15.31-.29.63-.4.95l5.55-1.69c-1.73-.36-3.6-.08-5.14.74ZM28.8,60.89h0,0Z"/>
          <path class="cls-1" d="M17.2,83.24c-4.67,0-8.98-2.32-11.5-6.07-3.52-2.52-5.69-6.63-5.69-11.05s1.98-8.17,5.22-10.73c2.43-4.01,6.86-6.54,11.66-6.54,4.54,0,8.75,2.22,11.3,5.82,3.75,2.51,6.09,6.78,6.09,11.38,0,4.36-2.1,8.42-5.51,10.96-2.5,3.83-6.86,6.22-11.57,6.22ZM15.01,68.2c.95.33,2.02.4,3.01.21l-1.51-1.89-1.55,1.55s.03.09.05.14ZM16.61,66.42l1.64,1.94c.39-.09.76-.22,1.12-.39.19-.59.29-1.21.29-1.85,0-.75-.14-1.48-.4-2.16-.05-.02-.1-.04-.15-.06l-2.51,2.51ZM14.83,64.43c-.15.52-.23,1.07-.23,1.63,0,.26.02.52.05.78l1.31-.98-1.14-1.42ZM14.86,64.34l1.21,1.43,2.66-1.99c-1.23-.35-2.59-.25-3.76.25-.04.1-.07.21-.1.31Z"/>
        </g>
      </g>
      <g>
        <g>
          <path class="cls-2" d="M86.2,42.17c0,.72-.02,1.43-.07,2.13-.05,1-.15,1.98-.3,2.94-.56,3.93-1.8,7.53-3.64,10.81h0c-.83,1.48-1.78,2.89-2.85,4.24-.81,1.02-1.69,2-2.62,2.94-.23.23-.46.45-.69.68-1.18,1.13-2.41,2.18-3.71,3.15-3.51,2.61-7.45,4.58-11.8,5.61-.98.24-1.97.42-2.99.54-1.11.14-2.24.23-3.4.24-.15,0-.31,0-.46,0-.81,0-1.63-.02-2.45-.06-3.01-.14-6.01-.55-8.87-1.27-1.27-.31-2.5-.7-3.71-1.13-3.71-1.36-7.07-3.34-9.76-6.03-1.5-1.5-2.83-3.2-3.98-5.06-.78-1.24-1.48-2.55-2.1-3.92h0c-1.34-2.98-2.31-6.2-2.85-9.51h0c-.19-1.18-.33-2.36-.41-3.55,0-.03,0-.06,0-.09-.07-.89-.1-1.78-.1-2.68,0-.26,0-.53.01-.79.04-1.55.2-3.09.48-4.59h0c.54-3.02,1.53-5.92,2.86-8.62,1.81-3.7,4.25-7.04,7.06-9.84,1.57-1.56,3.3-2.89,5.16-3.99,1.17-.69,2.38-1.29,3.65-1.81,2.41-1,4.98-1.69,7.67-2.12,1.08-.18,2.19-.31,3.3-.41,1.16-.1,2.34-.15,3.53-.16.18,0,.36,0,.54,0,.9,0,1.79.03,2.66.09,3.42.21,6.65.84,9.66,1.9,1.95.69,3.82,1.56,5.57,2.62,1.98,1.2,3.82,2.64,5.51,4.32.85.85,1.64,1.74,2.37,2.67.9,1.14,1.7,2.33,2.43,3.58,1.78,3.09,3.02,6.49,3.7,10.15.18.94.31,1.89.42,2.87.14,1.35.21,2.73.21,4.13Z"/>
          <path class="cls-1" d="M63.52,52.51c-.01,3.93-.18,7.92-.77,11.85,0,.01,0,.02,0,.03-.13.89-.27,1.8-.43,2.71-.41,2.49-.93,5.07-1.78,7.55-.98.24-1.97.42-2.99.54,1-2.46,1.6-5.1,2.06-7.76.16-.89.3-1.79.43-2.68.05-.27.09-.53.12-.8.56-3.65.71-7.4.73-11.12,0-.89,0-1.76,0-2.64-.01-1.2-.03-2.39-.05-3.58-.06-3.93-.14-7.8-.41-11.52-.07-.89-.14-1.76-.22-2.62-.26-2.66-.64-5.23-1.19-7.67-.29-1.28-.6-2.56-.95-3.84-.24-.89-.5-1.76-.79-2.64-.99-3.03-2.29-5.93-4.13-8.49.18,0,.36,0,.54,0,.9,0,1.79.03,2.66.09,1.62,2.64,2.79,5.51,3.69,8.46.28.89.53,1.77.76,2.66.28,1.06.54,2.12.77,3.19.6,2.64,1,5.4,1.27,8.25.09.87.16,1.74.22,2.62.26,3.72.35,7.57.41,11.47.01,1.09.03,2.18.04,3.29.01.88.02,1.76.01,2.64Z"/>
          <path class="cls-1" d="M78.55,46.93c-.01.9-.04,1.82-.08,2.75-.14,3.44-.51,7.02-1.16,10.62-.19,1.02-.4,2.05-.64,3.07-.18.84-.39,1.69-.62,2.52-1.18,1.13-2.41,2.18-3.71,3.15.53-1.53.99-3.08,1.38-4.62.26-1,.5-2.01.7-3.01.77-3.74,1.21-7.46,1.4-11.04.05-.92.08-1.82.1-2.72.09-4.26-.14-8.28-.52-11.85-.01-.09-.02-.19-.03-.28-.09-.77-.18-1.57-.29-2.41-.45-3.32-1.15-7.05-2.47-10.69-.35-.98-.75-1.94-1.2-2.89h0s0,0,0,0c-.27-.6-.57-1.19-.89-1.78-1.26-2.28-2.79-4.28-4.5-5.93,1.95.69,3.82,1.56,5.57,2.62.43.65.85,1.33,1.23,2.03.66,1.2,1.25,2.43,1.74,3.67.4.98.75,1.97,1.06,2.95,1.15,3.63,1.77,7.23,2.16,10.43.08.59.14,1.16.2,1.72.03.33.07.66.1.99.33,3.27.52,6.88.48,10.69Z"/>
          <path class="cls-1" d="M54.14,75.44c-.15,0-.31,0-.46,0-.81,0-1.63-.02-2.45-.06-1.12-2.47-1.96-5-2.75-7.39-.03-.1-.07-.22-.1-.32-.29-.89-.55-1.78-.8-2.68-1-3.63-1.67-7.34-2.23-10.98-.14-.88-.28-1.76-.39-2.62-.05-.3-.09-.6-.13-.89-.73-5.15-1.18-10.09-1.34-14.81-.04-.89-.06-1.76-.07-2.63-.06-3.89.08-7.62.43-11.17.08-.91.18-1.81.3-2.69.19-1.58.43-3.12.71-4.63.26-1.41.77-2.81,1.47-4.16,1.08-.18,2.19-.31,3.3-.41-1.11,1.59-1.88,3.32-2.2,5.05-.24,1.25-.44,2.53-.62,3.84-.11.88-.22,1.76-.31,2.67-.37,3.58-.52,7.34-.47,11.28,0,.87.03,1.74.06,2.62.16,4.67.6,9.57,1.33,14.67.06.41.12.81.18,1.22.12.88.26,1.75.39,2.62.58,3.79,1.29,7.52,2.35,11.18.2.68.41,1.35.63,2.03.07.2.14.41.2.62.86,2.58,1.76,5.2,2.97,7.65Z"/>
          <path class="cls-1" d="M42.36,74.12c-1.27-.31-2.5-.7-3.71-1.13-1.36-2.42-2.56-4.92-3.61-7.48-.42-1.01-.81-2.03-1.17-3.06-1.14-3.22-2.03-6.53-2.68-9.9-.18-.94-.34-1.88-.48-2.83-.23-1.55-.41-3.11-.52-4.69-.16-2.13-.22-4.26-.18-6.38.01-.93.05-1.86.1-2.79.21-3.54.7-7.06,1.46-10.51.24-1.08.5-2.14.79-3.21.72-2.65,1.6-5.25,2.64-7.8,1.17-.69,2.38-1.29,3.65-1.81-1.28,2.77-2.36,5.62-3.24,8.53-.31,1.01-.59,2.03-.85,3.05-.9,3.59-1.49,7.27-1.76,10.96-.07.92-.12,1.84-.15,2.75-.07,2.33-.02,4.66.16,7,.14,1.86.36,3.7.66,5.53h0c.15.94.32,1.86.52,2.77.71,3.47,1.72,6.87,3,10.17.39,1,.79,1.99,1.23,2.98,1.19,2.7,2.58,5.32,4.14,7.85Z"/>
          <path class="cls-1" d="M85.99,38.04c-2.56-.85-5.25-1.35-7.92-1.8-.43-.07-.87-.14-1.29-.22-.46-.08-.92-.14-1.38-.21-4.07-.56-8.23-.69-12.34-.71-.88,0-1.76,0-2.63,0h-.98c-4.41,0-8.9.01-13.36.36-.87.07-1.74.14-2.61.24-1.97.22-3.92.52-5.86.92-1.66.35-3.32.74-4.97,1.2-.89.25-1.76.52-2.64.82-3.89,1.34-7.55,3.23-10.48,6.2-.07-.89-.1-1.78-.1-2.68,0-.26,0-.53.01-.79,3.17-2.62,6.84-4.31,10.67-5.52.89-.29,1.78-.54,2.68-.78,1.42-.38,2.85-.71,4.28-1.01,2.1-.45,4.21-.77,6.33-.99.87-.1,1.74-.18,2.62-.24,4.5-.35,9-.35,13.42-.36h.76c.87,0,1.75,0,2.64,0,4.05.01,8.16.12,12.24.64.71.09,1.42.19,2.13.31.18.03.37.06.56.1,2.52.42,5.19.88,7.8,1.64.18.94.31,1.89.42,2.87Z"/>
          <path class="cls-1" d="M81.88,25.02c-2.08-.76-4.17-1.4-6.27-1.91-1-.26-2-.48-3-.68-4.01-.81-8-1.23-11.81-1.38-.92-.04-1.84-.07-2.73-.07-3.59-.04-6.97.14-10.03.43-.5.05-1.02.1-1.55.16-.86.1-1.75.21-2.66.34-2.96.43-6.15,1.09-9.27,2.21-1,.36-2,.77-2.98,1.23-.47.21-.92.44-1.38.68-4.87,2.6-8.49,6.43-10.27,10.75.54-3.01,1.53-5.91,2.86-8.6,1.77-1.7,3.84-3.21,6.18-4.46,1.11-.6,2.26-1.12,3.4-1.57,1.01-.41,2.03-.76,3.04-1.08,2.99-.92,5.97-1.48,8.72-1.86.92-.12,1.82-.23,2.68-.31.34-.03.67-.07,1-.1,2.9-.28,6.1-.45,9.47-.45.91,0,1.83.01,2.77.05,3.66.12,7.48.47,11.36,1.15h0c1.04.18,2.09.39,3.14.62,1.63.36,3.27.79,4.9,1.29.9,1.14,1.7,2.33,2.43,3.58Z"/>
          <path class="cls-1" d="M86.14,44.3c-.05,1-.15,1.98-.3,2.94-1.96.76-3.93,1.38-5.8,1.98-.52.16-1.04.32-1.57.47-.88.26-1.76.49-2.66.7-4.09.98-8.27,1.6-12.3,2.12-.34.05-.68.09-1.02.13-.53.07-1.07.14-1.61.2-4.25.53-8.58.98-12.9,1.13-.88.03-1.76.05-2.64.05h-.39c-3.69,0-7.36-.26-10.97-.9-.93-.16-1.86-.36-2.79-.58-1.62-.39-3.23-.86-4.81-1.44-.47-.17-.92-.33-1.38-.49-1.71-.6-3.46-1.21-5.06-2.14h0c-.19-1.18-.33-2.36-.41-3.55,1.67,1.57,3.86,2.34,6.34,3.21.47.16.94.32,1.41.5,1.13.41,2.28.77,3.44,1.08.91.24,1.83.46,2.75.64h0c3.75.75,7.6,1.05,11.48,1.05.88,0,1.76-.01,2.64-.05,4.45-.14,8.91-.6,13.3-1.15.43-.05.85-.1,1.27-.16.45-.06.89-.12,1.34-.18,4.09-.54,8.31-1.17,12.41-2.2.89-.22,1.76-.46,2.64-.73.24-.07.47-.14.7-.21,2.31-.73,4.65-1.48,6.89-2.43Z"/>
        </g>
        <g>
          <path class="cls-2" d="M84.06,30.51c-1.07,0-1.99-.52-2.47-1.4-.5-.91-.68-1.56-.82-2.09-.2-.71-.29-1.06-1.16-1.82-.87-.76-1.24-.81-1.96-.91-.54-.07-1.21-.17-2.17-.54-.96-.37-1.6-1.24-1.67-2.28-.07-1.08.49-2.1,1.43-2.61.8-.44,1.38-.65,1.84-.82.74-.27,1.11-.41,1.95-1.37.77-.88.82-1.24.93-1.97.08-.53.17-1.2.54-2.16.4-1.04,1.42-1.71,2.61-1.71,1.04,0,1.98.54,2.46,1.4l.05.09.03.1c.16.54.27.98.36,1.35.28,1.14.34,1.41,1.49,2.42.83.73,1.2.76,1.93.83.57.06,1.28.12,2.29.51.98.38,1.63,1.3,1.71,2.41.07,1.13-.46,2.15-1.4,2.66-.91.49-1.56.68-2.09.82-.71.2-1.07.3-1.84,1.17-.74.84-.78,1.21-.86,1.93-.06.56-.14,1.25-.52,2.25-.4,1.05-1.44,1.72-2.66,1.72Z"/>
          <path class="cls-1" d="M83.11,11.79c.64,0,1.29.3,1.62.91.68,2.32.36,2.66,2.14,4.22s2.29.67,4.5,1.52c1.37.53,1.48,2.64.19,3.34-2.08,1.13-2.63.42-4.19,2.2-1.56,1.78-.71,2.26-1.55,4.47-.28.73-1.02,1.11-1.76,1.11-.65,0-1.3-.29-1.63-.9-1.13-2.08-.41-2.61-2.19-4.17-1.78-1.56-2.21-.78-4.42-1.63-1.37-.53-1.41-2.46-.12-3.16,2.08-1.13,2.49-.62,4.05-2.4,1.56-1.78.79-2.2,1.64-4.41.28-.73,1-1.1,1.72-1.1M83.11,9.88h0c-1.59,0-2.96.91-3.5,2.33-.41,1.06-.52,1.81-.6,2.36-.09.64-.12.81-.7,1.48-.68.78-.89.85-1.56,1.1-.47.17-1.11.41-1.97.88-1.27.69-2.03,2.07-1.93,3.52.09,1.41.97,2.6,2.28,3.11,1.07.41,1.83.52,2.38.59.64.09.81.11,1.46.69.65.57.7.74.87,1.36.15.54.35,1.28.9,2.29.64,1.17,1.9,1.89,3.31,1.89,1.61,0,3-.92,3.55-2.34.43-1.11.51-1.91.58-2.49.07-.64.09-.79.63-1.41.57-.65.74-.7,1.37-.87.54-.15,1.29-.36,2.29-.9,1.27-.69,1.99-2.06,1.89-3.56-.1-1.49-.99-2.73-2.32-3.24-1.13-.43-1.95-.51-2.54-.57-.64-.06-.79-.08-1.39-.6-.92-.81-.94-.87-1.19-1.92-.09-.37-.2-.83-.37-1.4l-.06-.19-.1-.18c-.64-1.17-1.9-1.9-3.3-1.9h0Z"/>
        </g>
        <g>
          <path class="cls-2" d="M19.64,63.52c.68.68.95.29,1.82.69,1.47.68,1.45,2.92-.02,3.6-.88.41-1.09.08-1.78.76s-.31.92-.71,1.8c-.68,1.47-2.96,1.46-3.63,0-.41-.88-.07-1.08-.76-1.76s-.88-.36-1.76-.76c-1.47-.68-1.4-2.79.07-3.47.88-.41,1.01-.23,1.69-.91s.37-.87.77-1.75c.68-1.47,2.91-1.45,3.59.01.29.95.03,1.12.72,1.8Z"/>
          <path class="cls-1" d="M16.89,60.6c.76,0,1.54.4,1.9,1.17.29.95.09,1.14.77,1.83.68.68.98.3,1.86.7,1.47.68,1.48,2.8.01,3.48-.88.41-.95.23-1.64.91-.68.68-.36.83-.76,1.71-.33.73-1.09,1.08-1.84,1.08s-1.55-.38-1.9-1.12c-.41-.88.05-1.19-.64-1.87-.68-.68-.96-.3-1.84-.71-1.47-.68-1.41-2.73.05-3.4.88-.41,1.02-.23,1.7-.91.68-.68.21-.96.61-1.84.32-.7,1-1.04,1.7-1.04M16.89,58.69h0c-1.51,0-2.82.82-3.44,2.15-.27.59-.34,1.09-.36,1.41,0,0-.02.01-.02.02-.04.01-.08.03-.12.04-.19.06-.49.16-.87.34-1.38.64-2.24,1.97-2.24,3.48,0,1.48.84,2.78,2.19,3.4.49.23.9.31,1.19.36.03.32.11.76.36,1.29.63,1.38,2.03,2.23,3.63,2.23s2.95-.84,3.58-2.19c.24-.52.32-.9.37-1.15,0,0,0,0,0,0,.1-.1.16-.15.18-.17.03-.01.07-.02.11-.04.17-.06.44-.16.79-.32,1.36-.63,2.21-1.96,2.21-3.47,0-1.52-.85-2.85-2.22-3.49-.6-.28-1.07-.35-1.37-.38,0,0,0,0,0,0,0-.03-.01-.06-.02-.09-.04-.21-.1-.5-.21-.88l-.04-.12-.05-.12c-.64-1.39-2.07-2.28-3.64-2.28h0Z"/>
        </g>
      </g>
    </g>
  </g>
</svg>