<?xml version="1.0" encoding="UTF-8"?>
<svg id="Ebene_2" xmlns="http://www.w3.org/2000/svg" viewBox="0 0 78.44 92.03">
  <defs>
    <style>
      .cls-1 {
        fill: #ed5fc5;
      }

      .cls-2 {
        fill: #d9ed8e;
      }
    </style>
  </defs>
  <g id="Ebene_1-2" data-name="Ebene_1">
    <g>
      <g>
        <path class="cls-2" d="M36.83,92.03c-7.63,0-21.51-.56-30.33-11.27-5.36-6.51-7.6-15.35-5.99-23.63.99-5.1,3.25-9.39,5.24-13.17,1.76-3.34,3.42-6.49,3.36-8.81v-.26c-.06-1.82-.21-6.64,3.6-10.43,2.04-2.03,4.68-3.17,7.41-3.4.05-.46.1-.92.16-1.37.99-6.97,4.28-12.99,9.27-16.94C33.98-.72,38.18-.16,40.28.48c2.04.62,8.46,3.35,7.75,12.74.08.09.19.2.31.32.69.63,1.7,1.33,2.77,2.07,1.21.83,2.57,1.78,3.95,2.93,4.21,3.54,7.38,8.23,9.23,13.4,3.16-.31,6.42.67,8.9,2.76,2.95,2.48,4.44,6.21,3.99,9.97-.24,1.97-.93,3.52-1.63,4.66.1.24.21.49.33.75.44,1,.94,2.13,1.37,3.46,2.94,8.94.3,19.49-6.72,26.86-5.34,5.61-12.91,9.35-21.88,10.83-3.18.52-6.61.79-10.49.8-.42,0-.87,0-1.34,0ZM24.58,50.24c-.5,1-1,1.95-1.48,2.87-1.49,2.83-2.9,5.51-3.34,7.77-.49,2.53.25,5.44,1.88,7.43,3.02,3.68,9.7,4.15,16.44,4.12,2.84-.01,5.26-.19,7.4-.54h0c4.67-.77,8.53-2.54,10.87-5,2.01-2.11,2.97-5.15,2.29-7.22-.04-.11-.08-.24-.14-.37-.67-.01-1.34-.08-2-.21-4.85-.93-8.69-4.81-9.8-9.89-.51-2.33-.34-4.31-.23-5.62l.04-.45c.25-3.53-1.34-7.29-4.05-9.57-.46-.39-1.02-.8-1.64-1.23.45,1.98.88,4.65.26,7.7-1.36,6.69-7.24,11.32-13.72,10.78-.96-.08-1.9-.27-2.79-.56ZM34.64,35.34h0s0,0,0,0Z"/>
        <path class="cls-2" d="M33.8,86.63c-2.08,0-4.28-.15-6.59-.64-7.21-1.54-12.81-6.15-14.99-12.34-2.52-7.17.33-13.89,1.86-17.5.52-1.22,1.48-3.49,3.49-5.51,3.15-3.15,7.62-4.4,11.72-3.36.09-.68.11-1.37.06-2.05-.12-1.64-.44-5.86,2.71-9.57,2.59-3.06,6.59-4.52,10.69-3.89,2.41.37,4.79,1.46,6.69,3.08,4.02,3.41,6.34,8.7,6.45,14.66,2.61.2,5.11,1.27,7.04,3.16,1.85,1.83,3.93,5.11,3.26,10.37-.56,4.41-1.82,8.34-3.76,11.67-2.58,4.44-6.44,7.89-10.87,9.71-3.91,1.61-7.68,1.77-10.71,1.9l-.87.04c-.52.02-1.03.05-1.55.08-1.46.08-3,.17-4.61.17Z"/>
      </g>
      <g>
        <path class="cls-1" d="M47.07,81.56c6.09-1,12.12-3.45,16.38-7.92,4.25-4.47,6.43-11.18,4.5-17.04-.62-1.88-1.62-3.63-2.19-5.53s-.62-4.11.56-5.71c.44-.6,1.05-1.13,1.14-1.87.15-1.2-1.36-2.09-2.53-1.74s-1.91,1.48-2.35,2.61-.66,2.35-1.28,3.4-1.77,1.92-2.96,1.69c-1.08-.21-1.83-1.27-2.07-2.34s-.07-2.2,0-3.3c.48-6.66-2.41-13.47-7.52-17.77-2.24-1.88-4.86-3.29-7.02-5.27-2.16-1.97-3.89-4.77-3.54-7.67.15-1.21.39-2.89-.78-3.25-.62-.19-1.26.19-1.76.59-3.22,2.55-5.07,6.56-5.65,10.63s.02,8.22.98,12.22c.38,1.57.82,3.2.5,4.78-.32,1.58-1.68,3.09-3.29,2.96-1.34-.11-2.37-1.31-2.83-2.57s-.51-2.64-.79-3.96c-.25-1.16-.73-2.34-1.67-3.07s-2.42-.85-3.26-.02c-.87.87-.75,2.27-.72,3.5.21,8.62-7.14,15.62-8.79,24.09-1.05,5.42.43,11.27,3.94,15.53,5.82,7.07,15.56,7.73,24.05,7.69,2.99-.01,5.99-.19,8.95-.67Z"/>
        <path class="cls-2" d="M27.06,56.84c-.87-.33-1.89.06-2.55.73s-1.04,1.55-1.41,2.41c-1.41,3.32-2.83,7.03-1.64,10.43,1.14,3.23,4.44,5.29,7.79,6s6.82.34,10.24.18c2.82-.14,5.72-.14,8.33-1.21,2.6-1.07,4.71-3.14,6.12-5.57,1.41-2.43,2.16-5.2,2.51-7.98.1-.75.13-1.62-.42-2.16-.57-.56-1.54-.47-2.21-.03s-1.1,1.14-1.55,1.8c-.75,1.1-1.63,2.17-2.82,2.78s-2.75.66-3.77-.19c-1.34-1.1-1.3-3.14-1.02-4.85.48-2.93,1.32-5.81,1.41-8.77.09-2.96-.73-6.15-2.99-8.06-1.01-.86-2.71-1.34-3.57-.33-.56.66-.47,1.64-.41,2.51.32,4.32-.78,8.73-3.09,12.39-.9,1.42-2.03,2.78-3.59,3.42-1.13.47-3.04.57-3.98-.39-.89-.91.12-2.51-1.4-3.08Z"/>
      </g>
    </g>
  </g>
</svg>