<?xml version="1.0" encoding="UTF-8"?>
<svg id="Ebene_2" xmlns="http://www.w3.org/2000/svg" viewBox="0 0 48.92 85.33">
  <defs>
    <style>
      .cls-1 {
        fill: #ed5fc5;
      }

      .cls-2 {
        fill: #d9ed8e;
      }
    </style>
  </defs>
  <g id="Ebene_1-2" data-name="Ebene_1">
    <g id="flash">
      <g>
        <path class="cls-1" d="M11.83,85.33c-1.1,0-2.22-.18-3.33-.54-4.9-1.63-7.84-6.52-6.98-11.61l2.32-13.79s-.03-.02-.04-.03c-3.35-2.75-4.63-7.19-3.27-11.31L14.02,7.15C15.5,2.69,19.81-.25,24.5.02l14.6.83c3.47.2,6.59,2.09,8.36,5.07,1.77,2.97,1.95,6.62.48,9.75-1.95,4.16-3.53,7.52-4.81,10.24,1.87,3.06,2.06,6.96.38,10.22l-22.45,43.55c-1.84,3.56-5.42,5.65-9.22,5.65ZM5.9,43.23s0,0-.01,0h.01Z"/>
        <path class="cls-1" d="M18.95,62.72c-1.11,0-2.24-.18-3.35-.55-4.55-1.53-7.39-5.85-7.08-10.53-2.5-2.77-3.35-6.76-2.15-10.32l10.07-29.84c1.47-4.35,5.7-7.25,10.28-7.08l6.32.25c3.41.13,6.54,1.93,8.38,4.81,1.83,2.88,2.14,6.48.82,9.62-2.65,6.32-4.59,10.92-6.01,14.29,1.16,2.79,1.09,6.02-.35,8.81l-7.72,14.91c-1.84,3.55-5.42,5.64-9.21,5.64ZM22.15,53.59h0s0,0,0,0ZM35.08,17.77h0s0,0,0,0h0Z"/>
      </g>
      <g>
        <path class="cls-2" d="M23.36,10.24l-13.49,40.89c-.17.5.37.95.84.69l3.78-2.12c.43-.24.94.12.86.6l-4.13,24.52c-.11.65.79.95,1.09.36l22.45-43.56c.25-.48-.24-1.01-.74-.8-1.97.81-5.19,2.1-4.98,1.79.27-.4,8.18-17.27,9.98-21.12.17-.37-.08-.8-.49-.82l-14.59-.83c-.26-.01-.5.15-.58.4Z"/>
        <path class="cls-1" d="M25.76,14.62l-10.07,29.84c-.16.46.29.9.75.73l2.38-.85c.42-.15.85.21.77.65l-1.24,7.21c-.11.65.78.96,1.09.37l7.72-14.9c.25-.49-.24-1.02-.75-.8-1.29.56-2.93,1.23-2.8,1.04.18-.28,7.89-18.61,9.57-22.62.16-.37-.11-.79-.51-.8l-6.33-.25c-.26-.01-.49.15-.57.39Z"/>
      </g>
    </g>
  </g>
</svg>