<?xml version="1.0" encoding="UTF-8"?>
<svg id="Ebene_2" xmlns="http://www.w3.org/2000/svg" viewBox="0 0 91.59 90.65">
  <defs>
    <style>
      .cls-1 {
        fill: #ed5fc5;
      }

      .cls-2 {
        fill: #d9ed8e;
      }
    </style>
  </defs>
  <g id="Ebene_1-2" data-name="Ebene_1">
    <g>
      <g>
        <path class="cls-2" d="M39.82,90.65c-.94,0-1.88-.09-2.82-.27-2.9-.56-5.06-1.85-6.5-2.71-.26-.16-.52-.32-.79-.46-.26-.14-.66-.28-1.7-.32-5.56-.21-10.39-3.69-12.38-8.91-.14-.15-.35-.37-.51-.54-1.35-1.39-4.73-4.86-5.16-9.89-2.53-1.53-4.66-3.78-6.19-6.57-1.89-3.47-2.49-7.06-2.89-9.43C0,46.31-1.63,36.57,4.45,28.22c1.9-2.61,4.4-4.63,7.21-5.91.07-.73.2-1.47.39-2.22.85-3.34,2.94-6.3,5.89-8.34,3.43-2.37,6.98-2.98,9.33-3.38.7-.12,1.49-.26,1.83-.37.69-.24,2-1.17,3.16-2,3.6-2.57,9.62-6.87,17.81-5.03,5.18,1.17,9.66,4.65,12.28,9.56,1.67,3.14,2.46,6.32,2.66,9.41,2.85-1.16,6.44-1.7,10.4.05,3.1,1.36,4.91,3.65,5.68,4.62,2.51,3.17,4.77,6.54,6.72,10.03,1.39,2.48,2.92,5.44,3.53,9.08.81,4.85-.35,9.68-3.19,13.24-1.06,1.33-2.32,2.45-3.74,3.36.22,1.63.22,3.3,0,4.95-.9,6.49-5.11,11.02-7.36,13.46-3.2,3.45-10.71,11.54-21.44,11.06-2.58-.11-4.94-.74-6.97-1.86-2.64,1.74-5.69,2.71-8.81,2.71ZM32.32,67.67c1.71.3,3.33.77,4.86,1.41-.07-.67-.15-1.34-.23-2-.14-1.16-.29-2.38-.39-3.69-1.84.74-3.55,1.78-5.06,3.06.29.39.56.8.82,1.21ZM55.98,56.5c1.96,3.57,3.37,7.43,4.16,11.42.72-.65,1.55-1.47,2.53-2.52,1.05-1.14,1.76-1.99,2.12-2.54-.38-.3-1.16-.64-2.28-.74l-.69-18.24c-.49.16-.98.31-1.48.45-7.57,2.14-13.01-1.19-15.47-5.79-.01.18-.03.37-.05.55l8.41,13.01,6.54,3.06-3.81,1.35ZM19.61,42.35c-.07,1.64.22,3.68.56,5.73.69-.53,1.45-1.08,2.3-1.6.28-.18.57-.34.86-.5-1.52-1.19-2.71-2.47-3.71-3.62ZM65.47,42.42c1.61.03,3.1.22,4.45.44-.43-.71-.87-1.42-1.33-2.12-1.01.62-2.05,1.18-3.12,1.68ZM38.09,26.76c.1.07.2.15.31.23,1.25.9,3.49,2.51,4.98,5.11.04-1.31.27-2.63.69-3.91.82-2.48,1.65-5.45,1.29-7.43-.58.38-1.22.84-1.73,1.2-1.78,1.27-3.93,2.8-6.56,3.95l1.01.85ZM38.16,26.81h0s0,0,0,0Z"/>
        <path class="cls-2" d="M34.9,73.8c-.31,0-.62-.01-.94-.04-4.13-.38-7.63-3.23-8.91-7.26l-.34-1.07-.09-1.12c-.38-4.75,2.13-8.21,3.2-9.69l.07-.1c.06-.09.12-.17.18-.26-.06-.12-.12-.23-.17-.35h-.09s-.58-.09-.58-.09c-3.77-.58-6.76-3-8.01-6.49l-1.97-5.51,3.93-4.4c2.36-2.62,5.99-3.62,8.88-3.68v-.02s.25,0,.25,0c.17,0,.34-.01.52-.02.31-3.24,2.17-5.87,4.43-7.35,1.03-.67,2.24-1.18,3.55-1.43,1.77-2.07,4.18-3.4,6.95-3.7,6.07-.65,9.98,3.75,11.49,7.72l.18.46.13.48c.18.68.32,1.34.42,1.99,1.49.21,2.92.72,4.18,1.5.68-.02,1.37-.01,2.09.05,5.68.42,10.18,4.92,10.41,10.46.2,4.81-2.76,8.97-7.27,10.6.24.85.42,1.73.52,2.62.48,4.07-1.4,8.02-4.82,10.09-3.4,2.06-7.73,1.91-11.13-.35-1.21-.79-2.2-1.66-3.03-2.51,0,0-.01,0-.02,0-.8.3-1.63.5-2.46.6-.48.84-.99,1.73-1.54,2.67l-.15.25c-1.85,3.11-5.46,5.94-9.85,5.94ZM34.53,42c.06.06.12.11.19.17,0,0,0,0,0,0l-.18-.16Z"/>
        <g>
          <path class="cls-2" d="M52.75,54.85l-14.92-12.71c4.05-4.77,15.29-19.26,18.59-28.96l18.55,6.32c-5.1,14.99-20.49,33.31-22.23,35.35ZM45.29,48.49l-7.46-6.35s0,0,0,0l7.46,6.35Z"/>
          <path class="cls-2" d="M45.23,59.97c-2.57,0-5.04-.86-7.08-2.48-2.46-1.93-4.03-4.87-4.29-8.03-.25-3.12.79-6.23,2.87-8.55,4.03-4.57,7.77-9.28,11.11-14,2.91-4.15,6.18-9.13,8.2-14.28,2-5.19,7.66-7.86,12.95-6.09,5.33,1.79,8.23,7.42,6.6,12.8l-.09.27c-3.53,10.56-9.42,19.51-15.15,27.77l-.06.08c-2.22,3.14-4.16,5.73-6.09,8.17-1.9,2.39-4.61,3.9-7.65,4.25-.45.05-.89.08-1.33.08Z"/>
        </g>
        <path class="cls-2" d="M61,29.28c-.08,0-.15,0-.23,0-3.82-.07-7.4-2.01-9.56-5.2-2.15-3.18-2.62-7.22-1.26-10.81,1.24-3.25,3.79-5.67,7.02-6.66,2.86-.87,5.95-.48,8.5,1.06,1.5.91,2.74,2.17,3.6,3.65.8,1.18,1.44,2.47,1.89,3.82,1.24,3.63.63,7.36-1.66,10.22-2,2.5-5.02,3.92-8.31,3.92ZM53.33,22.81c.59.64,1.26,1.2,2.02,1.65,2.19,1.32,4.86,1.65,7.32.91,2.59-.79,4.68-2.71,5.61-5.14.65-1.72.67-3.6.09-5.29l-9.26,1.8,5.73-6.04c-1.11-.63-2.38-.98-3.69-1.01-2.68-.03-5.37,1.22-7.13,3.42-1.15,1.44-1.84,3.22-1.99,5.01l-.97.19c.26,1.31.79,2.54,1.55,3.61.18.35.41.66.7.94l.03-.03Z"/>
        <path class="cls-2" d="M63.24,25.3c-2.68,0-5.35-1.02-7.41-2.97h0c-3.78-3.59-5.49-10.23-1.82-15.14,3.58-4.79,9.64-4.88,13.76-2.5,3.21,1.86,5.39,5.06,5.84,8.57.57,4.52-1.71,8.9-5.68,10.91-1.48.75-3.08,1.11-4.69,1.11ZM63.22,5.7c-1.41,0-2.84.33-4.16,1-3.4,1.72-5.37,5.36-4.9,9.04.32,2.52,1.74,4.73,3.79,5.91,3.27,1.89,8.69,1.38,11.76-2.73,2.21-2.96,2.83-7.76-.39-10.82l-6.75,7.11,6.74-7.11c-1.66-1.58-3.86-2.4-6.09-2.4Z"/>
        <path class="cls-2" d="M67.4,23.89c-1.35,0-2.7-.24-4-.73-3.47-1.3-6.04-4.25-6.87-7.87-1.05-4.6.94-9.22,3.38-11.77,2.7-2.82,6.54-4.05,10.28-3.31,5.23,1.05,8.93,5.64,9.01,11.16.06,4.12-1.96,8.12-5.26,10.44-1.94,1.37-4.23,2.07-6.55,2.07ZM62.44,5.95c-1.17.89-2.88,2.7-2.84,5.7.05,3.74,2.89,7.01,6.75,7.78,2.87.57,5.76-.31,7.72-2.37h0c1.59-1.66,2.12-3.72,1.57-6.13-.63-2.77-2.69-5.12-5.36-6.12-2.51-.94-5.43-.57-7.62.98-.07.05-.14.1-.22.16l4.54,4.35-4.55-4.34Z"/>
        <path class="cls-2" d="M68.51,27.61c-3.58,0-5.98-1.66-7.15-2.73-4.11-3.74-4.56-9.95-1.05-14.44h0c2.32-2.97,6.06-4.69,9.77-4.49,3.47.18,6.63,2.04,8.46,4.97,1.95,3.12,2.18,6.95.59,10.24-2,4.15-6.1,6.02-9.26,6.38-.47.05-.93.08-1.36.08ZM68.54,8.01c-.3,0-.59.02-.89.05-3.89.45-5.71,3.63-6.18,4.59-1.33,2.77-1.16,6.09.45,8.67,1.55,2.48,4.21,4.05,7.12,4.21,1.55.09,4.5-.2,6.69-3l-7.72-6.04,7.72,6.04c2.83-3.62,2.3-8.94-1.2-12.13-1.66-1.52-3.86-2.38-6.01-2.38Z"/>
        <path class="cls-2" d="M68.82,32.42c-.62,0-1.24-.05-1.86-.16-3.8-.65-7.07-3.23-8.55-6.75h0c-1.75-4.15-.74-9.08,2.49-12.26,3.2-3.15,7.92-4.02,12.02-2.22,3.41,1.5,5.81,4.73,6.41,8.64.6,3.89-.71,7.67-3.49,10.12-1.95,1.71-4.43,2.62-7.02,2.62ZM68.84,12.82c-2.14,0-4.28.8-5.93,2.25-2.24,1.97-3.36,4.87-2.94,7.59.42,2.7,2.36,5.12,5.06,6.31,3.24,1.43,7.11.72,9.62-1.75,2.47-2.43,3.19-6.09,1.83-9.32l-9.03,3.8,9.03-3.81c-1.11-2.63-3.44-4.49-6.22-4.96-.47-.08-.94-.12-1.41-.12Z"/>
      </g>
      <g>
        <path class="cls-1" d="M24.4,28.04c-1.66-1.4-3.48-3.06-2.85-5.53.28-1.1,1.02-2.04,1.96-2.68,2.65-1.83,5.88-1.56,8.76-2.55,5.5-1.88,9.43-8.14,15.64-6.74,2.51.57,4.57,2.34,5.78,4.61,2.73,5.13,1.4,10.93-.31,16.11-.25.75-.29,1.58-.01,2.32.74,1.97,2.73,1.78,4.31,1.33,2.72-.77,5.31-2.04,7.58-3.73,1.85-1.38,4.08-3.14,6.2-2.21.8.35,1.39,1.04,1.94,1.73,2.18,2.75,4.14,5.67,5.85,8.73,1.04,1.86,2.06,3.8,2.42,5.91.32,1.91.02,4.01-1.19,5.52-1.86,2.34-5.29,2.7-8.25,2.32s-5.94-1.3-8.89-.83c3.02.26,6.02,1.35,8.23,3.42s3.54,5.16,3.12,8.16c-.44,3.18-2.66,5.78-4.84,8.14-3.74,4.03-8.35,8.17-13.84,7.94-1.27-.05-2.6-.39-3.5-1.29-1.31-1.31-1.35-3.38-1.49-5.23-.36-4.98-1.99-9.87-4.71-14.07-.23,2.9.33,5.81.62,8.71.29,2.9.27,5.95-1.03,8.56s-4.19,4.61-7.05,4.06c-1.66-.32-3.04-1.4-4.53-2.19-1.93-1.03-3.91-1.39-5.95-1.47-1.65-.06-3.05-1.13-3.61-2.68-.32-.88-.78-1.7-1.36-2.43-1.7-2.12-4.61-3.82-3.36-6.99.17-.44.42-.84.69-1.22,3.29-4.52,7.97-8,13.24-9.87-2.02-.94-4.44-.26-6.33.91s-3.47,2.8-5.36,3.97c-3.71,2.32-7.78,1.4-9.9-2.5-1.06-1.95-1.46-4.17-1.83-6.36-.9-5.4-1.62-11.2,1.83-15.93,1.54-2.11,3.95-3.49,6.57-3.48,5.37.02,7.04,5.37,10.77,8,.91.64,1.98,1.12,3.09,1.07,1.11-.05,2.55-.82,2.29-2.11s-2.33-2.39-3.23-3.15c-2.49-2.09-4.97-4.19-7.46-6.28Z"/>
        <path class="cls-2" d="M36.37,62.77c-.33.62-1.61,1.92-1.97.77-.1-1.23.82-2.4,1.51-3.36,1.68-2.46,3.92-4.58,5.18-7.25.29-.84.06-2.01-.79-2.41-.73-.38-1.64-.08-2.45-.16-.48-.04-.95-.29-1.11-.69-.4-1.36,1.59-.86,2.21-1.36.56-.47-.05-1.16-.55-1.43-3.17-1.77-6.05-2.61-9.67-2.73-1.08-.17,1.48-.68,1.73-.62,1.53-.06,3.26-.16,4.69.39,1.85.68,3.26,2.01,5.23,2.4.56.17,2.92.53,2.66-.34-.83-.67-1.92-1.26-2.43-2.27-.65-1.32,1.27-.56,1.75-.21.37.22.74.53,1.07.8.29.24.46.34.48.19-.9-3.1-2.16-6.23-3.17-9.33-.3-.81.03-.75.56-.25,1.75,1.56,2.89,3.8,3.21,6.09.09.47.2.99.52,1.35.8.88,1.67-.12,1.62-1.03.03-2.73-1.56-5.3-1.1-8.09.3-2.01,1.56-3.47,2.57-.79.71,2.67,0,5.5.01,8.24,0,1.45,2.09-.98,2.34-.67.11.14,0,.69-.22,1.39-.16.49-.12.65-.1,1.16.03.73.39,1.34,1.19,1.01,1.47-.61,2.93-1.33,4.4-1.87.51-.18,1.25-.19,1.55.3.33.85-1.37.62-1.88.86-.72.19-1.41.49-2.04.89-.44.2-3.2,2.58-1.65,2.55,4.02-.56,7.66-3.44,11.75-3.11,1.69.13,1.98,1.89.17,2.18-2.76.23-10.48.04-11.92,2.66-.65,1.42.8.61,1.62.85.44.06.65.55.58.63-.07.1-.77.22-1.3.3-.96.2-.99.09-1.92.32-.56.52.95,1.27,1.44,1.46,3.07.86,5.69,3.42,6.04,6.65.09.67-.34.77-.82.43-2.14-1.36-3.28-3.93-5.29-5.47-1.75-1.58-5.14-1.48-5.89,1.07-.25.83-.86,1.23-1.62.75-2.07-1.59-3.72-.37-4.71,1.67-1.08,1.96-2.26,4.02-3.41,5.99l-.07.1Z"/>
        <path class="cls-1" d="M44.04,47.44c4.16-4.72,8.15-9.71,11.79-14.85,3.62-5.16,7.05-10.54,9.35-16.42.24-.64,1.24-.33,1.03.35-3.08,9.19-8.43,17.39-13.91,25.29-1.86,2.63-3.75,5.2-5.77,7.75-.56.71-1.59.83-2.3.27-.74-.58-.83-1.69-.19-2.38h0Z"/>
        <path class="cls-1" d="M60.67,16.42c-.07-.35-.51-.54-.85-.44s-.58.42-.71.76c-.23.6-.15,1.31.22,1.85s.99.88,1.63.89c.26,0,.53-.05.69-.25.2-.25.13-.63.03-.94-.33-.97-.9-1.86-1.64-2.56"/>
        <path class="cls-1" d="M62.57,15.22c.67.63,1.42.17,1.31-.71-.07-.56-.55-1.06-1.02-1.33-1.76-1.02-1.06,1.3-.29,2.04Z"/>
        <path class="cls-1" d="M66.99,10.29c.33-.34.82-.56,1.28-.47.72.14,1.12.96,1.13,1.69.02,1.29-1.06,3.04-2.56,2.48s-.63-2.88.15-3.69Z"/>
        <path class="cls-1" d="M68.02,16.48c-.26.34-.38.87-.07,1.16.21.19.52.19.8.16.72-.08,2.07-.73,1.47-1.68-.5-.8-1.78-.19-2.21.36Z"/>
        <path class="cls-1" d="M67.44,21.7c.2.47.66.81,1.16.89.27.05.56.02.77-.16.57-.5.3-2.13-.39-2.43-1.03-.45-1.92.79-1.54,1.7Z"/>
      </g>
    </g>
  </g>
</svg>