<?xml version="1.0" encoding="UTF-8"?>
<svg id="Ebene_2" xmlns="http://www.w3.org/2000/svg" viewBox="0 0 69.76 116.03">
  <defs>
    <style>
      .cls-1 {
        fill: #ed5fc5;
      }

      .cls-2 {
        fill: #d9ed8e;
      }
    </style>
  </defs>
  <g id="Ebene_1-2" data-name="Ebene_1">
    <g>
      <g>
        <path class="cls-1" d="M15.55,55.63c-1.86-2.49-4.28-4.61-7-6.13l-.26-.15c-1.62-.9-4.32-2.39-6.31-5.49-1.95-3.04-2.5-6.91-1.48-10.35.97-3.26,3.27-5.93,6.32-7.3,2.07-.93,4.01-1.09,5.52-1.02.44-.21.92-.4,1.44-.57,3.21-1.03,6.59-.64,10.05,1.16,4.39,2.29,8.38,5.24,11.84,8.77l-6.7,6.58c.8.89,1.55,1.82,2.27,2.78l-15.7,11.73Z"/>
        <path class="cls-1" d="M22.39,52.45l-7.62-16.39.47-10.72c5.18.23,8.12,3.54,9.22,4.79.07.07.13.15.2.22,2.55,2.49,4.12,5.32,4.66,8.4,1,5.71-1.85,11.34-6.93,13.7ZM10.99,44.4c-.53-.52-.92-.96-1.21-1.28-.06-.07-.13-.15-.19-.22.21.22.52.49.92.76.25.49.48.74.48.74Z"/>
        <path class="cls-1" d="M47,116.03c-10.2,0-20.64-4.55-29.84-13.1-5.98-5.56-9.84-11.27-11.78-17.45-3.14-10-1.35-21.31,5.31-33.62,1.7-3.14,3.55-6.11,5.33-8.97,2.89-4.65,5.63-9.04,7.37-13.56l.16-.41c.64-1.69,1.61-4.24,3.66-6.6,3.93-4.51,10.06-6.08,15.27-3.91,4.43,1.84,7.5,6.13,8.01,11.17.31,3.08-.37,5.63-.81,7.32l-3.76,14.24-10.29-2.72c-.98,1.64-1.97,3.24-2.96,4.82-1.71,2.74-3.32,5.33-4.74,7.95-2.78,5.14-5.71,12.5-3.85,18.41.88,2.81,3.04,5.83,6.42,8.97,6.08,5.65,12.77,8.47,18.34,7.74.09-.01.17-.02.25-.04-.08-.39-.2-.89-.39-1.5-.17-.53-.34-1.05-.52-1.58-1.12-3.34-2.66-7.92-1.96-13.13.19-1.41.51-2.7.91-3.88l-11.43-3.87c1.7-5.04,4.58-9.69,8.33-13.46,3.36-3.39,7.06-5.15,11-5.24,7.21-.17,13.44,5.38,14.55,12.91.73,4.94-.84,9.18-2.28,12.33-.17.37-.34.74-.52,1.1-.42.9-1.06,2.25-1.13,2.73-.09.69.63,2.85,1.11,4.29.22.64.43,1.29.63,1.93,2.38,7.54,1.8,13.92-1.71,18.94-3.04,4.35-7.99,7.09-14.29,7.92-1.46.19-2.92.29-4.39.29Z"/>
        <path class="cls-1" d="M35.55,69.47l-18.29-7.03c2.23-5.8,5.12-11.35,8.58-16.51.94-1.4,2.9-4.31,6.31-6.24,5.35-3.02,12.11-2.41,16.82,1.53,4.72,3.93,6.53,10.47,4.52,16.28l-18.52-6.41c-.67,1.94-.13,3.88,1.44,5.19,1.58,1.31,3.58,1.5,5.37.49.57-.32.85-.63.86-.65-.05.06-.19.23-.53.75-2.65,3.94-4.85,8.18-6.56,12.61Z"/>
        <path class="cls-1" d="M44.81,72.09l-19.46-2.31c.85-7.19,4.83-12.78,7.73-16.86,1.55-2.18,3.89-5.47,7.7-7.71,4.9-2.88,10.64-2.89,14.99,0,2.3,1.52,6.16,5.19,6.15,12.69,0,4.94-1.32,9.81-3.81,14.08l-10.25-5.98c-1.48,2.14-2.84,4.36-3.04,6.11Z"/>
        <path class="cls-1" d="M34.23,46.57c-3.1,0-6.13-1.02-8.58-2.99l10.46-13,14.42-.07c.02,3.5-1.12,5.76-1.74,6.97-.07.14-.14.28-.22.45-2.21,4.82-6.71,6.66-8.87,7.55-1.78.73-3.64,1.09-5.48,1.09ZM30.77,29.75c.19-.41.37-.77.53-1.09l.12-.25c-.06.14-.13.3-.19.48-.16.25-.32.54-.46.85ZM32.23,27.37c.32-.13.73-.3.88-.38,0,0-.1.05-.26.16-.21.06-.41.13-.62.21Z"/>
        <path class="cls-1" d="M24.59,35.97c-4.41,0-7.88-2.25-9.9-3.56l-.42-.27c-2.27-1.46-4.62-3.81-6.44-6.45-2.79-4.05-3.92-8.25-3.26-12.14.88-5.22,4.73-9.12,10.3-10.45,2.01-.48,4.15-.52,6.22-.17.37-.32.77-.63,1.2-.92h0c1.07-.72,2.25-1.25,3.49-1.59,4.63-1.25,9.67.44,12.84,4.32,3.19,3.91,4.33,9,3.2,14.35-.81,3.83-2.81,7.64-5.49,10.45-.16.16-.32.35-.49.53-1.59,1.76-4.25,4.7-8.49,5.62-.96.21-1.88.3-2.76.3ZM23.05,16.55c.1.19.23.38.38.57.1.12.2.24.31.35.1-.37.16-.73.2-1.07-.24.02-.49.06-.75.12-.05.01-.09.02-.14.03Z"/>
      </g>
      <g>
        <path class="cls-1" d="M23.4,49.76c-2.69-3.6-6.14-6.63-10.06-8.82-1.15-.64-2.4-1.27-3.11-2.38s-.58-2.88.63-3.43c1.22-.55,2.7.44,3.96,0,.73-.26,1.24-.96,1.98-1.2.84-.27,1.73.12,2.52.53,3.46,1.81,6.64,4.16,9.38,6.95"/>
        <path class="cls-1" d="M18.26,43.57c1.11-.52,1.62-1.91,1.4-3.12s-.99-2.24-1.87-3.1c-.98-.95-1.62-2.15-2.98-2.21"/>
        <path class="cls-1" d="M36.44,48.64l3.76-14.24c.33-1.26.67-2.54.54-3.83s-.83-2.61-2.02-3.11c-1.42-.59-3.1.14-4.11,1.3s-1.51,2.66-2.06,4.09c-3.25,8.45-8.92,15.71-13.23,23.67s-7.29,17.38-4.58,26.02c1.62,5.16,5.14,9.53,9.1,13.21,7.12,6.62,16.65,11.54,26.29,10.28,2.88-.38,5.88-1.44,7.54-3.82,2.06-2.94,1.47-6.96.39-10.38-1.08-3.43-2.59-6.9-2.11-10.46.31-2.34,1.46-4.47,2.45-6.61s1.83-4.48,1.49-6.82-2.26-4.59-4.62-4.53c-1.67.04-3.1,1.16-4.28,2.35-2.7,2.72-4.77,6.07-6,9.7"/>
        <path class="cls-1" d="M44.23,54.29c.67-1.93.03-4.24-1.54-5.54s-3.95-1.52-5.73-.52c-1.28.72-2.17,1.95-2.99,3.17-3.06,4.55-5.6,9.44-7.57,14.56"/>
        <path class="cls-1" d="M35.07,70.93c.54-4.59,3.31-8.57,5.99-12.34,1.33-1.87,2.71-3.79,4.68-4.95,1.4-.82,3.26-1.18,4.61-.29,1.4.93,1.76,2.83,1.76,4.51,0,3.2-.87,6.39-2.48,9.15"/>
        <path class="cls-1" d="M31.8,35.95c1.14.91,2.79,1.04,4.14.49s3.12-1.27,3.73-2.59,1.07-1.82,1.06-3.28"/>
        <path class="cls-1" d="M27.75,10.14c.18-.12.37-.21.59-.27.98-.27,2.04.26,2.69,1.05,2.83,3.47.97,8.95-1.78,11.83-1.16,1.21-2.54,3.03-3.97,3.34-1.88.41-3.86-1.02-5.71-2.21-3.01-1.93-8.99-9.69-2.42-11.27,1.4-.34,3.27-.03,4.48.8.8.55,1.38,1.98,2.54,1.83,2.08-.26,1.85-3.95,3.59-5.11Z"/>
      </g>
      <g>
        <path class="cls-2" d="M22.35,50.54c-2.57-3.44-5.91-6.37-9.65-8.46l-.3-.16c-1.15-.63-2.44-1.35-3.27-2.65-.62-.97-.81-2.25-.48-3.35.27-.91.86-1.61,1.67-1.97,1-.45,2-.27,2.8-.12.5.09.98.18,1.26.08.17-.06.38-.22.61-.4.36-.28.81-.62,1.4-.81,1.45-.47,2.85.26,3.52.61,3.6,1.88,6.86,4.3,9.71,7.19l-1.86,1.83c-2.65-2.7-5.69-4.95-9.05-6.7-.33-.17-1.1-.57-1.51-.44-.16.05-.39.22-.62.4-.34.26-.77.59-1.32.78-.94.33-1.86.16-2.6.03-.51-.09-1-.18-1.26-.07-.11.05-.19.16-.24.34-.11.37-.04.86.18,1.19.47.74,1.38,1.24,2.34,1.77l.3.17c4.06,2.27,7.68,5.45,10.47,9.18l-2.09,1.56Z"/>
        <path class="cls-2" d="M18.81,44.75l-1.1-2.37c.49-.23.79-1,.67-1.71-.13-.76-.62-1.54-1.5-2.39-.26-.26-.51-.53-.74-.79-.65-.73-.95-1.03-1.39-1.05l.11-2.61c1.58.07,2.49,1.1,3.23,1.93.19.22.39.44.6.65,1.28,1.25,2.02,2.49,2.25,3.81.33,1.9-.57,3.8-2.14,4.53Z"/>
        <path class="cls-2" d="M47.14,107.53c-8.03,0-16.68-3.83-24.2-10.82-4.87-4.53-7.97-9.03-9.46-13.78-2.43-7.73-.85-16.82,4.68-27.03,1.58-2.92,3.36-5.77,5.07-8.53,2.98-4.78,6.05-9.72,8.09-14.99l.17-.45c.53-1.39,1.07-2.82,2.13-4.03,1.23-1.41,3.5-2.52,5.6-1.65,1.55.64,2.63,2.25,2.82,4.18.16,1.54-.23,3.01-.57,4.3l-3.76,14.24c-.18.7-.9,1.11-1.6.93-.7-.18-1.11-.9-.93-1.6l3.76-14.24c.3-1.13.61-2.3.5-3.37-.08-.79-.49-1.72-1.23-2.03-.85-.35-1.99.23-2.62.95-.75.86-1.19,2.02-1.65,3.24l-.17.46c-2.12,5.5-5.27,10.55-8.31,15.44-1.7,2.73-3.45,5.55-5,8.39-5.18,9.57-6.69,17.98-4.48,25,1.35,4.3,4.21,8.43,8.74,12.64,7.94,7.38,17.14,11,25.23,9.94,2.18-.29,5.11-1.09,6.64-3.27,1.43-2.05,1.51-5.16.22-9.24-.18-.58-.38-1.15-.57-1.73-1-2.97-2.03-6.04-1.59-9.3.29-2.17,1.21-4.11,2.09-5.98.16-.33.31-.66.47-1,.85-1.86,1.69-4.04,1.39-6.08-.24-1.66-1.6-3.42-3.24-3.42-.02,0-.04,0-.05,0-1,.02-2.08.65-3.38,1.96-2.56,2.58-4.53,5.76-5.69,9.2-.23.68-.97,1.05-1.66.82-.68-.23-1.05-.97-.82-1.66,1.29-3.82,3.47-7.34,6.31-10.2,1.14-1.15,2.92-2.68,5.18-2.73,3.16-.08,5.53,2.81,5.94,5.65.4,2.72-.58,5.34-1.6,7.55-.16.34-.32.68-.48,1.02-.84,1.77-1.63,3.45-1.86,5.22-.36,2.65.53,5.31,1.48,8.12.2.59.4,1.19.58,1.78,1.57,4.97,1.38,8.74-.57,11.52-1.64,2.35-4.56,3.86-8.44,4.37-1.04.14-2.09.2-3.15.2Z"/>
        <path class="cls-2" d="M26.41,67.26c-.16,0-.31-.03-.47-.09-.67-.26-1.01-1.02-.75-1.69,2-5.21,4.59-10.19,7.7-14.82.9-1.34,1.9-2.71,3.43-3.58,2.26-1.27,5.22-1,7.21.65,1.99,1.66,2.78,4.53,1.94,6.97-.24.68-.98,1.04-1.66.81-.68-.24-1.04-.98-.81-1.66.49-1.42.01-3.15-1.14-4.11-1.15-.96-2.94-1.12-4.25-.39-1.03.58-1.83,1.68-2.55,2.76-3,4.46-5.5,9.28-7.43,14.3-.2.52-.7.84-1.22.84Z"/>
        <path class="cls-2" d="M35.08,72.24c-.05,0-.1,0-.16,0-.72-.09-1.23-.74-1.14-1.45.6-5.03,3.71-9.42,6.22-12.94,1.33-1.87,2.84-3.99,5.09-5.31,1.63-.96,4.06-1.53,5.99-.25,1.54,1.02,2.35,2.95,2.35,5.6,0,3.44-.92,6.83-2.66,9.81-.36.62-1.16.83-1.79.47-.62-.36-.83-1.16-.47-1.79,1.5-2.57,2.3-5.51,2.3-8.49,0-1.2-.2-2.77-1.18-3.42-.93-.62-2.32-.21-3.23.32-1.77,1.04-3.04,2.84-4.28,4.58-2.45,3.45-5.24,7.36-5.75,11.74-.08.66-.64,1.15-1.3,1.15Z"/>
        <path class="cls-2" d="M34.25,38.07c-1.21,0-2.37-.38-3.27-1.1-.56-.45-.65-1.28-.2-1.84.45-.56,1.27-.65,1.84-.2.72.58,1.85.7,2.83.3,1.15-.47,2.65-1.09,3.04-1.93.14-.31.28-.57.4-.82.39-.77.55-1.09.55-1.92,0-.72.58-1.31,1.3-1.31h0c.72,0,1.3.58,1.31,1.3,0,1.45-.38,2.22-.83,3.11-.11.22-.23.46-.36.73-.82,1.78-2.87,2.62-4.37,3.24-.73.3-1.49.44-2.24.44Z"/>
        <path class="cls-2" d="M24.59,27.47c-1.9,0-3.68-1.16-5.28-2.19l-.46-.3c-2.4-1.54-6.54-6.33-5.92-10.02.22-1.27,1.07-2.93,3.9-3.61,1.81-.43,4.03-.03,5.52.99.41.28.73.65,1.01.98.19.22.51.59.64.63.35-.05.68-.94.97-1.73.42-1.14.9-2.42,2.03-3.18h0c.3-.2.63-.35.98-.45,1.41-.38,2.99.2,4.04,1.49,3.16,3.87,1.5,10.05-1.85,13.56-.21.22-.42.45-.64.7-1.14,1.25-2.42,2.68-4,3.02-.32.07-.64.1-.96.1ZM18.36,13.79c-.32,0-.63.03-.91.1-1.75.42-1.88,1.21-1.93,1.51-.36,2.12,2.66,6.05,4.75,7.39l.47.3c1.51.98,3.07,1.99,4.26,1.73.76-.16,1.83-1.35,2.62-2.22.24-.26.47-.51.69-.75,2.25-2.36,4.1-7.18,1.72-10.11-.38-.47-.94-.73-1.34-.62-.08.02-.14.05-.21.09h0c-.43.29-.74,1.12-1.04,1.92-.5,1.34-1.18,3.17-3.12,3.41-1.47.18-2.35-.84-2.93-1.52-.18-.21-.38-.44-.51-.53-.65-.44-1.62-.7-2.52-.7Z"/>
      </g>
    </g>
  </g>
</svg>