<?xml version="1.0" encoding="UTF-8"?>
<svg id="Ebene_2" xmlns="http://www.w3.org/2000/svg" viewBox="0 0 88 86.3">
  <defs>
    <style>
      .cls-1 {
        fill: #ed5fc5;
      }

      .cls-2 {
        fill: #d9ed8e;
      }
    </style>
  </defs>
  <g id="Ebene_1-2" data-name="Ebene_1">
    <g id="goal">
      <g>
        <g>
          <path class="cls-2" d="M43.12,86.3c-6.37,0-11.55-.92-16.29-2.88-5.05-2.1-9.68-5.22-13.74-9.29-.39-.39-.78-.77-1.18-1.16-3.09-3.03-6.93-6.8-9.15-12.15C.29,54.85,0,48.42,0,44.1c0-6.63.93-12.09,2.83-16.69,2.28-5.49,6.22-9.4,9.39-12.54l1.06-1.06c3.32-3.33,7.46-7.46,13.21-9.85C32.04,1.66,37.79.45,43.12.45c5.87,0,10.77,2.09,14.7,3.78.52.22,1.03.44,1.55.65,5.28,2.19,9.93,5.27,13.81,9.16,3.79,3.79,6.75,8.32,9.04,13.86l.32.77c1.73,4.14,3.87,9.28,3.87,15.44s-2.07,10.77-3.74,14.69c-.21.48-.41.97-.61,1.45l-.13.32c-1.88,4.53-4,9.66-8.35,14.01-3.59,3.59-8.21,6.52-14.12,8.98-5.9,2.45-11.83,2.76-16.34,2.76ZM43.12,20.12c-2.77,0-5.92.7-9.1,2.01-2.13.89-4.42,3.17-6.83,5.58l-1.13,1.12c-2.21,2.2-4.31,4.27-5.07,6.11-.9,2.16-1.33,5.16-1.33,9.16s.41,7.14,1.26,9.19c.68,1.65,2.75,3.68,4.75,5.64.44.43.88.86,1.31,1.3,2.26,2.26,4.67,3.91,7.37,5.02,2.3.96,5,1.38,8.75,1.38,4.04,0,6.68-.38,8.81-1.26,3.49-1.45,6.02-2.99,7.75-4.71,1.58-1.58,2.8-4.52,4.09-7.63l.13-.32c.22-.54.45-1.08.68-1.62,1.11-2.62,2.17-5.09,2.17-6.98,0-2.21-1.14-4.96-2.36-7.86l-.33-.8c-1.29-3.11-2.85-5.56-4.78-7.49-2.08-2.08-4.52-3.69-7.44-4.9-.58-.24-1.16-.49-1.74-.74-2.64-1.13-5.13-2.19-6.97-2.19Z"/>
          <path class="cls-2" d="M43.12,86.3c-6.37,0-11.55-.92-16.29-2.88-5.05-2.1-9.68-5.22-13.74-9.29-.39-.39-.78-.77-1.18-1.16-3.09-3.03-6.93-6.8-9.15-12.15C.29,54.85,0,48.42,0,44.1c0-6.63.93-12.09,2.83-16.69,2.28-5.49,6.22-9.4,9.39-12.54l1.06-1.06c3.32-3.33,7.46-7.46,13.21-9.85C32.04,1.66,37.79.45,43.12.45c5.87,0,10.77,2.09,14.7,3.78.52.22,1.03.44,1.55.65,5.28,2.19,9.93,5.27,13.81,9.16,3.79,3.79,6.75,8.32,9.04,13.86l.32.77c1.73,4.14,3.87,9.28,3.87,15.44s-2.07,10.77-3.74,14.69c-.21.48-.41.97-.61,1.45l-.13.32c-1.88,4.53-4,9.66-8.35,14.01-3.59,3.59-8.21,6.52-14.12,8.98-5.9,2.45-11.83,2.76-16.34,2.76ZM43.12,20.12c-2.77,0-5.92.7-9.1,2.01-2.13.89-4.42,3.17-6.83,5.58l-1.13,1.12c-2.21,2.2-4.31,4.27-5.07,6.11-.9,2.16-1.33,5.16-1.33,9.16s.41,7.14,1.26,9.19c.68,1.65,2.75,3.68,4.75,5.64.44.43.88.86,1.31,1.3,2.26,2.26,4.67,3.91,7.37,5.02,2.3.96,5,1.38,8.75,1.38,4.04,0,6.68-.38,8.81-1.26,3.49-1.45,6.02-2.99,7.75-4.71,1.58-1.58,2.8-4.52,4.09-7.63l.13-.32c.22-.54.45-1.08.68-1.62,1.11-2.62,2.17-5.09,2.17-6.98,0-2.21-1.14-4.96-2.36-7.86l-.33-.8c-1.29-3.11-2.85-5.56-4.78-7.49-2.08-2.08-4.52-3.69-7.44-4.9-.58-.24-1.16-.49-1.74-.74-2.64-1.13-5.13-2.19-6.97-2.19Z"/>
        </g>
        <g>
          <path class="cls-2" d="M43.12,75.35c-6.28,0-11.42-2.48-15.61-4.91-3.84-2.22-9.09-5.26-12.34-10.88-3.13-5.4-3.12-11.14-3.12-15.75v-.4c0-5.23.26-10.77,3.31-16.04,3.15-5.43,7.93-8.51,12.17-10.96,4.69-2.71,9.79-4.03,15.6-4.03s10.91,1.32,15.6,4.03c4.25,2.46,9.04,5.53,12.18,10.95,2.06,3.56,4.52,9.24,4.52,16.05s-2.63,11.86-4.92,15.82c-3.11,5.38-6.93,9.4-11.34,11.95-4.71,2.72-10.26,4.17-16.04,4.17ZM43.12,32.05c-2.32,0-4.09.43-5.75,1.39-1.47.85-4.22,2.44-5,3.78-.66,1.14-.66,4.43-.66,6.19v.41c0,2.02,0,5.06.48,5.89.62,1.07,3.25,2.59,5.17,3.7,2.35,1.36,4.23,2.26,5.76,2.26,2.3,0,4.5-.54,6.19-1.52,1.37-.8,2.81-2.45,4.16-4.78.97-1.68,2.27-4.14,2.27-5.97s-.67-4.11-1.87-6.2c-.77-1.32-3.52-2.92-5-3.78-1.66-.96-3.43-1.39-5.75-1.39Z"/>
          <path class="cls-2" d="M43.12,75.35c-6.28,0-11.42-2.48-15.61-4.91-3.84-2.22-9.09-5.26-12.34-10.88-3.13-5.4-3.12-11.14-3.12-15.75v-.4c0-5.23.26-10.77,3.31-16.04,3.15-5.43,7.93-8.51,12.17-10.96,4.69-2.71,9.79-4.03,15.6-4.03s10.91,1.32,15.6,4.03c4.25,2.46,9.04,5.53,12.18,10.95,2.06,3.56,4.52,9.24,4.52,16.05s-2.63,11.86-4.92,15.82c-3.11,5.38-6.93,9.4-11.34,11.95-4.71,2.72-10.26,4.17-16.04,4.17ZM43.12,32.05c-2.32,0-4.09.43-5.75,1.39-1.47.85-4.22,2.44-5,3.78-.66,1.14-.66,4.43-.66,6.19v.41c0,2.02,0,5.06.48,5.89.62,1.07,3.25,2.59,5.17,3.7,2.35,1.36,4.23,2.26,5.76,2.26,2.3,0,4.5-.54,6.19-1.52,1.37-.8,2.81-2.45,4.16-4.78.97-1.68,2.27-4.14,2.27-5.97s-.67-4.11-1.87-6.2c-.77-1.32-3.52-2.92-5-3.78-1.66-.96-3.43-1.39-5.75-1.39Z"/>
        </g>
        <g>
          <path class="cls-2" d="M43.12,64.4c-2.39,0-5.23-.16-8.13-1.37-3.22-1.34-5.39-3.51-6.69-4.8-1.67-1.67-3.54-3.77-4.76-6.7-1.25-3.01-1.41-5.92-1.41-8.11,0-2.72.55-5.42,1.63-8.02,1.08-2.6,2.6-4.9,4.52-6.81,1.55-1.55,3.72-3.5,6.72-4.74,2.69-1.11,5.42-1.68,8.12-1.68,3.58,0,6.48,1.2,8.04,1.85,2.58,1.07,4.88,2.6,6.82,4.54s3.5,4.26,4.56,6.82c.9,2.16,1.81,4.81,1.81,8.05,0,3.43-1.01,6.25-1.76,8.07-1.13,2.73-2.64,5.06-4.5,6.91-1.92,1.92-4.29,3.49-6.88,4.57-3.11,1.29-6.11,1.44-8.1,1.44ZM42.62,44.72c.14,0,.3,0,.5,0,.39,0,.62-.02.75-.03.13-.07.22-.13.27-.17.05-.07.15-.25.28-.57.08-.2.14-.35.18-.47-.05-.14-.13-.33-.23-.59-.07-.17-.16-.3-.3-.44-.07-.07-.19-.17-.45-.28-.14-.06-.47-.2-.74-.3-.02,0-.05.02-.08.03-.11.1-.3.27-.61.58-.03.03-.13.13-.26.44-.13.31-.13.42-.13.49,0,.21,0,.37,0,.51.1.11.23.24.39.4.1.1.25.25.41.4Z"/>
          <path class="cls-2" d="M43.12,64.4c-2.39,0-5.23-.16-8.13-1.37-3.22-1.34-5.39-3.51-6.69-4.8-1.67-1.67-3.54-3.77-4.76-6.7-1.25-3.01-1.41-5.92-1.41-8.11,0-2.72.55-5.42,1.63-8.02,1.08-2.6,2.6-4.9,4.52-6.81,1.55-1.55,3.72-3.5,6.72-4.74,2.69-1.11,5.42-1.68,8.12-1.68,3.58,0,6.48,1.2,8.04,1.85,2.58,1.07,4.88,2.6,6.82,4.54s3.5,4.26,4.56,6.82c.9,2.16,1.81,4.81,1.81,8.05,0,3.43-1.01,6.25-1.76,8.07-1.13,2.73-2.64,5.06-4.5,6.91-1.92,1.92-4.29,3.49-6.88,4.57-3.11,1.29-6.11,1.44-8.1,1.44ZM42.62,44.72c.14,0,.3,0,.5,0,.39,0,.62-.02.75-.03.13-.07.22-.13.27-.17.05-.07.15-.25.28-.57.08-.2.14-.35.18-.47-.05-.14-.13-.33-.23-.59-.07-.17-.16-.3-.3-.44-.07-.07-.19-.17-.45-.28-.14-.06-.47-.2-.74-.3-.02,0-.05.02-.08.03-.11.1-.3.27-.61.58-.03.03-.13.13-.26.44-.13.31-.13.42-.13.49,0,.21,0,.37,0,.51.1.11.23.24.39.4.1.1.25.25.41.4Z"/>
        </g>
        <g>
          <path class="cls-2" d="M43.56,54.56c-3.48,0-6.82-1.47-9.17-4.03-2.26-2.47-3.42-5.65-3.27-8.97.14-3.33,1.58-6.4,4.03-8.65l11.33-10.38c.65-2.9,1.96-5.08,2.61-6.16,2.02-3.35,4.22-6.65,6.55-9.81,2.45-3.34,6.09-5.25,9.97-5.25,1.7,0,3.35.36,4.89,1.07,2.96,1.36,5.13,3.81,6.18,6.8,4.71,1.13,8.47,4.7,9.63,9.43,1.33,5.41-.92,10.82-6.02,14.47-2.55,1.82-5.25,3.48-8.04,4.93-2.28,1.18-5.28,2.51-8.86,2.82l-11.41,10.45c-2.31,2.11-5.29,3.27-8.42,3.27ZM48.44,47.41h0s0,0,0,0Z"/>
          <path class="cls-2" d="M43.56,55.87c-3.85,0-7.55-1.63-10.15-4.46-2.49-2.72-3.77-6.23-3.61-9.91.16-3.68,1.74-7.07,4.46-9.55l11.03-10.1c.72-2.91,2.03-5.08,2.68-6.14,2.04-3.38,4.27-6.72,6.61-9.91,2.7-3.68,6.72-5.78,11.03-5.78h.01c1.88,0,3.71.4,5.42,1.19,3.08,1.41,5.38,3.88,6.63,6.9,4.86,1.42,8.69,5.22,9.92,10.2,1.46,5.96-.98,11.89-6.53,15.86-2.6,1.86-5.36,3.55-8.21,5.02-2.3,1.19-5.29,2.53-8.9,2.92l-11.08,10.16c-2.55,2.33-5.85,3.62-9.3,3.62Z"/>
        </g>
      </g>
      <g>
        <path class="cls-1" d="M76.59,44.1c0,4.48-1.98,8.47-3.6,12.37s-3.31,8.09-6.35,11.14-6.89,5.17-10.94,6.85-8.09,2.01-12.57,2.01-8.62-.52-12.52-2.13-7.51-4.11-10.56-7.15-6.52-6.08-8.2-10.12-2.01-8.47-2.01-12.95.47-9.03,2.09-12.93c1.68-4.04,5.05-7.14,8.09-10.18,3.05-3.05,6.2-6.27,10.25-7.94,3.9-1.62,8.38-2.76,12.86-2.76s8.58,2.06,12.48,3.68c4.04,1.68,7.58,3.98,10.63,7.03,3.05,3.05,5.24,6.63,6.91,10.67,1.62,3.9,3.44,7.95,3.44,12.44Z"/>
        <path class="cls-2" d="M65.58,43.41c0,3.99-1.73,7.67-3.59,10.89-1.92,3.33-4.42,6.44-7.75,8.37s-7.13,2.84-11.12,2.84-7.47-1.72-10.69-3.59c-3.33-1.92-6.83-3.96-8.75-7.29s-1.8-7.23-1.8-11.23.12-7.89,1.98-11.12c1.92-3.33,5.26-5.45,8.58-7.37s6.68-2.71,10.67-2.71,7.45.84,10.67,2.71,6.67,4.04,8.59,7.36,3.2,7.13,3.2,11.12Z"/>
        <path class="cls-1" d="M54.53,43.41c0,1.53-.46,2.98-1.01,4.3s-1.33,2.68-2.37,3.72-2.31,1.86-3.69,2.43-2.8.69-4.33.69-3.03-.06-4.36-.62-2.46-1.63-3.5-2.67-2.05-2.14-2.63-3.52-.65-2.82-.65-4.34.33-2.92.88-4.25c.57-1.38,1.35-2.59,2.39-3.63s2.16-2.04,3.53-2.61,2.82-.93,4.35-.93,2.94.55,4.27,1.1,2.6,1.37,3.63,2.41,1.86,2.25,2.43,3.63,1.06,2.75,1.06,4.28Z"/>
        <g>
          <path class="cls-1" d="M43.56,44.72c-.73,0-1.44-.31-1.93-.85-.98-1.07-.91-2.73.16-3.71l14.29-13.1c-.03-.1-.05-.2-.07-.3-.38-1.99.57-3.79,1.49-5.32,1.87-3.1,3.9-6.15,6.05-9.06.75-1.03,1.53-1.24,2.05-1.24.27,0,.54.06.79.17.5.23,1.32.87,1.15,2.55-.06.63-.19,1.33-.33,2.07-.27,1.42-.57,3.04-.32,4.01.15.58.44.81,1.01.81.47,0,1.04-.17,1.55-.48.19-.11.37-.23.56-.35.75-.48,1.61-1.01,2.64-1.23.25-.05.51-.08.77-.08,1.62,0,2.99.95,3.32,2.32.36,1.45-.38,2.84-2.19,4.13-2.17,1.55-4.48,2.96-6.85,4.19-1.79.93-3.73,1.78-5.85,1.78h0c-.1,0-.21,0-.31,0-.58-.02-1.16-.13-1.73-.31l-14.5,13.29c-.49.44-1.11.69-1.77.69Z"/>
          <path class="cls-2" d="M65.61,12.46c.08,0,.16.02.24.05.42.19.44.77.39,1.23-.18,1.84-1.08,4.71-.61,6.54.34,1.3,1.26,1.79,2.28,1.79.74,0,1.54-.26,2.21-.66.9-.54,1.77-1.21,2.8-1.42.16-.03.34-.05.51-.05.9,0,1.84.46,2.05,1.32.27,1.11-.75,2.09-1.68,2.75-2.13,1.52-4.36,2.89-6.69,4.09-1.64.85-3.41,1.64-5.25,1.64-.09,0-.17,0-.26,0-.7-.03-1.42-.21-2.06-.52l-15.11,13.85c-.25.23-.57.34-.89.34-.36,0-.71-.14-.97-.43-.49-.53-.45-1.36.08-1.85l14.95-13.7c-.15-.28-.26-.58-.32-.91-.29-1.54.52-3.05,1.33-4.4,1.86-3.08,3.85-6.07,5.98-8.96.25-.34.62-.71,1-.71M65.61,9.84h0c-.82,0-2.03.31-3.11,1.78-2.17,2.95-4.23,6.03-6.11,9.16-.72,1.19-2.01,3.34-1.72,5.82l-13.76,12.61c-1.6,1.46-1.71,3.96-.24,5.56.75.81,1.8,1.28,2.9,1.28.99,0,1.93-.37,2.66-1.03l13.97-12.81c.44.09.88.15,1.32.17.12,0,.24,0,.36,0,2.4,0,4.52-.93,6.45-1.93,2.43-1.26,4.78-2.7,7.01-4.29,2.85-2.04,3.04-4.12,2.7-5.51-.48-1.95-2.37-3.31-4.6-3.31-.35,0-.7.03-1.03.1-1.27.26-2.28.89-3.08,1.4-.18.11-.35.22-.53.33-.23.14-.47.22-.66.26-.09-.77.18-2.24.37-3.24.14-.77.28-1.49.35-2.18.25-2.59-1.25-3.57-1.91-3.87-.42-.19-.87-.29-1.33-.29h0Z"/>
        </g>
      </g>
    </g>
  </g>
</svg>