<?xml version="1.0" encoding="UTF-8"?>
<svg id="Ebene_2" xmlns="http://www.w3.org/2000/svg" viewBox="0 0 111.42 102.53">
  <defs>
    <style>
      .cls-1 {
        fill: #ed5fc5;
      }

      .cls-2 {
        fill: #d9ed8e;
      }
    </style>
  </defs>
  <g id="Ebene_1-2" data-name="Ebene_1">
    <g>
      <g>
        <path class="cls-2" d="M17.63,72.04c-3.27,0-6.42-1-8.95-2.98-3.09-2.41-5.03-5.98-5.79-10.6-1.39-8.53.88-17.94,6.4-26.51,2.54-3.94,5.27-6.97,8.36-9.26,4.34-3.22,9.45-4.94,14.43-4.82,5.32.12,9.79,2.57,12.25,6.72,1.38,2.32,2.1,5.06,2.14,8.14v.07c.03,2.33.08,6.09-1.6,9.75.72,1.84,1.09,3.86,1.08,5.95-.01,2.98-.65,6.2-1.95,9.84-.69,1.93-1.89,4.78-4.31,7.28-3.31,3.41-7.94,5.05-12.38,4.37-.44-.07-.86-.15-1.24-.25-.14.08-.29.16-.45.25-2.56,1.36-5.32,2.03-7.99,2.03ZM28.05,32.97s0,0,0,0h0Z"/>
        <path class="cls-2" d="M46.34,62.85c-6.56,0-12.88-3.45-15.99-9.08-1.87-3.39-2.58-7.39-2.06-11.56.43-3.41,1.62-6.36,2.48-8.29,1.26-2.81,3.11-6.42,6.29-9.39.45-.42.93-.82,1.43-1.19h.01c2.62-1.96,5.85-3.2,9.87-3.82,2.14-.33,5-.57,8.14.49,6.26,2.12,10.7,8.44,11.32,16.1.37,4.66-.57,9.53-2.74,14.08-2.95,6.19-8.4,10.74-14.58,12.17-1.38.32-2.78.47-4.17.47Z"/>
        <path class="cls-2" d="M47.69,54.69c-.79,0-1.57-.08-2.35-.24-4.72-.99-8.19-4.8-8.83-9.7-.32-2.45.08-5.06,1.13-7.36h0c2.62-5.74,8.72-8.42,14.5-6.37,3.36,1.19,5.99,3.82,7.19,7.2,1.23,3.44.83,7.36-1.06,10.49-2.26,3.72-6.38,5.98-10.58,5.98ZM41.24,39.02c-.91,1.79-1.05,3.86-.37,5.77.77,2.16,2.53,3.91,4.71,4.68,3.83,1.36,8.26-.42,9.88-3.96h0s0,0,0,0c.47-1.04.63-2.13.47-3.33-.44-3.36-3.14-6.22-6.57-6.94-3.22-.68-6.23.58-7.87,3.29-.09.16-.18.31-.26.47l5.31,2.43-5.31-2.43Z"/>
        <path class="cls-2" d="M68.25,62.09c-1.17,0-2.24-.08-3.16-.2-4.96-.62-9.09-3.2-11.63-7.25-1.67-2.67-2.62-5.88-2.9-9.82-.27-3.78-.36-8.26.96-12.8h0c2.61-9,9.91-14.99,18.22-14.99.1,0,.2,0,.3,0,8.46.15,15.41,5.07,18.14,12.84l.14.38c.82,2.32,1.95,5.5,1.67,9.46-.18,2.65-.75,5.26-1.69,7.77-2.33,6.24-6.6,10.9-12.02,13.11-2.81,1.15-5.64,1.5-8.03,1.5ZM70.23,37.92c-.16.76-.23,1.63-.24,2.56.22-.63.37-1.27.43-1.91-.04-.16-.11-.39-.19-.65Z"/>
        <path class="cls-2" d="M70.88,55.02c-1.54,0-3.1-.32-4.56-.98-4.06-1.85-6.61-5.85-6.8-10.72h0c-.26-6.43,4.37-12.03,10.53-12.76,5.9-.7,11.08,3.25,12.29,9.4.83,4.2-.27,7.31-1.34,9.19-2.13,3.72-6.09,5.88-10.11,5.88ZM63.03,43.17c.01.21.04.4.07.57.69,3.47,4.57,6.83,9.23,6.27,4-.47,6.91-3.69,6.76-7.49h0c-.08-2.07-1.58-4.94-4.67-6.34-3.89-1.77-8.39-.39-10.45,3.22-.78,1.37-1,2.75-.94,3.76l6.27-.25-6.27.25Z"/>
        <path class="cls-2" d="M88.73,53.79c-.76,0-1.52-.05-2.27-.14-4.18-.54-7.85-2.51-10.33-5.55-3.28-4.02-3.35-8.93-3.37-10.55-.05-3.15-.12-8.42,2.93-13.28.94-1.5,1.98-2.63,2.74-3.45.13-.14.3-.32.42-.46.1-.57.14-1.72.17-2.51.06-1.7.14-3.81.63-6.06,1.76-8.06,6.34-10.7,9.88-11.5,6.14-1.38,12.35,2.32,14.45,8.6h0c.46,1.39,1.06,2.85,1.68,4.39,1.45,3.57,3.09,7.61,3.77,12.39.96,6.77-.19,13.04-3.33,18.12-3.81,6.17-10.58,9.99-17.38,9.99ZM85.39,15.09s0,0,0,0h0Z"/>
        <path class="cls-2" d="M91.82,44.54c-2.23,0-4.46-.68-6.36-2.01-1.78-1.24-3.21-3.02-4.12-5.13-1.77-4.09-1.37-8.62,1.08-12.11h0c2.83-4.03,7.37-5.79,11.84-4.61,4.67,1.24,8.01,5.52,8.51,10.9.48,5.17-1.98,9.85-6.28,11.9-1.48.7-3.07,1.05-4.67,1.05ZM91.82,24.95c-1.28,0-2.57.28-3.77.85-3.46,1.66-5.03,5.08-4.79,7.61.22,2.36,2.34,5.26,5.98,6.22,4.09,1.08,7.65-.83,9.23-3.08l-8.02-5.63,8.02,5.63c1.47-2.1,1.81-4.76.87-6.93-.3-.7-1.05-2.04-2.65-3.16-1.44-1-3.14-1.52-4.87-1.52Z"/>
        <path class="cls-2" d="M21.88,102.53c-2.27,0-4.6-.48-6.88-1.45-5.35-2.26-9.68-6.68-12.2-12.44-2.62-5.98-4.25-15.04-.96-22.54h0c2.02-4.6,6.01-7.85,10.67-8.69,2.68-.48,5.37-.17,7.83.86,3.25-3.03,7.49-4.72,11.75-4.66,7.81.13,11.92,6.51,11.95,12.74.05,9.77-2.94,19.52-8.42,27.46-.14.21-.28.43-.42.65-1.24,1.92-3.31,5.13-7.46,6.9-1.83.78-3.81,1.17-5.85,1.17ZM30.11,70.29s0,0,0,0c0,0,0,0,0,0Z"/>
        <path class="cls-2" d="M40.14,75.75c-2.24,0-4.44-.5-6.45-1.5-4.87-2.43-7.96-7.55-7.88-13.06.08-4.92,2.62-9.51,6.8-12.27h0c4.98-3.29,11.72-3.54,16.77-.62,4.58,2.65,7.11,7.43,6.78,12.8-.34,5.55-3.85,10.56-9.16,13.07-2.22,1.05-4.56,1.58-6.86,1.58ZM37.9,56.94c-.86.77-1.24,1.97-1.3,2.97-.13,2.08,1.09,4.28,2.97,5.37,2.05,1.19,3.35.33,3.84,0h0c1.25-.82,1.98-2.2,2-3.78.03-2.05-1.08-3.84-2.98-4.79-1.3-.65-2.76-.74-3.8-.25-.27.13-.51.29-.72.48l.11.16-.11-.16Z"/>
        <path class="cls-2" d="M40.44,97.19c-1.31,0-2.62-.2-3.89-.61-2.91-.94-8.02-3.76-9.67-12.14-.47-2.39-.73-4.84-.78-7.28-.05-2.62.12-6.54,2.19-10.36h0c2.68-4.95,8.28-8.15,13.94-7.99,5.19.15,9.6,3.04,11.8,7.72,1.78,3.79,1.53,7.41,1.37,9.57l-.3,4.35c-.17,2.36-.42,5.94-2.48,9.52-2.62,4.54-7.36,7.23-12.18,7.23ZM39.16,77.74c.78.39,1.64.63,2.5.65.56.02,1.08-.05,1.55-.21-.21-.09-.43-.18-.66-.25-1.05-.34-2.26-.42-3.4-.19Z"/>
        <path class="cls-2" d="M54.83,94.06c-2.06,0-4.04-.43-5.91-1.3-3.46-1.6-6.1-4.52-7.86-8.67-3.59-8.5-2.61-17.56-1.89-24.17.23-2.07.57-5.21,2.18-8.35h0c3.31-6.44,10.26-9.55,16.53-7.38,4.8,1.65,8.54,6.11,9.58,11.29,3.43,1.54,6.29,4.23,8.11,7.68,2.01,3.82,2.58,8.33,1.61,12.68-1.5,6.71-6.48,12.43-14.01,16.1-2.91,1.42-5.7,2.13-8.34,2.13Z"/>
        <path class="cls-2" d="M57.95,85.45c-.86,0-1.73-.1-2.59-.31-3.14-.76-5.82-2.83-7.35-5.68-1.7-3.17-1.49-6.21-1.4-7.5.08-1.14.29-4.17,2.5-7h0c3.08-3.94,8.1-5.39,12.5-3.59,2.4.98,5.53,3.27,6.8,8.59.21.89.68,3.19.44,5.35-.39,3.46-2.08,6.39-4.77,8.25-1.82,1.25-3.97,1.91-6.15,1.91ZM57.96,65.85c-1.76,0-3.5.54-4.99,1.56-2.36,1.63-3.4,4.02-3.58,5.71-.08.73-.05,1.24-.03,1.34.2,1.1,2.01,4.43,6.13,5.46,3.95.98,7.41-.75,9.09-2.91l-7.72-6.03,7.72,6.03c1.22-1.56,1.52-3.09,1.59-3.63,0-.42-.08-1.7-.87-3.17-1.12-2.1-3.01-3.55-5.32-4.11-.67-.16-1.34-.24-2.02-.24Z"/>
        <path class="cls-2" d="M79.37,85.4c-1.89,0-3.98-.14-6.2-.67-4.05-.96-7.49-3-9.96-5.9-2.73-3.21-4.22-7.36-4.42-12.34-.24-5.85,1.31-11.53,4.36-15.97,3.79-5.53,9.86-9.07,16.22-9.47,5.18-.32,9.85,1.57,12.8,5.19,2.88,3.54,3.17,7.58,3.26,8.9h0c.26,3.7-.23,7.39-1.42,10.9.92,1.77,1.42,3.79,1.4,5.88-.03,3.82-1.7,7.37-4.6,9.72-2.01,1.63-4.89,3.52-9.43,3.71-.64.03-1.31.05-2,.05Z"/>
        <path class="cls-2" d="M63.78,81.14l2.95-16.16c-.02-.21-.04-.41-.05-.62-.08-1.12-.33-4.54,1.66-7.98h0c1.84-3.18,5.05-5.32,8.59-5.74,3.43-.4,6.75.81,9.13,3.32,4.12,4.35,3.47,10.34,1.65,14.16-1.56,3.29-4.42,5.9-7.86,7.16l-16.08,5.87ZM73.14,56.86c-1.39.51-2.5,1.52-3.13,2.85-1.2,2.53.01,5.8,1.83,7.72,1.89,1.99,4.65,2.99,7.38,2.66,2.04-.24,3.84-1.17,5.13-2.6l-7.85-1.43-3.36-9.21Z"/>
        <path class="cls-2" d="M91.12,83.56c-1.31,0-2.61-.19-3.84-.58-3.75-1.18-6.65-4.06-7.95-7.91-1.46-4.3-.34-8.12.2-9.95h0c-.28-.5-.53-1.01-.74-1.54-1.78-4.39-.64-8.55-.27-9.91,1.06-3.88,2.83-7.6,5.56-11.72,1.29-1.94,3.82-4.65,7.03-6.43h0c3.52-1.95,7.33-2.38,10.71-1.2,3.24,1.13,5.8,3.59,7.2,6.93,1.37,3.26,1.47,7.11.48,10.65,1.39,2.44,2.07,5.41,1.87,8.67-.47,7.69-4.6,15.1-11.04,19.83-2.82,2.07-6.08,3.16-9.22,3.16ZM91.61,45.23c-.08.08-.17.16-.25.24.08-.08.17-.16.25-.24Z"/>
      </g>
      <g>
        <path class="cls-1" d="M34.98,39.9c1.78-1.78,1.72-4.71,1.69-7.04-.01-1.13-.19-2.29-.76-3.25-.85-1.44-2.48-1.89-4.06-1.93-3-.07-5.95,1.1-8.36,2.89s-4.33,4.17-5.96,6.69c-3.74,5.8-6.08,12.81-4.97,19.63.27,1.67.82,3.41,2.15,4.45,1.75,1.37,4.34,1.06,6.31.02,1.52-.81,2.99-2.04,4.7-1.89,1.05.09,2,.7,3.04.86,1.43.21,2.89-.47,3.89-1.51s1.63-2.39,2.11-3.75c.73-2.06,1.37-4.4,1.38-6.6,0-1.96-.92-4.67-3.33-4.57-1.4.06-2.48,1.26-3.15,2.5s-1.14,2.62-2.14,3.6-1.65,1.16-2.57.1c-.42-.49-.2-1.78-.11-2.38.16-1.11.75-2.06,1.42-2.94.69-.9,1.46-1.75,2.4-2.38,1.97-1.33,4.54-.72,6.31-2.49Z"/>
        <path class="cls-1" d="M44.35,31.19c-.21.16-.41.32-.6.5-1.8,1.68-3.04,4.01-4.03,6.23-.79,1.76-1.46,3.59-1.7,5.5s-.01,3.92.92,5.61c1.75,3.16,5.84,4.61,9.36,3.8s6.39-3.57,7.95-6.84c1.33-2.79,2.07-5.99,1.82-9.09-.23-2.89-1.68-6.59-4.69-7.61-1.12-.38-2.35-.27-3.52-.09-1.91.29-3.93.82-5.5,1.99Z"/>
        <path class="cls-2" d="M46.56,41.45c-.29.64-.41,1.41-.33,2.02.28,2.13,2.8,1.58,3.66.16.71-1.17.36-2.89-1.02-3.38-1.1-.39-1.89.28-2.31,1.2Z"/>
        <path class="cls-1" d="M60.93,34.75c-.88,3.03-.81,6.24-.59,9.38.28,3.99,1.53,7.47,5.97,8.03,2.05.26,4.35.14,6.28-.65,3.2-1.3,5.36-4.31,6.54-7.46.6-1.61.98-3.3,1.1-5.02.14-2.07-.6-3.98-1.28-5.92-1.4-3.97-4.9-6.21-9.07-6.29-4.51-.08-7.77,3.89-8.94,7.92Z"/>
        <path class="cls-2" d="M69.31,42.93c.03.86.29,1.83,1.07,2.19.76.34,1.7-.12,2.11-.84s.4-1.61.24-2.43c-.58-2.96-3.51-1.24-3.41,1.07Z"/>
        <path class="cls-1" d="M94.69,11.99c-.4-1.2-1.62-2.45-3-2.14-1.56.35-2.16,2.7-2.45,4.02-.83,3.82.2,8.2-2,11.65-.92,1.44-2.33,2.51-3.24,3.96-1.45,2.3-1.47,5.29-1.43,7.92.02,1.51.19,3.3,1.17,4.5s2.49,1.83,3.98,2.02c3.97.51,7.96-1.87,10.06-5.28,2.1-3.41,2.53-7.64,1.97-11.6-.77-5.4-3.37-10.03-5.05-15.05Z"/>
        <path class="cls-2" d="M90.44,30.93c-.52.74-.46,1.76-.1,2.59.17.38.4.75.74.99s.81.33,1.18.15c1.78-.85.18-6.57-1.82-3.73Z"/>
        <path class="cls-1" d="M10.81,70.04c-1.88,4.29-.86,10.51.96,14.67,1.4,3.19,3.85,5.99,7.05,7.35,1.6.68,3.46.97,5.06.29,1.72-.73,2.61-2.56,3.67-4.1,4.41-6.39,6.72-14.1,6.69-21.86,0-1.59-.51-2.96-2.32-2.99-2.27-.04-4.43,1.26-5.82,3.05s-2.1,4.03-2.46,6.28c-.15.96-.57,2.21-1.54,2.13-.76-.06-1.12-.93-1.35-1.66-.52-1.69-1.2-3.39-2.43-4.65-2.57-2.64-6.07-1.79-7.51,1.48Z"/>
        <path class="cls-1" d="M38.01,57.1c-1.41.93-2.37,2.55-2.4,4.24s.93,3.39,2.45,4.14c1.47.73,3.27.54,4.76-.16,1.89-.9,3.44-2.72,3.57-4.81.28-4.54-5.32-5.42-8.38-3.41Z"/>
        <path class="cls-1" d="M36.91,71.46c-.9,1.66-1.05,3.62-1.01,5.51.04,1.87.24,3.75.6,5.58.38,1.93,1.19,4.1,3.06,4.7,1.74.56,3.66-.6,4.58-2.19s1.06-3.48,1.19-5.31c.1-1.45.2-2.9.31-4.35.11-1.6.21-3.27-.47-4.72-1.68-3.57-6.71-2.08-8.25.77Z"/>
        <path class="cls-1" d="M50.06,56.05c-.78,1.51-.97,3.24-1.15,4.92-.7,6.48-1.36,13.29,1.18,19.29.62,1.46,1.51,2.93,2.95,3.59,1.85.85,4.02.15,5.85-.74,3.98-1.94,7.77-5.1,8.73-9.42.45-2,.24-4.17-.72-5.98s-2.67-3.24-4.67-3.72c-1.15-.27-2.46-.28-3.32-1.09-1.31-1.22-.77-3.35-.99-5.13-.22-1.73-1.5-3.73-3.23-4.33-1.88-.65-3.8,1-4.62,2.6Z"/>
        <path class="cls-2" d="M56.85,70.98c-.36.46-.41,1.07-.45,1.65-.05.75-.09,1.54.26,2.19s1.26,1.08,1.87.65c.4-.27.54-.79.6-1.27.09-.83-.56-5.42-2.28-3.23Z"/>
        <path class="cls-1" d="M85.65,55.85c-.09-1.21-.32-2.48-1.09-3.42-1.06-1.3-2.9-1.7-4.58-1.6-3.51.22-6.76,2.33-8.75,5.23-1.99,2.9-2.79,6.52-2.65,10.03.09,2.28.61,4.65,2.09,6.38,1.2,1.41,2.95,2.29,4.76,2.72s3.69.44,5.54.36c1.55-.06,2.45-.55,3.66-1.52s1.33-3.14.14-4.14c-1.15-.96-2.44.52-3.31-.32-.66-.64,1.57-3.04,2.01-3.85,1.63-3,2.42-6.47,2.18-9.88Z"/>
        <path class="cls-2" d="M76.82,61.28c-.41.7-.43,1.56-.37,2.36s.19,1.63.04,2.42c1.03-.38,1.9-1.17,2.36-2.16.36-.76.77-2.49.09-3.21s-1.69-.18-2.13.58Z"/>
        <path class="cls-1" d="M95.87,44.09c-1.53.85-2.99,2.35-3.61,3.28-1.85,2.78-3.38,5.63-4.27,8.88-.33,1.2-.57,2.51-.1,3.66s1.9,1.98,2.99,1.4c-.65,2.19-1.29,4.39-1.94,6.58-.38,1.29-.77,2.71-.32,4.04.95,2.8,4.13,1.89,5.93.57,3.91-2.87,6.76-7.64,7.06-12.53.11-1.77-.39-4.09-2.4-4.57-.7-.17-1.58-.1-1.96-.71-.49-.79.4-1.68,1.08-2.31,1.74-1.63,2.6-5.11,1.67-7.34-.84-2-2.52-1.83-4.13-.94Z"/>
      </g>
    </g>
  </g>
</svg>