<?xml version="1.0" encoding="UTF-8"?>
<svg id="Ebene_2" xmlns="http://www.w3.org/2000/svg" viewBox="0 0 91.08 73.01">
  <defs>
    <style>
      .cls-1 {
        fill: #ed5fc5;
      }

      .cls-2 {
        fill: #d9ed8e;
      }
    </style>
  </defs>
  <g id="Ebene_1-2" data-name="Ebene_1">
    <g>
      <g>
        <path class="cls-1" d="M52.85,73.01c-5.4,0-11.03-2.19-15.8-6.28-3.56-3.05-6.14-6.53-8.64-9.91-.68-.92-1.36-1.84-2.06-2.74-.64-.82-1.3-1.64-1.96-2.46-3.87-4.81-8.25-10.26-9.66-17.53-2.16-11.13,4.11-22.81,14.57-27.18,7.48-3.12,16.46-1.82,24.1,3.34.75-.61,1.6-1.19,2.59-1.66,4.83-2.32,10.31-3.04,15.41-2.02h0c8.86,1.77,16.21,8.53,18.71,17.21,2.32,8.05.41,17.37-5.23,25.56-3.93,5.71-8.9,10.06-13.7,14.26-.57.5-1.14,1-1.71,1.5l-.17.15c-2.87,2.53-6.45,5.69-11.36,7.06-1.64.46-3.35.68-5.08.68ZM37.89,20.45c-.93,0-1.85.16-2.72.52-3.74,1.56-6.25,6.24-5.48,10.22.69,3.57,3.55,7.12,6.57,10.88.72.89,1.44,1.79,2.13,2.68.77.99,1.51,2,2.26,3,2.09,2.82,4.06,5.48,6.3,7.4,2.32,1.99,5.08,2.99,6.86,2.49,1.55-.44,3.5-2.15,5.39-3.82l.17-.15c.58-.51,1.17-1.03,1.76-1.54,4.29-3.75,8.34-7.29,11.19-11.43,3-4.36,4.17-9.11,3.14-12.7-.91-3.17-3.81-5.84-7.05-6.48h0c-1.76-.35-3.75-.1-5.53.67-.21.21-.54.58-.78.84-1.46,1.63-4.18,4.66-8.61,4.7-3.99.04-6.26-2.66-7.12-3.67-.04-.05-.08-.1-.13-.15-2.18-1.79-5.35-3.46-8.37-3.46Z"/>
        <g>
          <path class="cls-1" d="M23.39,44.21c-3.98,0-7.61-2.12-9.47-5.53-.91-1.67-1.39-3.04-1.7-4.03-1.03-.17-2.45-.47-4.21-1.15-3.81-1.46-6.45-5.05-6.72-9.14-.28-4.16,1.91-8.13,5.57-10.13,1.69-.92,2.97-1.4,3.85-1.71.16-1.03.46-2.54,1.19-4.46,1.58-4.13,5.53-6.8,10.04-6.8,3.97,0,7.6,2.13,9.46,5.55l.52.95.27,1.06c.19.73.34,1.36.47,1.91,1.12.14,2.7.42,4.68,1.19,3.84,1.47,6.5,5.13,6.77,9.32.28,4.22-1.89,8.21-5.52,10.19-1.63.88-2.97,1.37-3.96,1.68-.16,1.07-.46,2.52-1.14,4.3-1.58,4.14-5.55,6.81-10.11,6.81ZM22.09,22.75c.11.09.21.18.32.28.09.08.17.15.26.23.09-.1.17-.21.26-.31.06-.07.12-.13.18-.2-.08-.07-.17-.15-.26-.22-.11-.09-.21-.19-.32-.28-.06.07-.11.13-.17.2-.09.11-.18.21-.27.31ZM10.57,12.76h0Z"/>
          <path class="cls-1" d="M23.39,45.48c-4.45,0-8.5-2.37-10.58-6.19-.75-1.37-1.23-2.57-1.56-3.52-.99-.2-2.22-.51-3.69-1.08C3.29,33.05.33,29.03.03,24.45c-.31-4.65,2.14-9.1,6.23-11.33,1.35-.74,2.48-1.21,3.33-1.54.19-1.02.52-2.36,1.14-3.97C12.5,2.99,16.9,0,21.95,0c4.44,0,8.49,2.38,10.57,6.21l.59,1.09.31,1.19c.11.41.2.78.28,1.12,1.08.18,2.48.51,4.1,1.13,4.36,1.67,7.27,5.66,7.59,10.42.31,4.71-2.11,9.18-6.18,11.39-1.35.73-2.51,1.21-3.45,1.53-.19,1.03-.51,2.31-1.08,3.79-1.77,4.63-6.21,7.62-11.29,7.62Z"/>
        </g>
        <g>
          <path class="cls-1" d="M72.28,67.83c-3.78,0-7.22-2.17-8.77-5.53-.17-.36-.3-.7-.42-1.02-.32-.12-.65-.26-1.01-.42-3.38-1.56-5.48-4.85-5.48-8.58,0-3.73,2.19-7.15,5.57-8.71.3-.14.58-.26.84-.36.14-.38.3-.81.51-1.26,1.54-3.35,4.96-5.51,8.71-5.51,3.76,0,7.2,2.17,8.75,5.54l.31.66.07.28c.34.12.71.27,1.09.45,3.35,1.54,5.51,4.97,5.51,8.72s-2.17,7.2-5.54,8.76c-.33.15-.64.28-.94.39-.12.34-.27.71-.45,1.09-1.55,3.35-4.98,5.52-8.75,5.52Z"/>
          <path class="cls-1" d="M72.35,70.4c-4.82,0-9.2-2.76-11.17-7.02-.04-.09-.08-.18-.12-.26,0,0,0,0-.01,0-4.3-1.98-6.97-6.15-6.97-10.86s2.54-8.71,6.66-10.78c.09-.22.19-.45.29-.68,1.97-4.27,6.15-6.92,10.91-6.92s9.18,2.78,11.17,7.09l.03.07c.1.04.21.09.31.14,4.32,1.99,7.01,6.2,7.01,10.98s-2.62,8.86-6.84,10.88c-.06.13-.11.26-.18.39-1.99,4.3-6.24,6.98-11.1,6.98Z"/>
        </g>
      </g>
      <g>
        <path class="cls-2" d="M69.91,14.05c6.01,1.2,11.18,5.95,12.88,11.85,1.87,6.48-.36,13.58-4.19,19.13-3.83,5.56-9.12,9.9-14.18,14.37-2.58,2.27-5.24,4.67-8.55,5.59-4.83,1.35-10.06-.78-13.87-4.04-3.81-3.26-6.56-7.56-9.63-11.53-4.05-5.22-8.9-10.29-10.16-16.78-1.46-7.51,2.96-15.75,10.03-18.7,6.58-2.75,13.92-.09,19.11,4.29.84.71,1.44,1.89,2.1,1.89,1.96-.02,3.45-3.5,5.85-4.65,3.27-1.57,7.05-2.13,10.62-1.41Z"/>
        <g>
          <path class="cls-1" d="M23.39,36.6c-1.19,0-2.25-.6-2.78-1.56-.77-1.41-1.06-2.43-1.29-3.25-.32-1.14-.5-1.77-1.94-3.03-1.45-1.27-2.09-1.36-3.26-1.53-.84-.12-1.89-.27-3.39-.85-1.06-.41-1.77-1.38-1.85-2.53-.08-1.21.55-2.36,1.61-2.93,1.28-.7,2.2-1.03,2.94-1.29,1.21-.43,1.81-.65,3.18-2.21,1.27-1.45,1.37-2.1,1.54-3.27.12-.83.28-1.87.85-3.36.44-1.16,1.59-1.9,2.93-1.9,1.18,0,2.24.6,2.77,1.57l.07.14.04.15c.18.68.31,1.25.43,1.75.5,2.15.59,2.54,2.61,4.31,1.4,1.22,2.05,1.29,3.22,1.42.88.1,1.97.21,3.53.81,1.09.42,1.82,1.46,1.9,2.71.08,1.28-.51,2.42-1.56,2.99-1.41.77-2.43,1.06-3.26,1.29-1.15.32-1.78.5-3.05,1.95-1.24,1.41-1.31,2.06-1.45,3.23-.1.87-.23,1.94-.82,3.48-.45,1.17-1.62,1.92-2.99,1.92Z"/>
          <path class="cls-2" d="M21.95,10.16c.66,0,1.32.3,1.65.91.97,3.71.6,4.21,3.43,6.69,2.83,2.48,3.62,1.12,7.14,2.46,1.37.52,1.47,2.7.19,3.4-3.31,1.8-4.17.68-6.65,3.51-2.48,2.83-1.16,3.58-2.51,7.09-.28.73-1.05,1.11-1.81,1.11-.67,0-1.33-.29-1.66-.89-1.8-3.31-.67-4.15-3.5-6.63-2.83-2.48-3.52-1.25-7.03-2.6-1.37-.52-1.37-2.46-.09-3.16,3.31-1.8,3.99-.95,6.47-3.78,2.48-2.83,1.28-3.5,2.62-7.02.28-.72,1.01-1.09,1.74-1.09M21.95,7.62h0c-1.87,0-3.48,1.07-4.11,2.72-.62,1.62-.79,2.78-.92,3.63-.16,1.08-.22,1.45-1.24,2.62-1.15,1.31-1.56,1.46-2.65,1.85-.74.26-1.76.63-3.12,1.37-1.49.81-2.38,2.43-2.27,4.13.11,1.65,1.13,3.04,2.66,3.63,1.64.63,2.81.79,3.66.92,1.08.15,1.44.21,2.61,1.22,1.16,1.02,1.26,1.37,1.55,2.42.23.83.55,1.97,1.39,3.51.74,1.37,2.24,2.22,3.89,2.22,1.9,0,3.54-1.07,4.18-2.74.65-1.69.79-2.9.9-3.79.13-1.07.17-1.42,1.15-2.54,1.02-1.16,1.37-1.26,2.43-1.56.84-.23,1.98-.56,3.52-1.39,1.46-.8,2.33-2.44,2.22-4.19-.12-1.75-1.16-3.21-2.71-3.81-1.71-.66-2.95-.79-3.85-.89-1.07-.12-1.43-.15-2.52-1.11-1.71-1.5-1.74-1.62-2.21-3.64-.12-.51-.25-1.08-.44-1.78l-.08-.3-.15-.27c-.75-1.38-2.24-2.23-3.88-2.23h0Z"/>
        </g>
        <g>
          <path class="cls-1" d="M75.59,48.78c1.39,1.39,1.87.66,3.66,1.49,1.46.68,1.44,2.96-.03,3.64-1.79.82-2.21.19-3.6,1.58s-.69,1.84-1.52,3.63c-.68,1.46-3.01,1.45-3.69-.01-.82-1.79-.19-2.19-1.58-3.58s-1.79-.76-3.58-1.58c-1.46-.68-1.38-2.79.09-3.46,1.79-.82,2.09-.39,3.48-1.78s.77-1.78,1.6-3.57c.68-1.46,2.95-1.44,3.63.02.48,1.95.13,2.23,1.53,3.62Z"/>
          <path class="cls-2" d="M71.94,44.03c.78,0,1.59.41,1.95,1.19.48,1.95.21,2.28,1.6,3.67,1.39,1.39,1.92.68,3.71,1.51,1.46.68,1.48,2.8.02,3.48-1.79.82-2.02.39-3.41,1.79-1.39,1.39-.76,1.72-1.58,3.51-.33.72-1.1,1.07-1.87,1.07s-1.61-.38-1.95-1.12c-.82-1.79-.03-2.33-1.42-3.72-1.39-1.39-1.89-.69-3.68-1.51-1.46-.68-1.39-2.7.07-3.38,1.79-.82,2.11-.39,3.5-1.78,1.39-1.39.56-1.89,1.38-3.68.32-.69.99-1.01,1.69-1.01M71.94,41.49h0c-1.75,0-3.28.95-3.99,2.49-.52,1.12-.61,1.96-.67,2.51,0,.08-.02.17-.03.24-.03.04-.08.1-.18.2-.45.45-.47.45-.98.6-.42.13-1,.3-1.79.66-1.61.74-2.61,2.29-2.61,4.05,0,1.71.97,3.22,2.54,3.95,1.03.48,1.81.6,2.33.69.12.02.29.05.33.06,0,0,.09.06.28.25.11.11.17.19.2.22.01.07.03.19.04.29.07.55.17,1.38.68,2.48.73,1.58,2.4,2.6,4.25,2.6s3.45-.98,4.18-2.55c.44-.96.59-1.65.69-2.12.02-.11.05-.25.07-.3h0s.07-.11.32-.36c.47-.47.49-.48.97-.63.4-.12.95-.3,1.71-.65,1.58-.73,2.56-2.28,2.56-4.03,0-1.77-.99-3.32-2.58-4.06-1.04-.48-1.83-.61-2.35-.69-.12-.02-.3-.05-.35-.06,0,0-.09-.05-.28-.24q-.52-.52-.66-1.24c-.06-.33-.14-.73-.27-1.24l-.06-.24-.1-.22c-.75-1.62-2.42-2.66-4.25-2.66h0Z"/>
        </g>
      </g>
    </g>
  </g>
</svg>