<?xml version="1.0" encoding="UTF-8"?>
<svg id="Ebene_2" xmlns="http://www.w3.org/2000/svg" viewBox="0 0 107.82 71.96">
  <defs>
    <style>
      .cls-1 {
        fill: #ed5fc5;
      }

      .cls-2 {
        fill: #d9ed8e;
      }
    </style>
  </defs>
  <g id="Ebene_1-2" data-name="Ebene_1">
    <g>
      <g>
        <path class="cls-2" d="M53.08,57.7c-4.46,0-7.61-2.45-8.88-3.44-2.1-1.63-5.26-4.09-7.17-8.21-1.72-3.72-1.82-7.84-.27-11.31,2.36-5.28,8.14-8.34,14.05-7.45.19.03.38.06.56.1,2.8-1.39,5.94-1.74,8.88-.94,5.41,1.47,9.23,6.57,9.28,12.4.04,3.84-1.47,6.83-2.61,8.75-1.11,1.88-2.41,3.65-3.86,5.27-.89,1-3.61,4.03-8.19,4.7-.62.09-1.22.13-1.8.13ZM49.95,38.8c0,.07,0,.14,0,.22.02,2.32,1.38,4.44,3.47,5.63.5-.55.92-1.19,1.25-1.91.65-1.45.78-3.08.37-4.39-.8-.22-1.83-.35-2.99-.18-.84.12-1.54.37-2.09.63Z"/>
        <g>
          <path class="cls-2" d="M18.32,71.96c-1.76,0-3.48-.26-5.15-.77-4.8-1.49-8.83-5.14-11.07-10.02C.56,57.84-.11,54.12.02,49.79c.24-7.84,2.95-14.73,5.34-20.8,1.21-3.06,2.71-6.88,5.59-10.33,1.96-2.36,4.18-4.07,5.96-5.44l6.65-5.13c1.77-1.36,4.73-3.65,8.85-4.4,3.95-.73,7.87.25,10.86,2.42,1.29.3,2.59.75,3.89,1.35,7.78,3.57,13.07,11.19,13.46,19.41.31,6.52-3.22,12.09-8.8,13.85-3.89,1.23-7.91.44-11.17-1.96-.04.15-.06.29-.06.4.09.23.5.79,1.27,1.3,1.64,1.09,4.18,1.71,6.21,2.13l.68.14c2.22.45,4.98,1.01,7.83,2.45,4.97,2.51,8.38,7.01,9.12,12.04.79,5.31-1.53,10.42-5.92,13-2.95,1.73-7.82,2.99-14.29-.84-2.48-1.47-4.54-2.58-6.51-3.19-1.51-.47-2.91-.58-3.85-.31-.84.24-2.09.96-3.42,1.72-.79.46-1.7.97-2.65,1.47-3.72,1.93-7.31,2.9-10.73,2.9ZM21.26,42.44c-.91,2.74-1.57,5.43-1.65,7.95-.02.61,0,1.09.04,1.47.12-.06.24-.12.38-.19.59-.31,1.24-.68,1.92-1.07.61-.35,1.26-.72,1.96-1.1-1.33-2.19-2.24-4.58-2.66-7.05Z"/>
          <path class="cls-2" d="M18.32,71.96c-1.76,0-3.48-.26-5.15-.77-4.8-1.49-8.83-5.14-11.07-10.02C.56,57.84-.11,54.12.02,49.79c.24-7.84,2.95-14.73,5.34-20.8,1.21-3.06,2.71-6.88,5.59-10.33,1.96-2.36,4.18-4.07,5.96-5.44l6.65-5.13c1.77-1.36,4.73-3.65,8.85-4.4,3.95-.73,7.87.25,10.86,2.42,1.29.3,2.59.75,3.89,1.35,7.78,3.57,13.07,11.19,13.46,19.41.31,6.52-3.22,12.09-8.8,13.85-3.89,1.23-7.91.44-11.17-1.96-.04.15-.06.29-.06.4.09.23.5.79,1.27,1.3,1.64,1.09,4.18,1.71,6.21,2.13l.68.14c2.22.45,4.98,1.01,7.83,2.45,4.97,2.51,8.38,7.01,9.12,12.04.79,5.31-1.53,10.42-5.92,13-2.95,1.73-7.82,2.99-14.29-.84-2.48-1.47-4.54-2.58-6.51-3.19-1.51-.47-2.91-.58-3.85-.31-.84.24-2.09.96-3.42,1.72-.79.46-1.7.97-2.65,1.47-3.72,1.93-7.31,2.9-10.73,2.9ZM21.26,42.44c-.91,2.74-1.57,5.43-1.65,7.95-.02.61,0,1.09.04,1.47.12-.06.24-.12.38-.19.59-.31,1.24-.68,1.92-1.07.61-.35,1.26-.72,1.96-1.1-1.33-2.19-2.24-4.58-2.66-7.05Z"/>
        </g>
        <path class="cls-2" d="M37.81,32.65c-.59-2.94-.81-5.95-.63-8.94.05-.88.19-3.24,1.49-5.68,2.15-4.02,6.38-6.38,10.81-6.01l-1.54,18.59-10.13,2.04ZM54.39,29.3c.62-.59,1.15-1.28,1.57-2.05.67-1.25.77-2.28.79-2.47-.08,1.38.01,2.7.27,3.99l-2.63.53Z"/>
        <path class="cls-2" d="M51.57,61.37l-12.59-6.18c2.23-4.55,6.95-7.62,12.01-7.83,5.06-.21,10.02,2.47,12.62,6.81l-12.04,7.2Z"/>
        <g>
          <path class="cls-2" d="M56.98,71.64c-1.32,0-2.51-.22-3.53-.53-4.87-1.48-8.32-5.9-8.79-11.25-.45-5.06,1.82-10.23,6.06-13.84,2.43-2.06,4.98-3.26,7.04-4.21l.63-.29c1.87-.88,4.2-2.08,5.54-3.53.63-.68.89-1.33.93-1.56-.03-.11-.08-.24-.16-.38-2.61,3.11-6.33,4.81-10.41,4.52-5.83-.42-10.57-5-11.79-11.41-1.53-8.08,1.83-16.72,8.56-22.02,1.13-.88,2.28-1.63,3.47-2.22C56.91,2.1,60.5.24,64.51.02c4.18-.23,7.6,1.3,9.63,2.22l7.66,3.43c2.06.92,4.61,2.07,7.07,3.9,3.61,2.69,5.96,6.04,7.85,8.74,3.75,5.35,7.99,11.41,10.05,18.98,1.14,4.17,1.35,7.95.64,11.55-1.04,5.27-4.11,9.76-8.43,12.33-4.4,2.62-9.77,3.17-15.94,1.64-1.04-.26-2.04-.55-2.92-.81-1.46-.43-2.85-.83-3.72-.87-.97-.04-2.31.4-3.67,1.2-1.78,1.05-3.52,2.61-5.59,4.62-3.72,3.61-7.26,4.69-10.17,4.69ZM83.47,42.58c.77.2,1.49.42,2.17.61.76.22,1.48.43,2.12.59.15.04.28.07.41.09-.05-.38-.14-.85-.3-1.44-.66-2.43-1.94-4.89-3.46-7.34.17,2.5-.16,5.03-.94,7.48Z"/>
          <path class="cls-2" d="M56.98,71.64c-1.32,0-2.51-.22-3.53-.53-4.87-1.48-8.32-5.9-8.79-11.25-.45-5.06,1.82-10.23,6.06-13.84,2.43-2.06,4.98-3.26,7.04-4.21l.63-.29c1.87-.88,4.2-2.08,5.54-3.53.63-.68.89-1.33.93-1.56-.03-.11-.08-.24-.16-.38-2.61,3.11-6.33,4.81-10.41,4.52-5.83-.42-10.57-5-11.79-11.41-1.53-8.08,1.83-16.72,8.56-22.02,1.13-.88,2.28-1.63,3.47-2.22C56.91,2.1,60.5.24,64.51.02c4.18-.23,7.6,1.3,9.63,2.22l7.66,3.43c2.06.92,4.61,2.07,7.07,3.9,3.61,2.69,5.96,6.04,7.85,8.74,3.75,5.35,7.99,11.41,10.05,18.98,1.14,4.17,1.35,7.95.64,11.55-1.04,5.27-4.11,9.76-8.43,12.33-4.4,2.62-9.77,3.17-15.94,1.64-1.04-.26-2.04-.55-2.92-.81-1.46-.43-2.85-.83-3.72-.87-.97-.04-2.31.4-3.67,1.2-1.78,1.05-3.52,2.61-5.59,4.62-3.72,3.61-7.26,4.69-10.17,4.69ZM83.47,42.58c.77.2,1.49.42,2.17.61.76.22,1.48.43,2.12.59.15.04.28.07.41.09-.05-.38-.14-.85-.3-1.44-.66-2.43-1.94-4.89-3.46-7.34.17,2.5-.16,5.03-.94,7.48Z"/>
        </g>
        <path class="cls-2" d="M46.44,30.17c-.05-1.32-.27-2.63-.65-3.88.04.12.38,1.1,1.32,2.15.59.66,1.27,1.21,2.01,1.63l-2.68.1ZM55.7,29.83l-5.84-17.72c4.21-1.39,8.89-.09,11.91,3.31,1.85,2.08,2.53,4.34,2.78,5.19.87,2.87,1.36,5.84,1.47,8.84l-10.32.38Z"/>
        <path class="cls-2" d="M59.35,60.59l-13.39-4.19c1.51-4.84,5.71-8.6,10.68-9.57,4.97-.98,10.27.91,13.51,4.81l-10.8,8.95Z"/>
      </g>
      <g>
        <path class="cls-2" d="M57.7,35.9c1.26.34,2.03,1.72,2.04,3.03s-.57,2.55-1.24,3.67c-.78,1.32-1.7,2.57-2.73,3.72-.63.71-1.38,1.41-2.32,1.55-1.19.18-2.29-.61-3.25-1.35-1.67-1.3-3.4-2.67-4.29-4.59-.46-1-.66-2.19-.21-3.19.59-1.32,2.21-1.98,3.65-1.76,1.33.2,3.06,2.21,4.24,1.47.64-.41.95-1.5,1.64-1.99s1.6-.79,2.45-.55Z"/>
        <g>
          <path class="cls-2" d="M38.59,15.44c-.57-1.68-2.66-2.44-4.41-2.12s-3.23,1.44-4.64,2.53c-2.22,1.71-4.43,3.42-6.65,5.13-1.57,1.21-3.15,2.43-4.42,3.96-1.85,2.22-2.94,4.96-4,7.65-2.22,5.65-4.48,11.44-4.66,17.51-.07,2.38.19,4.82,1.19,6.99s2.79,4.04,5.07,4.75c2.81.87,5.86-.11,8.47-1.46s5.06-3.1,7.88-3.91c3.07-.88,6.38-.57,9.43.37s5.87,2.49,8.62,4.12c1.33.79,3,1.61,4.33.82,1.02-.6,1.37-1.94,1.19-3.11-.31-2.09-1.97-3.78-3.86-4.73s-4.01-1.31-6.08-1.74c-3.37-.7-6.75-1.66-9.62-3.56s-5.19-4.87-5.59-8.29c-.49-4.13,1.79-8.02,3.99-11.55.76-1.21,1.54-2.45,2.67-3.33s2.69-1.34,4.02-.8c1.64.67,2.37,2.53,3.21,4.1.84,1.56,2.44,3.16,4.13,2.62,1.54-.49,2.05-2.43,1.97-4.04-.23-4.71-3.48-9.01-7.76-10.98-1.32-.61-2.76-1.02-4.21-.9-2.36.18-4.37,1.7-6.23,3.15-2.74,2.14-5.49,4.29-8.23,6.43"/>
          <path class="cls-2" d="M38.59,15.44c-.57-1.68-2.66-2.44-4.41-2.12s-3.23,1.44-4.64,2.53c-2.22,1.71-4.43,3.42-6.65,5.13-1.57,1.21-3.15,2.43-4.42,3.96-1.85,2.22-2.94,4.96-4,7.65-2.22,5.65-4.48,11.44-4.66,17.51-.07,2.38.19,4.82,1.19,6.99s2.79,4.04,5.07,4.75c2.81.87,5.86-.11,8.47-1.46s5.06-3.1,7.88-3.91c3.07-.88,6.38-.57,9.43.37s5.87,2.49,8.62,4.12c1.33.79,3,1.61,4.33.82,1.02-.6,1.37-1.94,1.19-3.11-.31-2.09-1.97-3.78-3.86-4.73s-4.01-1.31-6.08-1.74c-3.37-.7-6.75-1.66-9.62-3.56s-5.19-4.87-5.59-8.29c-.49-4.13,1.79-8.02,3.99-11.55.76-1.21,1.54-2.45,2.67-3.33s2.69-1.34,4.02-.8c1.64.67,2.37,2.53,3.21,4.1.84,1.56,2.44,3.16,4.13,2.62,1.54-.49,2.05-2.43,1.97-4.04-.23-4.71-3.48-9.01-7.76-10.98-1.32-.61-2.76-1.02-4.21-.9-2.36.18-4.37,1.7-6.23,3.15-2.74,2.14-5.49,4.29-8.23,6.43"/>
        </g>
        <path class="cls-2" d="M48.67,21.78c-.56-.05-1.09.35-1.35.85s-.32,1.08-.36,1.64c-.12,2.15.03,4.32.46,6.44"/>
        <path class="cls-2" d="M47.77,59.51c.67-1.36,2.11-2.3,3.62-2.36s3.03.76,3.8,2.05"/>
        <g>
          <path class="cls-2" d="M61.25,12.9c.16-1.77,2.01-3,3.79-3.09s3.48.65,5.1,1.37c2.55,1.14,5.11,2.29,7.66,3.43,1.81.81,3.63,1.63,5.22,2.81,2.32,1.73,4.02,4.14,5.68,6.51,3.48,4.97,7.03,10.07,8.62,15.93.63,2.3.94,4.74.48,7.08s-1.77,4.58-3.82,5.8c-2.53,1.5-5.72,1.26-8.57.55-2.85-.71-5.64-1.83-8.58-1.95-3.19-.14-6.34.94-9.09,2.56-2.74,1.63-5.13,3.79-7.42,6.02-1.11,1.08-2.54,2.26-4.02,1.81-1.13-.34-1.78-1.57-1.89-2.74-.19-2.11,1.03-4.13,2.64-5.5,1.61-1.37,3.59-2.21,5.5-3.11,3.11-1.47,6.18-3.19,8.52-5.7,2.35-2.52,3.9-5.95,3.5-9.36-.49-4.13-3.61-7.39-6.58-10.3-1.02-1-2.07-2.03-3.37-2.62s-2.93-.68-4.09.16c-1.44,1.03-1.71,3.02-2.16,4.73s-1.64,3.64-3.41,3.52c-1.61-.11-2.56-1.88-2.86-3.47-.88-4.63,1.28-9.57,4.99-12.49,1.14-.9,2.45-1.63,3.88-1.86,2.33-.37,4.64.63,6.79,1.61,3.17,1.44,6.34,2.89,9.51,4.33"/>
          <path class="cls-2" d="M61.25,12.9c.16-1.77,2.01-3,3.79-3.09s3.48.65,5.1,1.37c2.55,1.14,5.11,2.29,7.66,3.43,1.81.81,3.63,1.63,5.22,2.81,2.32,1.73,4.02,4.14,5.68,6.51,3.48,4.97,7.03,10.07,8.62,15.93.63,2.3.94,4.74.48,7.08s-1.77,4.58-3.82,5.8c-2.53,1.5-5.72,1.26-8.57.55-2.85-.71-5.64-1.83-8.58-1.95-3.19-.14-6.34.94-9.09,2.56-2.74,1.63-5.13,3.79-7.42,6.02-1.11,1.08-2.54,2.26-4.02,1.81-1.13-.34-1.78-1.57-1.89-2.74-.19-2.11,1.03-4.13,2.64-5.5,1.61-1.37,3.59-2.21,5.5-3.11,3.11-1.47,6.18-3.19,8.52-5.7,2.35-2.52,3.9-5.95,3.5-9.36-.49-4.13-3.61-7.39-6.58-10.3-1.02-1-2.07-2.03-3.37-2.62s-2.93-.68-4.09.16c-1.44,1.03-1.71,3.02-2.16,4.73s-1.64,3.64-3.41,3.52c-1.61-.11-2.56-1.88-2.86-3.47-.88-4.63,1.28-9.57,4.99-12.49,1.14-.9,2.45-1.63,3.88-1.86,2.33-.37,4.64.63,6.79,1.61,3.17,1.44,6.34,2.89,9.51,4.33"/>
        </g>
        <path class="cls-2" d="M52.93,21.42c.54-.18,1.14.09,1.52.51s.57.97.73,1.51c.62,2.06.98,4.21,1.06,6.37"/>
        <path class="cls-2" d="M62.61,57.89c-.97-1.16-2.59-1.74-4.07-1.45s-2.77,1.44-3.22,2.89"/>
      </g>
      <g>
        <path class="cls-1" d="M53.12,49.2c-1.58,0-2.89-1.02-3.71-1.65-1.62-1.26-3.63-2.82-4.67-5.07-.7-1.51-.78-3.03-.22-4.28.8-1.78,2.91-2.84,5.03-2.52.78.12,1.5.55,2.18.98.36.22.94.57,1.21.63.09-.11.24-.34.35-.51.28-.45.64-1,1.2-1.4,1.13-.79,2.39-1.06,3.54-.75h0c1.95.53,2.99,2.55,3.01,4.28.02,1.7-.75,3.22-1.42,4.35-.83,1.4-1.79,2.72-2.88,3.92-.77.86-1.75,1.77-3.1,1.97-.18.03-.36.04-.53.04ZM48.8,38.24c-.83,0-1.62.41-1.89,1.03-.24.54-.17,1.31.21,2.11.77,1.67,2.44,2.97,3.9,4.11.74.58,1.59,1.18,2.26,1.09.53-.08,1.07-.61,1.53-1.13.97-1.08,1.83-2.26,2.57-3.51.5-.84,1.07-1.94,1.06-2.99,0-.73-.41-1.6-1.08-1.78h0c-.55-.15-1.14.2-1.36.36-.14.1-.33.41-.49.66-.3.47-.64,1-1.2,1.36-1.4.89-2.86,0-3.93-.66-.42-.26-.95-.58-1.21-.62-.12-.02-.24-.03-.36-.03Z"/>
        <path class="cls-1" d="M18.34,63.47c-.92,0-1.81-.13-2.65-.39-2.5-.77-4.64-2.76-5.87-5.45-.97-2.11-1.4-4.59-1.31-7.58.19-6.36,2.62-12.52,4.75-17.94,1.04-2.63,2.21-5.61,4.21-8.01,1.37-1.64,3.02-2.92,4.63-4.15l6.65-5.13c1.38-1.06,3.1-2.39,5.2-2.78,1.95-.36,4.32.35,5.45,2.1,1.32.01,2.73.36,4.22,1.04,4.86,2.23,8.28,7.09,8.52,12.1.1,2.01-.6,4.62-2.88,5.35-2.49.79-4.61-1.26-5.68-3.25-.13-.24-.26-.49-.38-.74-.62-1.22-1.21-2.38-2.16-2.76-.77-.31-1.84-.07-2.72.62-.96.75-1.67,1.89-2.36,2.99-2.24,3.6-4.22,7.12-3.8,10.71.32,2.74,2.2,5.49,5.01,7.35,2.83,1.87,6.22,2.75,9.17,3.37l.72.15c1.9.39,3.86.79,5.68,1.71,2.51,1.27,4.22,3.4,4.56,5.71.28,1.87-.44,3.61-1.82,4.43-2.14,1.26-4.6-.2-5.66-.83-3-1.78-5.57-3.14-8.34-3.99-3.13-.97-6.14-1.09-8.69-.36-1.84.53-3.52,1.49-5.31,2.51-.76.43-1.54.88-2.34,1.3-2.51,1.3-4.76,1.95-6.8,1.95ZM34.98,14.56c-.19,0-.38.02-.56.05-1.48.27-2.86,1.34-4.08,2.28l-6.65,5.13c-1.49,1.15-3.03,2.34-4.22,3.76-1.73,2.08-2.78,4.73-3.79,7.29-2.16,5.48-4.39,11.16-4.57,17.07-.08,2.57.27,4.67,1.07,6.41.91,1.99,2.51,3.5,4.27,4.05,2.01.62,4.52.16,7.48-1.38.75-.39,1.51-.82,2.24-1.24,1.84-1.06,3.75-2.15,5.89-2.76,3.04-.87,6.56-.74,10.18.38,3.19.99,6.16,2.62,8.9,4.24,1.02.6,2.28,1.25,3,.82.5-.29.66-1.12.56-1.79-.22-1.47-1.4-2.87-3.15-3.76-1.51-.76-3.22-1.11-5.03-1.48l-.73-.15c-3.19-.66-6.87-1.63-10.08-3.74-3.5-2.32-5.75-5.68-6.17-9.22-.52-4.43,1.68-8.39,4.18-12.4.77-1.24,1.64-2.64,2.97-3.67,1.63-1.27,3.67-1.65,5.31-.98,1.85.75,2.73,2.48,3.51,4,.12.23.24.47.36.69.64,1.2,1.74,2.26,2.59,1.99.77-.24,1.12-1.56,1.06-2.73-.2-4.06-3.01-8.02-7-9.85-1.32-.61-2.52-.87-3.56-.79-2.04.16-3.98,1.67-5.53,2.88l-8.23,6.43c-.57.44-1.39.34-1.83-.23-.44-.57-.34-1.39.23-1.83l8.23-6.43c1.24-.97,2.69-2.1,4.38-2.8-.38-.15-.81-.23-1.22-.23Z"/>
        <path class="cls-1" d="M47.41,32.02c-.61,0-1.15-.43-1.28-1.05-.45-2.23-.61-4.51-.48-6.77.04-.67.11-1.44.51-2.18.55-1.02,1.57-1.62,2.61-1.54.72.06,1.25.69,1.19,1.41-.06.7-.64,1.24-1.36,1.2-.04.02-.1.08-.14.16-.14.27-.18.71-.2,1.1-.12,2.04.03,4.09.43,6.1.14.71-.31,1.4-1.02,1.54-.09.02-.17.03-.26.03Z"/>
        <path class="cls-1" d="M47.77,60.81c-.19,0-.39-.04-.57-.13-.65-.32-.91-1.1-.6-1.75.88-1.8,2.74-3.01,4.74-3.09,1.97-.09,3.95.97,4.98,2.69.37.62.17,1.42-.45,1.79-.62.37-1.42.17-1.79-.45-.53-.89-1.59-1.47-2.63-1.42-1.04.04-2.04.7-2.5,1.63-.23.46-.69.73-1.17.73Z"/>
        <path class="cls-1" d="M56.96,63.14c-.34,0-.68-.05-1.03-.16-1.54-.47-2.64-1.99-2.81-3.88-.2-2.32.95-4.79,3.1-6.61,1.56-1.32,3.37-2.17,5.13-2.99l.66-.31c2.72-1.28,5.81-2.93,8.13-5.41,2.3-2.47,3.48-5.58,3.16-8.32-.42-3.58-3.17-6.55-6.19-9.52-.93-.91-1.88-1.85-2.99-2.36-1.02-.46-2.12-.45-2.79.03-.83.6-1.14,1.86-1.46,3.2-.07.27-.13.54-.2.81-.57,2.19-2.14,4.67-4.76,4.49-2.39-.17-3.68-2.54-4.05-4.53-.93-4.92,1.26-10.45,5.46-13.76,1.28-1.01,2.58-1.68,3.86-2,.69-1.97,2.83-3.21,4.81-3.31,2.12-.12,4.11.77,5.7,1.49l7.66,3.43c1.85.83,3.76,1.68,5.47,2.96,2.51,1.87,4.35,4.49,5.97,6.8,3.35,4.78,7.14,10.19,8.82,16.34.79,2.88.95,5.39.5,7.67-.57,2.9-2.19,5.34-4.43,6.67-2.45,1.46-5.58,1.69-9.56.7-.87-.22-1.73-.47-2.57-.71-1.97-.58-3.84-1.12-5.75-1.2-2.64-.11-5.55.71-8.36,2.38-2.49,1.48-4.67,3.4-7.17,5.83-.75.73-2.35,2.28-4.27,2.28ZM62.61,20.63c.85,0,1.73.19,2.57.57,1.53.7,2.71,1.85,3.75,2.88,3.37,3.31,6.43,6.65,6.96,11.08.42,3.55-.98,7.34-3.84,10.41-2.62,2.81-5.98,4.61-8.92,5.99l-.67.32c-1.67.78-3.25,1.52-4.54,2.61-1.5,1.27-2.32,2.92-2.19,4.39.06.67.41,1.44.97,1.61.8.24,1.88-.68,2.73-1.5,2.28-2.21,4.79-4.5,7.66-6.2,3.26-1.93,6.65-2.88,9.81-2.75,2.23.09,4.33.71,6.37,1.31.81.24,1.65.48,2.47.68,3.23.8,5.79.66,7.59-.41,1.59-.94,2.78-2.79,3.21-4.93.37-1.88.22-4-.46-6.48-1.55-5.7-5.05-10.7-8.43-15.53-1.58-2.26-3.22-4.59-5.39-6.21-1.48-1.1-3.26-1.9-4.98-2.67l-7.66-3.43c-1.4-.63-3-1.34-4.49-1.26-.59.03-1.21.25-1.7.59,1.8.28,3.48,1.04,4.91,1.7l9.51,4.33c.66.3.95,1.07.65,1.73-.3.66-1.08.95-1.73.65l-9.51-4.33c-1.79-.82-4.02-1.83-6.05-1.51-1.04.17-2.14.7-3.28,1.6-3.45,2.72-5.27,7.22-4.51,11.21.22,1.15.86,2.35,1.67,2.41.89.06,1.71-1.23,2.05-2.54.06-.25.13-.5.19-.76.4-1.66.85-3.55,2.48-4.71.79-.57,1.78-.86,2.82-.86Z"/>
        <path class="cls-1" d="M56.23,31.12c-.7,0-1.28-.55-1.31-1.26-.07-2.05-.41-4.08-1-6.03-.11-.38-.25-.79-.46-1.02-.06-.07-.14-.11-.18-.12-.67.19-1.38-.18-1.6-.85-.23-.69.15-1.42.83-1.65.99-.33,2.13.02,2.9.88.56.63.81,1.36,1,2,.66,2.17,1.03,4.42,1.12,6.7.03.72-.54,1.33-1.26,1.35-.02,0-.03,0-.05,0Z"/>
        <path class="cls-1" d="M55.32,60.63c-.13,0-.26-.02-.39-.06-.69-.22-1.07-.95-.86-1.64.6-1.91,2.25-3.39,4.21-3.78,1.96-.39,4.05.36,5.33,1.9.46.56.38,1.38-.17,1.84-.55.46-1.38.38-1.84-.17-.66-.8-1.79-1.2-2.81-1-1.02.2-1.91,1-2.22,1.99-.18.56-.69.92-1.25.92Z"/>
      </g>
    </g>
  </g>
</svg>