<?xml version="1.0" encoding="UTF-8"?>
<svg id="Ebene_2" xmlns="http://www.w3.org/2000/svg" viewBox="0 0 59.36 71.57">
  <defs>
    <style>
      .cls-1 {
        fill: #ed5fc5;
      }

      .cls-2 {
        fill: #d9ed8e;
      }
    </style>
  </defs>
  <g id="Ebene_1-2" data-name="Ebene_1">
    <g id="layout">
      <g>
        <path class="cls-1" d="M34.17,31.51c-2.83,0-5.61-1.22-7.52-3.48-2.16-2.55-2.84-5.96-1.95-9.06-.38-.95-1.1-2.26-1.56-2.93-3.09-4.47-1.97-10.59,2.5-13.68,4.47-3.09,10.59-1.97,13.68,2.5.26.37,1.4,2.07,2.55,4.38,8.41-1.1,12.73,2.24,14.93,5.48,3.04,4.5,1.86,10.61-2.63,13.66-3.18,2.15-7.16,2.19-10.3.45-1.54.31-3.92,1.07-5.74,1.87-1.28.56-2.62.83-3.95.83ZM24.95,19.74h0,0Z"/>
        <g>
          <path class="cls-1" d="M33.92,71.57c-8.23,0-16.48-.59-24.65-1.76-4.59-.66-8.1-4.43-8.42-9.06C-.29,44.19-.29,27.39.86,10.82,1.18,6.2,4.68,2.42,9.27,1.77,18.07.5,27-.09,35.8.01h0c1.89.03,3.48.58,4.59.97,1.57.55,3.22,1.28,4.77,2.1,4.94,2.61,9.11,6.25,12.08,10.55,1.05,1.52,1.65,3.3,1.73,5.15.64,14.26.47,28.71-.51,42.96-.33,4.82-4.11,8.68-8.92,9.12-5.19.47-10.41.71-15.63.71ZM20.02,51.27c6.43.58,12.88.76,19.31.53.43-9.61.47-19.27.13-28.85-1.92-1.83-4.14-2.85-5.25-3.28h-.29c-4.61,0-9.26.21-13.89.63-.46,10.3-.46,20.66,0,30.96ZM42,17.39c-.51.43-1.07.8-1.65,1.12.56-.3,1.11-.67,1.65-1.12ZM42,17.39s0,0,0,0c0,0,0,0,0,0ZM42.01,17.38s0,0,0,0c0,0,0,0,0,0ZM42.01,17.38s0,0,0,0c0,0,0,0,0,0Z"/>
          <path class="cls-1" d="M33.92,71.57c-8.23,0-16.48-.59-24.65-1.76-4.59-.66-8.1-4.43-8.42-9.06C-.29,44.19-.29,27.39.86,10.82,1.18,6.2,4.68,2.42,9.27,1.77,18.07.5,27-.09,35.8.01h0c1.89.03,3.48.58,4.59.97,1.57.55,3.22,1.28,4.77,2.1,4.94,2.61,9.11,6.25,12.08,10.55,1.05,1.52,1.65,3.3,1.73,5.15.64,14.26.47,28.71-.51,42.96-.33,4.82-4.11,8.68-8.92,9.12-5.19.47-10.41.71-15.63.71ZM20.02,51.27c6.43.58,12.88.76,19.31.53.43-9.61.47-19.27.13-28.85-1.92-1.83-4.14-2.85-5.25-3.28h-.29c-4.61,0-9.26.21-13.89.63-.46,10.3-.46,20.66,0,30.96ZM42,17.39c-.51.43-1.07.8-1.65,1.12.56-.3,1.11-.67,1.65-1.12ZM42,17.39s0,0,0,0c0,0,0,0,0,0ZM42.01,17.38s0,0,0,0c0,0,0,0,0,0ZM42.01,17.38s0,0,0,0c0,0,0,0,0,0Z"/>
        </g>
        <path class="cls-1" d="M38.67,54.51c-7.22,0-14.49-.32-21.67-.94-5.41-.47-9.41-5.24-8.94-10.66.47-5.41,5.24-9.41,10.66-8.94,7.53.66,15.17.94,22.73.85,5.42-.08,9.89,4.28,9.96,9.71.07,5.43-4.28,9.89-9.71,9.96-1.01.01-2.02.02-3.02.02Z"/>
        <path class="cls-1" d="M17.75,61.68c-5.4,0-9.8-4.36-9.83-9.77-.03-5.43,4.34-9.86,9.77-9.9l15.4-.1h.06c5.4,0,9.8,4.36,9.83,9.77.03,5.43-4.34,9.86-9.77,9.9l-15.4.1h-.06Z"/>
      </g>
      <g>
        <path class="cls-1" d="M31.24,10.44s5.28,7.64,2.92,11.24c0,0,11.91-5.28,14.5-1.46"/>
        <g>
          <path class="cls-1" d="M35.69,9.85c0-.07,8.38,2.02,13.47,9.38.63,13.95.46,27.89-.5,41.84-12.66,1.16-25.32.83-37.99-.99-1.12-16.19-1.12-32.38,0-48.57,8.34-1.2,16.68-1.75,25.02-1.66"/>
          <path class="cls-1" d="M35.69,9.85c0-.07,8.38,2.02,13.47,9.38.63,13.95.46,27.89-.5,41.84-12.66,1.16-25.32.83-37.99-.99-1.12-16.19-1.12-32.38,0-48.57,8.34-1.2,16.68-1.75,25.02-1.66"/>
        </g>
        <path class="cls-1" d="M17.87,43.76c7.88.69,15.8.99,23.71.89"/>
        <path class="cls-1" d="M17.75,51.85c5.13-.03,10.26-.06,15.4-.1"/>
      </g>
      <g>
        <path class="cls-2" d="M34.16,22.99c-.38,0-.75-.16-1-.46-.38-.44-.41-1.08-.1-1.57,1.36-2.08-1.06-7.1-2.91-9.77-.41-.6-.26-1.41.33-1.82.6-.41,1.41-.26,1.82.33.47.68,3.81,5.67,3.75,9.8,4.05-1.5,11.28-3.54,13.67,0,.41.6.25,1.42-.35,1.82-.6.41-1.42.25-1.82-.35-.79-1.17-5.44-1.37-12.88,1.92-.17.08-.35.11-.53.11Z"/>
        <path class="cls-2" d="M33.92,63.05c-7.83,0-15.66-.56-23.44-1.67-.61-.09-1.08-.59-1.12-1.21-1.12-16.17-1.12-32.58,0-48.75.04-.62.51-1.12,1.12-1.21,8.37-1.2,16.85-1.76,25.22-1.67v.05c2.17.17,9.91,3.21,14.53,9.89.14.2.22.44.23.69.63,13.94.46,28.06-.5,41.99-.04.64-.55,1.16-1.19,1.22-4.93.45-9.89.67-14.85.67ZM11.91,58.92c11.79,1.61,23.72,1.93,35.52.93.88-13.34,1.03-26.85.44-40.19-4.52-6.28-11.56-8.31-12.29-8.51-7.85-.08-15.8.42-23.66,1.5-1.01,15.36-1.01,30.91,0,46.27Z"/>
        <path class="cls-2" d="M38.67,45.98c-6.97,0-14-.31-20.92-.91-.72-.06-1.26-.7-1.19-1.42.06-.72.69-1.26,1.42-1.19,7.81.68,15.74.98,23.58.88h.02c.72,0,1.3.58,1.31,1.3,0,.72-.57,1.32-1.3,1.33-.97.01-1.95.02-2.92.02Z"/>
        <path class="cls-2" d="M17.75,53.16c-.72,0-1.31-.58-1.31-1.3,0-.72.58-1.32,1.3-1.32l15.4-.1h0c.72,0,1.31.58,1.31,1.3,0,.72-.58,1.32-1.3,1.32l-15.4.1h0Z"/>
      </g>
    </g>
  </g>
</svg>