<?xml version="1.0" encoding="UTF-8"?>
<svg id="Ebene_2" xmlns="http://www.w3.org/2000/svg" viewBox="0 0 145 97.03">
  <defs>
    <style>
      .cls-1 {
        fill: #ed5fc5;
      }

      .cls-2 {
        fill: #d9ed8e;
      }
    </style>
  </defs>
  <g id="Ebene_1-2" data-name="Ebene_1">
    <g>
      <g>
        <path class="cls-1" d="M18.18,63.31c-1.14,0-2.21-.1-3.16-.22-1.74-.22-6.34-.82-10-4.32C.8,54.72.38,49.35.22,47.32c-.2-2.63-.27-5.22-.18-7.68.21-6.28,1.37-11.68,3.53-16.52h0c2.73-6.11,8.01-9.3,14.11-8.54,3.24.4,6.09,2.01,8.02,4.52,1.46,1.9,3.06,5.2,2.38,10.13l-.08.6c-.26,1.94-.57,4.14-1.19,6.46-.08.3-.16.59-.25.88,4.2,2.75,6.7,7.68,6.4,12.7-.3,5.21-3.57,9.95-8.32,12.1-2.27,1.03-4.49,1.33-6.47,1.33ZM12.52,27.12l8.95,4s0,0,0,0l-8.95-4ZM8.66,26.54s0,0,0,0h0Z"/>
        <path class="cls-1" d="M27.33,56.36c-2.98,0-5.89-.89-8.31-2.7-3.92-2.92-6.04-7.78-5.8-13.33.05-1.2.19-2.28.31-3.15.07-.52.16-1.24.16-1.49-.02-.22-.17-.91-.29-1.41-.53-2.35-1.34-5.91-.15-10.01,1.48-5.08,5.24-8.08,7.26-9.69,5.44-4.34,10.04-4.21,12.94-3.33,3.62,1.09,6.39,3.87,7.59,7.62,1.29,4,.55,8.03-1.24,11.29.07.43.11.87.12,1.31,2.41,2.49,3.76,5.85,3.74,9.3-.03,4.41-2.21,8.7-5.98,11.78-3.09,2.52-6.78,3.8-10.35,3.8Z"/>
        <path class="cls-1" d="M37.87,55.3c-1,0-2.02-.13-3.03-.41-4.23-1.16-8.73-5.12-8.67-12.74.03-3.24.11-6.52.26-9.76-.66-.68-1.32-1.52-1.89-2.57-2.59-4.74-1.64-10.57,2.41-14.86,5.35-5.66,14.61-7.48,21.54-4.22,5.85,2.75,8.78,9.26,6.8,15.15-.95,2.84-2.74,4.68-4.18,5.83,0,.59.03,1.22.06,1.87.14,3.95.34,9.36-2.38,14.61-2.33,4.49-6.49,7.11-10.91,7.11Z"/>
        <path class="cls-1" d="M48.83,29.69c-1.48,0-2.96-.31-4.36-.96-3.12-1.44-5.29-4.33-5.89-7.61-3.23-4.29-3.43-10.37-.45-14.95h0c3.23-4.96,9.05-7.24,14.5-5.68,5.31,1.53,8.8,6.27,8.89,12.09.09,5.69-1.69,10.41-5.28,14.03-2,2.01-4.69,3.08-7.42,3.08ZM41.96,13.39c.27,2.3,2.1,5.03,5.25,5.94,2.85.82,5.87-.2,7.35-2.48l-8.22-5.34,8.22,5.34c.75-1.16,1.1-2.47,1.04-3.77-.81-.89-1.79-1.62-2.92-2.14-3.49-1.61-7.65-.86-10.36,1.87-.14.14-.29.38-.37.58ZM38.46,18.39h0s0,0,0,0Z"/>
        <path class="cls-1" d="M50.13,53.12c-4.23,0-8.13-1.89-10.45-5.28-2.88-4.21-2.78-9.78.26-14.53.6-.93,1.22-1.72,1.77-2.39-.27-.64-.53-1.36-.74-2.17-1.52-5.89,1.16-10.91,2.04-12.56,1.95-3.65,4.19-6.42,6.85-8.49,2.59-2.02,11.58-6.69,18.59-1.83,3.37,2.33,6.23,7.16,4.19,13.71h0c-1.41,4.51-4.84,7.08-5.96,7.93-.1.08-.21.16-.31.23,0,.04.01.09.02.13.07.43.14.85.22,1.28.42,2.36.98,5.6.33,9.24-1.18,6.59-6.08,12.12-12.49,14.08-1.44.44-2.9.66-4.31.66Z"/>
        <path class="cls-1" d="M36.38,97.03c-2.27,0-4.5-.66-6.39-1.93-.49-.33-.93-.68-1.32-1.03-3.91-.61-7.57-2.75-10.27-6.04-2.46-3.01-3.62-6.34-4.27-8.59-2.53-8.68-2.27-18.15.74-26.67.83-2.36,2.3-5.81,5.39-8.55h0c4.78-4.24,12.8-5.66,17.97-.69,2.26,2.18,4.52,6.11,3.2,12.77,1.29,1.32,2.48,3.13,3.35,5.61,2.45,7,3.34,14.06,3.85,19.42.16,1.74.51,5.35-1.43,9.06-1.63,3.12-4.51,5.4-7.92,6.27-.96.24-1.93.36-2.9.36Z"/>
        <path class="cls-1" d="M46.42,86.5c-1.84,0-3.7-.35-5.49-1.07-2.66-1.06-5-2.82-7.14-5.37-3.24-3.86-5.43-8.74-6.34-14.12-.71-4.23-.64-8.84.22-13.71.43-2.44,1.19-5.62,3.22-8.61,3.11-4.58,7.81-6.98,12.87-6.57,5.58.45,10.75,4.37,13.5,10.25,3.72,7.96,3.47,16.35,3.27,23.08-.07,2.39-.29,9.67-6.49,13.82-2.26,1.51-4.92,2.29-7.64,2.29Z"/>
        <path class="cls-1" d="M45.71,79.26c-4.14,0-7.83-2.37-9.83-6.37-1.31-2.62-1.84-5.11-2.27-7.12h0c-1.2-5.6,1.5-11.26,6.41-13.46,4.77-2.14,10.17-.58,13.44,3.88,2.85,3.89,2.94,8.24,2.99,10.84v.46c.03.78.08,2.57-.67,4.64-1.41,3.89-4.92,6.66-8.95,7.08-.37.04-.74.06-1.11.06ZM37.01,66.66c.13.3.33.69.63,1.11,1.89,2.59,6.18,4.32,10.39,2.43,2.96-1.33,4.82-4.02,4.89-6.88-.34-.49-.76-.97-1.25-1.41l-8.49,1.81,8.49-1.82c-1.62-1.45-4.01-2.49-6.86-2.2-3.42.35-6.34,2.61-7.48,5.75-.16.44-.26.85-.34,1.21Z"/>
        <path class="cls-1" d="M58.92,81.08c-3.35,0-6.66-1.31-9.28-3.72-2.06-1.9-3.23-4.02-4.03-5.65h0c-1.37-2.83-2.38-5.85-2.99-8.99-1.05-5.43-.88-11.13.49-16.46,1.65-6.41,4.8-10.57,9.36-12.36,3.82-1.5,8.13-.99,11.84,1.39,3.95,2.54,5.69,6.33,6.65,8.96,2.77,7.58,3.37,15.84,1.73,23.91-.36,1.78-.96,4.11-2.4,6.41-2.22,3.56-5.77,5.9-9.72,6.41-.55.07-1.1.11-1.66.11Z"/>
        <path class="cls-1" d="M58.84,74c-3.6,0-7.04-1.92-9.07-5.17h0c-.84-1.35-4.43-9.49-1.16-15.61,1.78-3.34,5.08-5.41,8.83-5.54,4.88-.16,9.14,3.04,11.16,8.36,1.09,2.86,1.26,6.16.48,9.54-1.02,4.41-4.3,7.58-8.56,8.28-.56.09-1.11.14-1.67.14ZM58.83,54.4c-.51,0-1.02.04-1.53.13-3.59.59-6.54,3.26-7.32,6.62-.03.15-.08.88.3,1.86.68,1.79,3.67,4.4,7.83,4.26,2.53-.09,4.94-1.23,6.61-3.12,1.64-1.86,2.08-3.85,2.13-4.88-.1-.22-.25-.5-.45-.81l-8.32,5.19,8.32-5.19c-1.58-2.54-4.5-4.06-7.58-4.06Z"/>
        <path class="cls-1" d="M71.75,74.68c-3.07,0-6.19-1.04-8.74-3.08-2.52-2.01-4.36-4.78-5.63-8.47-1.98-5.78-2.14-11.6-2.14-16.61,0-2.06,0-5.5,1.52-9.04h0c1.85-4.31,5.75-7.66,10.17-8.77,3.97-.99,8.05-.1,11.21,2.44,2.26,1.82,3.52,4.01,4.27,5.5,3.72,7.38,4.61,16.41,2.55,26.12-.34,1.62-1.38,6.54-5.86,9.64-2.18,1.51-4.76,2.25-7.37,2.25Z"/>
        <path class="cls-1" d="M70.98,68c-3.05,0-6.05-1.34-8.11-3.76-1.63-1.91-2.18-3.91-2.36-4.57-.57-2.07-.73-3.95-.85-5.46h0c-.45-5.34,2.68-10.41,7.45-12.08,4.62-1.61,9.62.16,12.44,4.41,2.76,4.14,2.24,8.95,1.96,11.53-.51,4.71-3.47,8.34-7.72,9.54-.93.26-1.87.39-2.81.39ZM62.2,55.01c.11.51.37,1.39,1.03,2.38,2.14,3.22,6.48,4.58,10.33,3.24,2.64-.92,5.33-3.39,5.63-6.82-.14-.34-.33-.76-.61-1.21l-9.15.77,9.15-.77c-.21-.34-.47-.71-.79-1.08-2.25-2.65-5.92-3.74-9.33-2.77-3.53,1-5.61,3.77-6.26,6.26ZM79.42,54.49h0s0,0,0,0ZM79.19,52.56s0,0,0,0c0,0,0,0,0,0h0Z"/>
        <path class="cls-1" d="M84.87,71.43c-3.31,0-6.59-1.33-9.13-3.81-2.28-2.23-3.39-4.83-4.03-6.6-2.51-6.97-2.61-14.02-2.47-18.72.08-2.65.35-5.52,1.79-8.49h0c1.99-4.12,5.85-7.07,10.31-7.9,4.19-.78,8.36.44,11.44,3.33,2.21,2.07,3.32,4.43,3.95,6.02,2.72,6.79,3.41,14.63,2.04,23.32-.71,4.49-4.13,10.23-9.96,12.21-1.29.44-2.62.65-3.95.65Z"/>
        <path class="cls-1" d="M84.79,64.95c-.46,0-.93-.03-1.39-.09-4.45-.6-8.02-3.98-9.07-8.62-.38-1.66-.46-3.15-.52-4.24-.04-.81-.13-2.46.44-4.44,1.08-3.7,3.89-6.51,7.52-7.53h0c3.32-.93,6.88-.2,9.53,1.94,4.74,3.83,4.37,9.84,4.24,12.1v.08c-.05.84-.16,2.76-1.24,4.9-1.85,3.66-5.56,5.91-9.51,5.91ZM76.04,52.5c.18,1.06.98,3.31,3.36,5.02,2.21,1.59,5.07,2.1,7.64,1.38l-2.63-9.44,2.64,9.44c2.89-.81,5.2-3.05,6.02-5.86.17-.59.25-1.1.28-1.5-.89-3.16-3.85-5.65-7.35-6.12-3.8-.51-7.5,1.4-9.2,4.77-.47.92-.68,1.76-.77,2.31Z"/>
        <path class="cls-1" d="M96.33,71.18c-2.53,0-4.97-.74-7.06-2.17-4.28-2.92-5.35-7.4-5.7-8.87-1.47-6.18-.94-12.11-.52-16.87.18-2.05.49-5.47,2.36-8.81h0c2.83-5.06,8.16-7.9,13.6-7.24,5.44.67,9.94,4.71,11.46,10.3.77,2.82.68,5.34.62,7.17-.04,1.28-.01,2.38.02,3.67.04,1.4.08,2.98.01,4.85-.07,2.1-.52,7.42-3.09,11.46-2.05,3.2-5.34,5.48-9.05,6.23-.89.18-1.78.27-2.66.27Z"/>
        <path class="cls-1" d="M96.89,65.18c-.54,0-1.08-.04-1.62-.13-4.62-.75-8.1-4.39-8.87-9.28-.28-1.77-.35-3.58-.22-5.37.23-3.01,1.32-5.52,3.26-7.48,3.25-3.29,7.94-4.21,11.95-2.34,3.31,1.54,7.07,5.28,6.22,14.33-.11,1.19-.39,2.99-1.51,4.92-1.93,3.32-5.49,5.33-9.2,5.33ZM88.17,52.55c.37,1.7,2.03,4.8,5.72,6.13,3.84,1.38,7.53,0,9.48-1.97h0c1.68-1.7,2.17-3.56,2.3-4.42-.65-2.86-3.27-5.94-7.28-6.59-1.86-.3-3.74,0-5.37.77l3.39,3.35-3.39-3.35c-1.59.76-2.96,1.97-3.87,3.54-.59,1.02-.85,1.95-.97,2.54Z"/>
        <path class="cls-1" d="M106.99,73.05c-2.65,0-5.25-.84-7.38-2.5-3.99-3.1-4.58-7.51-4.78-8.95-.73-5.37-.47-10.77.76-16.04.51-2.17,1.35-5.01,3.39-7.66h0c4.05-5.28,10.61-7.11,15.94-4.47,5.28,2.61,6.82,8.3,7.32,10.17,2.08,7.68.66,16.21-3.81,22.81-1.02,1.5-2.7,3.67-5.54,5.17-1.87.99-3.91,1.48-5.93,1.48Z"/>
        <path class="cls-1" d="M108.32,68.54c-.22,0-.44,0-.65-.02-2.89-.18-5.58-1.56-7.39-3.79-1.58-1.95-2.37-4.28-2.35-6.93.01-1.65.11-3.31.27-4.95h0c.55-5.34,4.44-9.4,9.46-9.87,5-.47,9.56,2.75,11.08,7.84.74,2.48.81,5.35.21,8.52-.48,2.52-1.58,4.63-3.29,6.27-1.97,1.89-4.62,2.94-7.33,2.94ZM99.75,55.38c.01.19.05.55.2,1.03.98,3.29,4.66,6.54,9.55,6.08,4.13-.39,6.91-3.21,7.87-6.11-.22-1.11-.72-2.58-1.88-4.01-1.63-2.01-4.04-3.25-6.6-3.41-2.5-.15-4.98.75-6.79,2.48-.58.55-1.02,1.12-1.36,1.66l7.21.74-7.21-.74c-.58.93-.86,1.77-.98,2.27Z"/>
        <path class="cls-1" d="M116.56,79.43c-3.64,0-7.12-1.54-9.47-4.34-2.86-3.41-2.93-7.37-2.96-8.67-.12-6.24,1.08-12.58,3.46-18.35.74-1.79,1.85-4.1,3.89-6.17h0c3.05-3.09,7.34-4.55,11.47-3.89,4.08.65,7.52,3.21,9.43,7.02,1.19,2.37,1.47,4.61,1.59,6.49.6,9.52-1.76,17.44-6.82,22.9-2.1,2.27-4.39,3.74-6.99,4.49-1.2.35-2.41.51-3.61.51ZM125.43,55.68h0s0,0,0,0Z"/>
        <path class="cls-1" d="M118.18,73.8c-2.24,0-4.4-.71-6.21-2.07-1.4-1.04-4.62-4.07-4.22-9.64.1-1.5.35-3.01.72-4.48.73-2.92,2.25-5.19,4.52-6.76,3.5-2.43,7.85-2.6,11.37-.43,6.06,3.74,5.03,10.76,4.69,13.07v.02c-.11,1.07-.44,3.47-2.15,5.83-1.68,2.32-4.27,3.9-7.09,4.33-.54.08-1.08.12-1.62.12ZM109.75,60.44c.14,1.92,1.42,5.07,4.69,6.88,3.1,1.72,6.91,1.58,9.71-.37,1.98-1.38,2.83-3.15,3.16-4.05-.03-2.06-.98-4.91-3.64-6.88-1.95-1.45-4.44-2.08-6.84-1.71-.42.06-.83.16-1.22.27l2.95,4.33-3.03-4.3c-1.81.56-3.39,1.69-4.52,3.25-.7.97-1.07,1.9-1.27,2.59ZM127.3,63.46s0,0,0,0c0,0,0,0,0,0ZM129.05,63.33v.02s0-.01,0-.02Z"/>
        <path class="cls-1" d="M127.3,74.95c-1.64,0-3.29-.37-4.81-1.13-3.8-1.88-6.16-5.84-6.02-10.08.21-5.92,2.19-11.22,3.79-15.48.6-1.61,1.86-4.97,5.1-7.45h0c4.95-3.78,12.16-3.27,16.4,1.15,4.46,4.65,3.36,10.59,2.3,13.71-1.54,4.56-3.69,8.89-6.39,12.88-.71,1.04-1.83,2.58-3.49,3.94-1.97,1.61-4.41,2.45-6.88,2.45ZM127.44,55.36c.06.06.11.12.17.19,1.64,1.71,3.75,2.5,5.84,2.34-.66-.65-1.42-1.2-2.27-1.62-1.19-.59-2.47-.88-3.74-.9Z"/>
        <path class="cls-1" d="M123.7,84.62c-1.83,0-3.66-.46-5.32-1.39-4.11-2.29-6.51-7.04-6.28-12.38h0c.25-5.81,3.75-10.57,8.9-12.13,5.09-1.54,10.39.42,13.18,4.88,3.8,6.07,1.88,14.97-4.12,19.03-1.94,1.31-4.15,1.98-6.36,1.98ZM123.7,65.02c-1.64,0-3.27.47-4.64,1.4-1.03.7-4.18,3.31-1.5,7.6,1.9,3.03,5.73,4.49,9.1,3.48,3.13-.95,4.92-3.69,5.01-5.79l-9.79-.42,9.79.42c.09-2-1.45-4.3-3.74-5.58-1.32-.74-2.78-1.1-4.23-1.1Z"/>
      </g>
      <g>
        <path class="cls-2" d="M12.52,27.12c-1.8,4.03-2.54,8.46-2.69,12.85-.07,2.2-.01,4.4.16,6.59.14,1.81.43,3.8,1.81,5.12,1.17,1.12,2.87,1.47,4.48,1.68,1.45.19,2.99.29,4.33-.32,1.45-.66,2.48-2.15,2.57-3.74s-.76-3.2-2.12-4.02c-1.77-1.06-4.29-.91-5.54-2.56-.61-.81-.08-2.21.1-3.08.43-2.02,1.18-3.91,1.72-5.89.52-1.92.76-3.9,1.03-5.87.23-1.67-.04-3.35-1.9-3.58-2.04-.25-3.19,1.11-3.95,2.82Z"/>
        <path class="cls-2" d="M26.62,22.26c-1.64,1.31-3.37,2.75-3.96,4.76-.77,2.65.66,5.4.81,8.15.1,1.87-.38,3.72-.46,5.59s.36,3.94,1.86,5.06c1.92,1.43,4.76.67,6.61-.84,1.3-1.06,2.37-2.57,2.38-4.25s-1.37-3.4-3.04-3.3c-.79.04-1.65.45-2.33.04-.7-.42-.72-1.47-.34-2.2s1.04-1.26,1.5-1.94.71-1.64.2-2.28c-.51-.65-1.62-.76-1.85-1.55-.26-.86.75-1.51,1.49-2.02,1.61-1.12,2.86-3.61,2.22-5.58-.84-2.6-3.73-.71-5.09.38Z"/>
        <path class="cls-2" d="M34.06,21.69c-.87.92-1.54,2.31-.93,3.42.48.87,1.55,1.22,2.24,1.94,1.02,1.08,1,2.74.92,4.22-.19,3.65-.3,7.29-.32,10.94,0,1.27.23,2.88,1.46,3.22,1.11.3,2.13-.74,2.66-1.76,2.05-3.96,1.13-8.71,1.22-13.16.04-1.8.32-3.76,1.63-4.99,1.02-.96,2.61-1.44,3.05-2.77.42-1.24-.5-2.61-1.68-3.16-3.17-1.49-7.91-.39-10.25,2.09Z"/>
        <path class="cls-2" d="M46.35,11.51c-.74,1.13-.74,2.74.12,3.79.35.42.81.75,1.14,1.18.59.77.69,1.75.61,2.74-.05.59.66.91,1.07.49,1.52-1.53,2.49-3.56,2.44-6.97-.06-3.54-3.73-3.77-5.37-1.23Z"/>
        <path class="cls-2" d="M63.29,16.65c-.4,1.27-1.43,2.22-2.5,3.02s-2.21,1.52-3.01,2.59c-1.48,1.96-1.46,4.66-1.09,7.09.37,2.43,1.02,4.89.59,7.31-.53,2.97-2.83,5.56-5.72,6.45-1.33.41-3.02.35-3.81-.79-.75-1.09-.29-2.59.43-3.7.83-1.29,1.95-2.36,2.85-3.61s1.58-2.76,1.33-4.28c-.26-1.59-1.5-2.86-1.91-4.42-.48-1.86.29-3.8,1.2-5.49,1.08-2.03,2.42-3.97,4.23-5.39,1.88-1.47,9.01-3.91,7.4,1.22Z"/>
        <path class="cls-2" d="M26.77,51.55c-1.31,1.16-2.07,2.83-2.65,4.48-2.33,6.6-2.54,13.94-.58,20.66.53,1.83,1.24,3.65,2.45,5.13s2.98,2.58,4.89,2.62c.95.02,2-.2,2.78.34.78.54,1,1.64,1.79,2.17,1.02.68,2.5-.02,3.06-1.1s.48-2.38.36-3.6c-.55-5.8-1.42-11.61-3.34-17.11-.39-1.11-1-2.37-2.16-2.58-.78-.14-1.58.28-2.06.91s-.67,1.43-.74,2.22c-.28,3.39,1.63,6.75,1.04,10.11-.99-.3-1.52-1.36-1.85-2.35-1.42-4.18-1.42-8.83,0-13.01.54-1.58,1.27-3.09,1.73-4.7.35-1.21,1.03-4.13-.05-5.16-1.16-1.11-3.74.13-4.67.96Z"/>
        <path class="cls-2" d="M39.01,49.14c-.96,1.41-1.38,3.12-1.67,4.8-.6,3.43-.79,6.95-.21,10.38.58,3.43,1.94,6.77,4.17,9.43.9,1.07,1.97,2.05,3.27,2.57s2.87.52,4.03-.26c1.83-1.23,2.08-3.77,2.14-5.98.19-6.32.33-12.91-2.35-18.63-1.82-3.9-6.26-6.94-9.39-2.32Z"/>
        <path class="cls-1" d="M43.19,63.72c.35,1.64.71,3.29,1.45,4.79.24.48.63,1,1.16.94.35-.04.63-.33.75-.67s.11-.69.1-1.05c-.05-1.81.02-4.23-1.11-5.77-1.41-1.93-2.73.02-2.36,1.74Z"/>
        <path class="cls-2" d="M54.43,67.42c.48,1,1.04,1.98,1.86,2.73s1.92,1.25,3.02,1.1c1.12-.15,2.07-.93,2.67-1.89s.88-2.07,1.11-3.17c1.26-6.16.84-12.68-1.33-18.58-.57-1.57-1.34-3.18-2.75-4.08-3.88-2.5-5.69,2.38-6.41,5.16-1.02,3.96-1.13,8.15-.36,12.16.44,2.27,1.17,4.49,2.18,6.57Z"/>
        <path class="cls-1" d="M58.09,63.65c.18.3.48.6.82.55.36-.06.53-.47.61-.82.28-1.22.36-2.65-.09-3.85-.19-.49-.98-2.07-1.66-2.05-1.53.05-.23,5.3.31,6.17Z"/>
        <path class="cls-2" d="M65.77,41.35c-.69,1.61-.73,3.42-.73,5.18,0,4.53.14,9.14,1.61,13.42.51,1.5,1.23,3,2.47,3.99s3.11,1.32,4.42.42c1.14-.79,1.57-2.25,1.85-3.61,1.39-6.57,1.31-13.69-1.72-19.68-.43-.85-.93-1.69-1.67-2.28-2.24-1.8-5.28.33-6.24,2.55Z"/>
        <path class="cls-1" d="M69.42,53.38c.1,1.25.21,2.5.54,3.7.08.29.17.58.37.81s.51.37.79.29c.44-.12.58-.67.63-1.12.15-1.35.43-3.89-.37-5.1-1.04-1.56-2.07.18-1.97,1.41Z"/>
        <path class="cls-2" d="M79.85,38.08c-.67,1.39-.77,2.98-.82,4.52-.16,5.1.16,10.29,1.89,15.09.38,1.06.85,2.13,1.66,2.92s2.02,1.25,3.09.89c1.63-.55,3.16-2.75,3.43-4.45.96-6.12.85-12.4-1.45-18.15-.37-.92-.83-1.83-1.56-2.51-2.03-1.9-5.14-.56-6.24,1.69Z"/>
        <path class="cls-1" d="M84.41,49.46c-.37.1-.64.46-.75.83s-.09.77-.07,1.16c.05.88.1,1.76.29,2.62.11.47.35,1.01.82,1.07.35.05.69-.21.84-.52s.18-.68.2-1.03c.05-.8.35-4.6-1.35-4.12Z"/>
        <path class="cls-2" d="M93.97,39.25c-.82,1.47-1,3.21-1.15,4.89-.41,4.58-.78,9.26.29,13.73.28,1.16.71,2.38,1.69,3.05,1.6,1.09,3.94.12,4.98-1.51s1.5-4.59,1.56-6.52c.11-3.15-.14-5.38-.03-8.53.05-1.43.1-2.88-.28-4.26-1.03-3.76-5.1-4.35-7.06-.86Z"/>
        <path class="cls-1" d="M96.4,49.82c-.34.34-.42.85-.45,1.33-.08,1.03-.04,2.08.13,3.1.08.48.27,1.05.75,1.13.32.05.63-.16.79-.44s.2-.61.23-.93c.05-.56.41-6.06-1.45-4.19Z"/>
        <path class="cls-2" d="M106.77,43.86c-.87,1.13-1.3,2.54-1.63,3.93-.96,4.08-1.16,8.34-.59,12.49.13.94.34,1.96,1.09,2.54.75.59,1.86.53,2.7.08s1.47-1.21,2-2c2.88-4.26,3.81-9.79,2.46-14.75-.32-1.2-.98-3.34-2.21-3.95-1.31-.65-3.04.64-3.82,1.65Z"/>
        <path class="cls-1" d="M107.94,53.84c-.14,1.34-.21,2.68-.22,4.03,0,.24,0,.49.15.67.24.29.73.23,1-.03s.37-.64.44-1.01c.23-1.19.38-2.71.03-3.89-.38-1.27-1.25-1.16-1.4.23Z"/>
        <path class="cls-2" d="M118.46,48.79c-.83.84-1.36,1.94-1.81,3.03-1.88,4.55-2.81,9.48-2.72,14.4.02.9.1,1.88.68,2.57.66.79,1.85.99,2.84.71s1.82-.98,2.52-1.74c3.77-4.07,4.57-10.09,4.23-15.64-.06-.93-.15-1.88-.57-2.72-1.1-2.2-3.55-2.26-5.16-.62Z"/>
        <path class="cls-1" d="M118.56,58.9c-.35.24-.5.68-.6,1.1-.23.91-.38,1.85-.45,2.79-.03.39-.01.85.3,1.09.35.26.88.07,1.13-.28s.3-.8.35-1.23c.05-.5.83-4.57-.74-3.46Z"/>
        <path class="cls-2" d="M131.3,48.61c-.97.74-1.44,1.94-1.87,3.09-1.5,4.01-3.02,8.14-3.17,12.39-.03.89,1.02,1.39,1.71.82.61-.5,1.13-1.18,1.58-1.84,2.2-3.25,3.97-6.81,5.23-10.53.38-1.13.85-2.81-.09-3.79-.84-.88-2.47-.84-3.38-.14Z"/>
        <path class="cls-2" d="M121.89,71.27c-.09,2.15,1.04,4.36,2.68,3.26,1.55-1.05,2.35-4.06,1.31-5.72-.45-.72-1.22-.95-2.04-.7-1.3.39-1.89,1.77-1.95,3.17Z"/>
      </g>
    </g>
  </g>
</svg>