<?xml version="1.0" encoding="UTF-8"?>
<svg id="Ebene_2" xmlns="http://www.w3.org/2000/svg" viewBox="0 0 74.7 77.18">
  <defs>
    <style>
      .cls-1 {
        fill: #ed5fc5;
      }

      .cls-2 {
        fill: #d9ed8e;
      }
    </style>
  </defs>
  <g id="Ebene_1-2" data-name="Ebene_1">
    <g>
      <g>
        <path class="cls-2" d="M21.14,77.18c-4.78,0-11.93-.77-17.36-7.99C0,64.18,0,58.3,0,54.79V19.77c0-2.85,0-8.15,3.42-12.65C7.75,1.43,14.64.64,17.24.35c5.05-.58,9.87-.31,14.53-.06,2.17.12,4.22.23,6.23.25,1.76.02,3.59-.06,5.53-.15,3.7-.16,7.53-.33,11.62.14,8.49.99,14.27,4.35,17.18,10,1.94,3.77,1.98,7.56,2,10.06l.37,34.81c.04,3.34.11,10.3-4.91,15.37-6.04,6.11-15.25,5.99-21.96,5.9-1.17-.02-2.28-.03-3.11,0-4.22.15-8.48.22-12.6.29-2.96.05-6.01.1-9,.18-.6.02-1.26.03-1.98.03ZM18.42,58.4c.41.51.81.66,4.22.57,3.07-.08,6.17-.13,9.17-.18,4.04-.07,8.21-.14,12.28-.28,1.26-.04,2.58-.03,3.98,0,2,.02,6.38.08,8.39-.47.05-.56.07-1.37.06-2.42l-.37-34.81c0-.41-.01-1.05-.04-1.56-.52-.19-1.46-.45-3.06-.63-2.64-.31-5.59-.18-8.71-.04-2.11.09-4.28.19-6.55.16-2.4-.03-4.74-.16-7.01-.28-4.08-.22-7.94-.43-11.48-.03h0c-.44.05-.8.1-1.09.15-.01.47-.01.94-.01,1.2v35.02c0,.8,0,2.86.23,3.61ZM57.13,57.76h0s0,0,0,0ZM56.02,18.55h0Z"/>
        <path class="cls-2" d="M25.37,37.33c-.67,0-1.35-.05-2.02-.15-4.6-.7-8.6-3.76-10.46-7.98-1.94-4.41-1.31-9.72,1.6-13.53,3.87-5.05,10.43-6.56,15.96-3.68,5.94,3.1,8.91,10.19,6.91,16.5-.85,2.67-2.53,5-4.72,6.55-2.11,1.5-4.63,2.28-7.27,2.28ZM21.31,20.9c-.6.61-1.04,1.32-1.29,2.08-.56,1.75-.15,4.02,2.01,5.14,2.49,1.3,5.58.33,6.89-1.39h0c1.09-1.43,1.32-3.24.61-4.86-.64-1.47-1.91-2.44-3.46-2.68-1.32-.2-2.77.17-3.96,1.02-.29.21-.56.43-.8.68l.4.31-.4-.31Z"/>
        <path class="cls-2" d="M25.07,65.64c-.18,0-.36,0-.54,0-6.71-.18-9.84-3.49-11.29-6.23-1.29-2.46-1.33-4.8-1.34-5.8-.1-6.57-.05-13.23.14-19.79.03-1.04.11-3.79,1.97-6.47h0c1.7-2.43,4.94-5.13,10.82-4.42,6.87-1,10.14,2.59,11.49,4.85,1.47,2.47,1.47,4.82,1.47,5.7l-.03,19.65c0,1.33,0,4.86-2.47,8.02-2.32,2.98-5.76,4.48-10.22,4.48Z"/>
        <path class="cls-2" d="M36.68,65.61c-.13,0-.26,0-.39,0-2.32-.04-4.17-.7-5.28-1.1l-.31-.11c-1.94-.68-3.51-1.83-4.66-3.42l-.11-.16c-1.06-1.53-1.63-3.28-1.69-5.21-.05-1.69-.13-3.38-.22-5.16-.15-3.06-.3-6.23-.31-9.44-.02-.33-.07-.81-.12-1.27-.29-2.81-.73-7.06,1.33-11.14,2.25-4.45,6.88-7.09,11.83-6.78h.14c2.01.04,3.77.39,5.28,1.04,1.78-.55,3.63-.82,5.5-.84,6.88.02,13.19,3.96,16.09,10.03,1.86,3.89,1.94,7.72,1.99,10.51l.21,10.23c.15,7.45-4.36,10.39-6.31,11.3-2.83,1.33-5.49,1.05-6.76.92h-.1c-1.62,0-5.13-.08-8.13-2.17-2.17,1.79-4.97,2.78-7.98,2.78ZM30.43,34.7c.12.37.31.83.6,1.34.34.61.74,1.13,1.16,1.59.82-1.73,1.91-3.26,3.27-4.56.05-.05.1-.1.15-.15l-3.71-2.64c-1.18,1.66-1.47,3.39-1.47,4.42Z"/>
      </g>
      <g>
        <path class="cls-2" d="M18.26,9.38c-2.82.32-5.89.99-7.6,3.25-1.5,1.98-1.57,4.66-1.57,7.14,0,11.67,0,23.35,0,35.02,0,3.1.08,6.45,1.94,8.92,3.19,4.23,6.94,4.47,11.84,4.34,7.17-.19,14.35-.22,21.52-.46,5.33-.18,14.79.98,18.92-3.2,2.21-2.23,2.32-5.74,2.28-8.88-.12-11.6-.25-23.21-.37-34.81-.02-2.05-.06-4.18-1-6-1.81-3.51-6.22-4.67-10.14-5.13-5.36-.62-10.81.13-16.21.07-6.55-.08-13.15-.99-19.62-.25Z"/>
        <path class="cls-2" d="M21.71,21.2c-.93,1.21-1.11,2.94-.5,4.33s1.99,2.42,3.5,2.65c.92.14,1.91-.01,2.67-.55.64-.45,1.08-1.15,1.31-1.9,1.3-4.07-3.9-8.56-6.98-4.54Z"/>
        <path class="cls-2" d="M21.48,32.53c-.3.44-.33,1-.35,1.54-.19,6.46-.23,12.93-.14,19.4,0,.58.02,1.18.29,1.69.61,1.16,2.17,1.34,3.48,1.37,1.21.03,2.61-.02,3.35-.97.52-.67.55-1.6.55-2.45,0-6.55.02-13.1.03-19.66,0-.35,0-.73-.19-1.03-.69-1.15-2.62-.32-3.64-.34-1.1-.02-2.6-.68-3.39.45Z"/>
        <path class="cls-2" d="M49.58,55.1c.64.85,2.43.81,3.37.8.84,0,2.05.33,2.83-.04.99-.47,1.11-1.8,1.09-2.89-.07-3.41-.14-6.82-.21-10.23-.05-2.31-.11-4.69-1.11-6.77-1.41-2.94-4.65-4.84-7.92-4.85s-6.43,1.76-8.32,4.42c.44-.61.07-1.99-.05-2.66-.07-.4-.12-.94-.32-1.3-.44-.78-1.97-.63-2.76-.69-1.36-.1-2.54.57-3.16,1.8-1.15,2.27-.33,5.64-.24,8.08,0,4.84.37,9.7.52,14.54,0,.11,0,.23.07.32.07.09.18.14.29.17.9.31,1.84.71,2.8.71,1.09.05,2.27-.34,2.89-1.25.48-.71.55-1.61.55-2.46,0-2.3-.44-4.58-.41-6.87s.6-4.72,2.25-6.32,4.6-1.95,6.19-.29c.92.96,1.21,2.34,1.38,3.66.23,1.83.34,3.75.12,5.58-.23,2-.43,4.03-.08,6.03.03.19.11.36.21.5Z"/>
      </g>
      <g>
        <path class="cls-1" d="M21.28,69.29c-4.39,0-8.06-.67-11.21-4.85-2.19-2.91-2.19-6.81-2.19-9.65V19.77c0-2.32,0-5.49,1.81-7.88,2.03-2.67,5.57-3.39,8.43-3.72,4.4-.5,8.87-.26,13.21-.02,2.16.12,4.39.24,6.57.26,1.98.02,4.01-.07,5.97-.15,3.39-.15,6.9-.31,10.36.1,5.8.68,9.43,2.57,11.08,5.78,1.09,2.11,1.11,4.57,1.13,6.54l.37,34.81c.04,3.55-.13,7.22-2.63,9.75-3.68,3.72-10.66,3.63-16.25,3.56-1.27-.02-2.47-.03-3.49,0-4.16.14-8.38.21-12.46.28-2.97.05-6.05.1-9.07.18-.55.01-1.1.02-1.63.02ZM23.82,10.31c-1.82,0-3.64.07-5.42.28h0c-2.38.27-5.3.83-6.78,2.77-1.22,1.61-1.32,3.85-1.32,6.41v35.02c0,3.25.13,6.11,1.7,8.2,2.84,3.78,6.14,3.98,10.84,3.86,3.03-.08,6.11-.13,9.09-.18,4.07-.07,8.28-.14,12.42-.28,1.07-.04,2.3-.02,3.6,0,5.14.07,11.54.15,14.5-2.84,1.84-1.86,1.96-4.98,1.93-8.02l-.37-34.81c-.02-1.81-.04-3.85-.86-5.46-1.25-2.44-4.26-3.9-9.2-4.48-3.27-.38-6.68-.23-9.97-.08-2,.09-4.07.18-6.11.16-2.23-.03-4.49-.15-6.67-.27-2.43-.13-4.91-.27-7.38-.27Z"/>
        <path class="cls-1" d="M21.71,21.2c-.93,1.21-1.11,2.94-.5,4.33s1.99,2.42,3.5,2.65c.92.14,1.91-.01,2.67-.55.64-.45,1.08-1.15,1.31-1.9,1.3-4.07-3.9-8.56-6.98-4.54Z"/>
        <path class="cls-1" d="M21.48,32.53c-.3.44-.33,1-.35,1.54-.19,6.46-.23,12.93-.14,19.4,0,.58.02,1.18.29,1.69.61,1.16,2.17,1.34,3.48,1.37,1.21.03,2.61-.02,3.35-.97.52-.67.55-1.6.55-2.45,0-6.55.02-13.1.03-19.66,0-.35,0-.73-.19-1.03-.69-1.15-2.62-.32-3.64-.34-1.1-.02-2.6-.68-3.39.45Z"/>
        <path class="cls-1" d="M49.58,55.1c.64.85,2.43.81,3.37.8.84,0,2.05.33,2.83-.04.99-.47,1.11-1.8,1.09-2.89-.07-3.41-.14-6.82-.21-10.23-.05-2.31-.11-4.69-1.11-6.77-1.41-2.94-4.65-4.84-7.92-4.85s-6.43,1.76-8.32,4.42c.44-.61.07-1.99-.05-2.66-.07-.4-.12-.94-.32-1.3-.44-.78-1.97-.63-2.76-.69-1.36-.1-2.54.57-3.16,1.8-1.15,2.27-.33,5.64-.24,8.08,0,4.84.37,9.7.52,14.54,0,.11,0,.23.07.32.07.09.18.14.29.17.9.31,1.84.71,2.8.71,1.09.05,2.27-.34,2.89-1.25.48-.71.55-1.61.55-2.46,0-2.3-.44-4.58-.41-6.87s.6-4.72,2.25-6.32,4.6-1.95,6.19-.29c.92.96,1.21,2.34,1.38,3.66.23,1.83.34,3.75.12,5.58-.23,2-.43,4.03-.08,6.03.03.19.11.36.21.5Z"/>
      </g>
    </g>
  </g>
</svg>