<?xml version="1.0" encoding="UTF-8"?>
<svg id="Ebene_2" xmlns="http://www.w3.org/2000/svg" viewBox="0 0 74.4 71.94">
  <defs>
    <style>
      .cls-1 {
        fill: #ed5fc5;
      }

      .cls-2 {
        fill: #d9ed8e;
      }
    </style>
  </defs>
  <g id="Ebene_1-2" data-name="Ebene_1">
    <g id="loveheart">
      <g>
        <g>
          <path class="cls-2" d="M26.97,66.78c-1.66,0-3.62-.26-5.51-1.13-8.46-3.87-16.55-15.22-19.68-27.58C-2.86,19.73,1.73,5.77,13.78,1.64c9.47-3.25,16.08-1.07,19.96,1.33,2.81,1.74,4.86,3.96,6.35,6.22,2.58-.21,5.35-.3,6.48-.26,7.09.26,16.51,3.66,21.54,10.71,3.43,4.8,4.37,10.59,2.65,16.29l-.18.6c-.68,2.3-1.61,5.46-3.82,8.3-6.03,7.75-15.07,12.69-22.34,16.66l-.75.41c-4.52,2.47-9.21,3.57-12.99,4.46-.75.18-2.09.42-3.71.42ZM20.46,20.15c-.63,1.18-1.49,5.71.38,13.1,1.67,6.58,5.2,11.39,7.41,13.47,2.19-.54,4.31-1.16,5.97-2.07l.76-.42c5.87-3.21,12.51-6.83,16.07-11.26.19-.43.46-1.37.65-2.01l.07-.23c-.96-.84-3.45-2.03-5.85-2.13h-.05c-1.37,0-4.49.18-6.4.43-1.1.7-2.35,1.18-3.71,1.4-5.27.85-10.24-2.66-11.22-7.9-.02-.13-.05-.27-.07-.4-.18-.97-.77-2.18-1.1-2.42-.17-.06-1.12-.12-2.92.45ZM43.95,19.29s.01.08.02.12c.05.38.08.77.09,1.14,0-.41-.04-.83-.1-1.27Z"/>
          <path class="cls-2" d="M26.97,66.78c-1.66,0-3.62-.26-5.51-1.13-8.46-3.87-16.55-15.22-19.68-27.58C-2.86,19.73,1.73,5.77,13.78,1.64c9.47-3.25,16.08-1.07,19.96,1.33,2.81,1.74,4.86,3.96,6.35,6.22,2.58-.21,5.35-.3,6.48-.26,7.09.26,16.51,3.66,21.54,10.71,3.43,4.8,4.37,10.59,2.65,16.29l-.18.6c-.68,2.3-1.61,5.46-3.82,8.3-6.03,7.75-15.07,12.69-22.34,16.66l-.75.41c-4.52,2.47-9.21,3.57-12.99,4.46-.75.18-2.09.42-3.71.42ZM20.46,20.15c-.63,1.18-1.49,5.71.38,13.1,1.67,6.58,5.2,11.39,7.41,13.47,2.19-.54,4.31-1.16,5.97-2.07l.76-.42c5.87-3.21,12.51-6.83,16.07-11.26.19-.43.46-1.37.65-2.01l.07-.23c-.96-.84-3.45-2.03-5.85-2.13h-.05c-1.37,0-4.49.18-6.4.43-1.1.7-2.35,1.18-3.71,1.4-5.27.85-10.24-2.66-11.22-7.9-.02-.13-.05-.27-.07-.4-.18-.97-.77-2.18-1.1-2.42-.17-.06-1.12-.12-2.92.45ZM43.95,19.29s.01.08.02.12c.05.38.08.77.09,1.14,0-.41-.04-.83-.1-1.27Z"/>
        </g>
        <g>
          <path class="cls-2" d="M30.89,36.02l-15.2-12.48c.53-.65.92-1.43,1.11-2.25l19.16,4.47c-.87,3.74-2.62,7.29-5.06,10.26Z"/>
          <path class="cls-2" d="M23.39,40.58c-2.93,0-5.84-1.16-7.99-3.47-3.35-3.6-3.88-9-1.32-13.17.58-.95,1.09-2.1,1.74-3.97.96-2.78,3.07-5.13,5.76-6.4,2.69-1.27,5.84-1.41,8.64-.37.05.02.11.04.16.06,2.93,1.14,5.17,3.37,6.31,6.27,2.01,5.11-.29,9.89-1.27,11.94l-.09.19c-.08.17-.17.34-.26.5-1.15,2.11-2.58,3.97-4.24,5.51-2.1,1.95-4.77,2.92-7.44,2.92ZM30.82,34.26s0,0,0,0c0,0,0,0,0,0ZM30.83,34.25s0,0,0,0c0,0,0,0,0,0ZM25.16,26.84l-1.78,4.8c2.14.79,4.54.69,6.6-.28.79-.37,1.51-.86,2.14-1.45.06-2.24-.73-4.48-2.33-6.2-3.14-3.36-8.31-3.7-11.84-.9l7.17,3.91,1.68-4.3-1.61,4.34,1.24.68-1.27-.6ZM18.32,26.55c.77,2.03,2.38,4.04,4.9,5.02l1.87-4.78-7.29-3.45c-.07.96.1,2.07.51,3.18l4.15,2.57-4.13-2.53ZM34.39,26.44s-.01.04-.02.06c0-.02.01-.04.02-.06Z"/>
        </g>
        <g>
          <path class="cls-2" d="M25.99,33.01c-1.71-.73-3.51-1.26-5.35-1.57l3.3-19.39c3.36.57,6.65,1.54,9.79,2.88l-7.74,18.09Z"/>
          <path class="cls-2" d="M29.77,34.99c-1.09,0-2.2-.16-3.3-.5l-1.04-.32c-1.96-.61-3.98-1.24-5.78-1.69-.07-.02-.13-.03-.2-.05-5.52-1.52-8.93-6.93-7.95-12.57.99-5.64,6.04-9.57,11.74-9.12.05,0,.11,0,.16.01,4.27.4,8.19,1.57,11.66,3.48,2.62,1.47,4.55,3.91,5.33,6.75.78,2.83.39,5.92-1.08,8.47-2.02,3.52-5.68,5.55-9.55,5.55ZM21.95,27.56c.47,1,1.14,1.91,1.95,2.67,3.47-.63,6.36-3.39,6.99-6.98.52-2.94-.58-5.87-2.67-7.81-1.83.32-3.51,1.23-4.8,2.63l-1.03,3.71-.45,5.78ZM23.27,18.23c-.37.42-.7.89-.99,1.39-1.14,1.97-1.44,4.37-.83,6.58.11.39.24.77.41,1.14l.51-5.45-.29,1.05.3-1.19.11-1.22-.09,1.1.86-3.4Z"/>
        </g>
        <g>
          <rect class="cls-2" x="24" y="25.46" width="19.67" height="9.06" transform="translate(-5.27 7.29) rotate(-11.41)"/>
          <path class="cls-2" d="M34.66,45.33c-4.81,0-9.11-3.13-10.5-7.93-.01-.04-.02-.07-.03-.11-.61-2.2-1.14-4.59-1.66-7.55-.04-.2-.07-.41-.09-.61l-.02-.08c-.31-1.55-1.12-5.67,1.56-9.61,1.66-2.43,4.21-4.06,7.18-4.6.23-.04.45-.07.68-.1,5.25-.56,10.17,2.7,11.68,7.76.01.05.03.1.04.15.9,3.19,1.58,6.53,2.09,10.22.01.08.02.15.03.23.65,5.72-3.12,10.88-8.77,12.01-.74.15-1.48.22-2.21.22ZM26.51,31.5c1.82,2,4.53,3.11,7.37,2.8l-.68-6.35-1.06.07,1.05-.19-.22-2.01c-3.07.62-5.47,2.86-6.46,5.68ZM33.45,27.94l1.12,6.27c2.48-.44,5.5-2.62,6.65-5.59-.36-.4-.75-.77-1.17-1.1l-6.61.42ZM22.33,28.65c0,.07,0,.14.02.21,0-.07-.01-.14-.02-.21ZM33.06,25.81l.36,1.99,5.57-.99c-1.75-1-3.84-1.4-5.93-1Z"/>
        </g>
        <g>
          <path class="cls-2" d="M34.81,40.59l-9.58-17.18c2.55-1.42,5.09-2.94,7.54-4.51l10.62,16.56c-2.79,1.79-5.68,3.52-8.58,5.13Z"/>
          <path class="cls-2" d="M30.15,42.83c-1.5,0-3-.32-4.42-.94-2.66-1.18-4.71-3.33-5.75-6.05-1.7-4.39-.33-9.48,3.36-12.44,3.39-2.76,7.09-4.85,11-6.21,4.67-1.67,9.93.13,12.61,4.34,2.73,4.29,2.05,9.95-1.62,13.45-.04.04-.08.07-.12.11-3.09,2.85-6.75,5.17-10.88,6.9-.08.03-.17.07-.25.1-1.27.49-2.6.74-3.93.74ZM35.53,38.84s0,0,0,0c0,0,0,0,0,0ZM29.97,31.44c.11.22.24.44.37.65,1.65,2.6,4.48,4.1,7.43,4.15,1.26-2.24,1.52-5.01.55-7.5-.82-2.13-2.51-3.9-4.62-4.84-1.18-.53-2.47-.77-3.76-.75-1.01,1.97-1.26,4.25-.71,6.39l.73,1.89ZM41.17,35.64s0,0,0,0t0,0ZM41.18,35.64s0,0,0,0c0,0,0,0,0,0Z"/>
        </g>
        <g>
          <rect class="cls-2" x="39.53" y="23.82" width="8.08" height="19.67" transform="translate(-6.17 57.24) rotate(-63.06)"/>
          <path class="cls-2" d="M41.81,48.01c-2.05,0-4.07-.59-5.88-1.73-.18-.11-.35-.23-.52-.35-3.82-2.77-5.42-7.65-3.97-12.15.02-.07.04-.14.07-.21,1.03-2.99,2.42-5.96,4.23-9.07.04-.07.08-.13.12-.19,3.07-5,9.33-6.76,14.57-4.09,5.23,2.67,7.48,8.77,5.24,14.19-.02.04-.03.07-.05.11-.92,2.15-2.02,4.29-3.38,6.56-.1.16-.2.32-.3.47l-.04.07c-.79,1.35-2.89,4.95-7.53,6.08-.84.21-1.7.31-2.55.31ZM51.81,41.72s-.06.08-.09.12c.03-.04.06-.08.09-.12ZM41.39,37.69s.06.03.09.05c1.48.75,3.09,1.03,4.66.88l-4.33-1.5-.41.57ZM41.81,37.1l4.62,1.48c1.5-.2,2.94-.79,4.15-1.72-.04-1.51-.47-2.97-1.24-4.26l-2.95-1.81-3.39,4.67.78.57-.83-.5-1.14,1.57ZM37.05,32c.53,2.36,2.06,4.48,4.32,5.68l.37-.58-.93-.32.95.3,1.04-1.65-5.74-3.43ZM36.88,30.96l5.97,4.38,3.07-4.85-.59-.36-4.26-1.76c-.43.04-.85.1-1.27.2-1.18.27-2.16.75-2.95,1.29-.01.37,0,.74.04,1.11ZM46.43,30.74l2.75,1.61c-.58-.89-1.32-1.69-2.22-2.34l-.45.62.05.02-.05-.02-.08.12ZM45.53,30.22l.41.24.03-.05-.44-.18ZM45.44,30.16l.54.23.47-.74c-1.53-.97-3.37-1.41-5.22-1.3l4.01,1.72-1-.62,1.21.7Z"/>
        </g>
        <g>
          <path class="cls-2" d="M43.25,39.46c-.98-.56-2.05-.95-3.16-1.16l3.72-19.32c3.22.62,6.29,1.75,9.14,3.37l-9.7,17.11Z"/>
          <path class="cls-2" d="M47.96,41.66c-1.25,0-2.51-.22-3.73-.66-.03-.01-.06-.02-.09-.03-1.55-.59-3.81-1.4-5.37-1.89-.07-.02-.15-.05-.22-.07-5.17-1.76-8.25-7.13-7.17-12.49,1.08-5.36,5.99-9.11,11.45-8.73h0c3.79.27,11.68,2.26,14.73,8.13,1.98,3.81,1.55,8.27-1.11,11.64-.02.02-.04.04-.05.07-2.1,2.61-5.22,4.04-8.44,4.04ZM42.06,37.42s.05,0,.07,0c4.11-.02,7.72-2.94,8.54-7.02.37-1.82.14-3.63-.57-5.23l-2.14,5.66.77.62-.77-.61-.35.92.34-.92-5.21-4.11-1.01,2.97.95-3.02-.44-.35-.09,1.27-.08-1.4-1.06-.84c-1.62,2.05-2.26,4.82-1.7,7.42.52,2.4,1.87,3.94,2.74,4.65ZM42.7,37.41s0,0,0,0c0,0,0,0,0,0ZM42.77,26.65l5.19,4.17,2.11-5.75c-.54-1.18-1.33-2.24-2.33-3.09-1.28.03-2.53.34-3.68.91l-1.28,3.76ZM42.24,26.24l.46.37,1.14-3.61c-.51.27-.99.58-1.44.95l-.16,2.29ZM41.97,24.32c-.32.3-.62.62-.9.97l1,.81-.1-1.77Z"/>
        </g>
        <g>
          <path class="cls-2" d="M24.33,49.92c-.78,0-1.56-.09-2.33-.28-2.77-.67-5.1-2.51-6.41-5.04l-1.61-3.11,2.57-1.33-5.47-4.28,3.89-4.97c2.06-2.64,5.33-4.04,8.66-3.73,1.4.13,2.74.56,3.93,1.23,2.71-.2,5.41.74,7.43,2.63,2.48,2.32,3.59,5.77,2.93,9.1l-1.36,6.85-6.26-1.25.53,1.97c-.29.08-.58.21-.83.39-1.68,1.19-3.67,1.81-5.68,1.81Z"/>
          <path class="cls-2" d="M26.94,55.94c-.8,0-1.61-.09-2.41-.27-2.1-.47-3.93-1.53-5.34-2.96-2.43.06-4.89-.7-6.97-2.33-4.5-3.53-5.49-9.77-2.3-14.51.01-.02.02-.03.03-.05l3.56-5.23c1.68-2.46,4.21-4.12,7.14-4.68,2.62-.5,5.28-.05,7.57,1.26h.06c1.9,0,3.79.49,5.46,1.43,2.59,1.47,4.5,3.97,5.24,6.85.43,1.66.46,3.44.09,5.14l-1.54,6.85c-.64,2.83-2.34,5.25-4.8,6.81-1.76,1.11-3.76,1.69-5.8,1.69Z"/>
        </g>
        <g>
          <path class="cls-2" d="M32.02,57.43c-.58,0-1.21-.04-1.88-.15-4.8-.75-8.55-4.42-9.31-9.12-.4-2.51.18-4.47.4-5.21l1.69-5.69c1.48-5.01,6.62-7.99,11.71-6.78l4.06.97-1.88,7.9c-1.05-.76-2.28-1.29-3.61-1.5-1.19-.19-2.12-.05-2.48.03l1.14,4.26.5-2.09,4.01,1.19-2.22,9.35h-.03s1.68,6.29,1.68,6.29c-.74.2-2.07.55-3.77.55ZM40.09,48.55c.13-.46.44-1.79.16-3.51-.17-1.06-.52-2.05-1.02-2.95l2.55.75-1.69,5.7Z"/>
          <path class="cls-2" d="M31.85,58.59c-1.25,0-2.51-.18-3.7-.54-3.33-1.02-5.98-3.26-7.46-6.3-1.42-2.91-1.62-6.37-.57-9.57.43-1.59,1-3.61,1.69-5.69.02-.06.04-.11.06-.16,1.94-5.54,7.87-8.6,13.51-6.98l4.02,1.17s.09.03.13.04c5.51,1.68,8.78,7.38,7.45,12.98-.51,2.16-1.65,4.03-3.17,5.45-.4,2.68-1.79,5.14-3.95,6.89-2.2,1.77-5.1,2.72-8.01,2.72ZM33.89,56.22h0,0ZM33.91,56.22s0,0,0,0c0,0,0,0,0,0Z"/>
        </g>
        <g>
          <path class="cls-2" d="M34.24,54.11c-3.29-.14-6.49-1.38-9.02-3.49l9.68-11.64-.66,15.12Z"/>
          <path class="cls-2" d="M34.68,54.86c-.12,0-.24,0-.37,0-.03,0-.05,0-.08,0-2.09-.09-4.08-.51-5.94-1.24-1.47-.37-2.86-1.07-4.05-2.09-4.66-4.01-5.23-10.85-1.3-15.58,3.93-4.73,10.76-5.41,15.55-1.56.02.02.04.03.06.05,1.44.57,2.74,1.45,3.83,2.61,1.93,2.06,2.95,4.75,2.85,7.58-.2,5.73-4.9,10.24-10.57,10.24ZM34.31,53.36s.05,0,.07,0c-.02,0-.05,0-.07,0ZM29.46,51.34c3.07.75,6.47-.24,8.61-2.81,2.96-3.55,2.51-8.9-.99-11.91l-.32.37-1.92,3.4-.2,4.64.16-4.57-1.51,2.68,1.52-2.93.03-.99-3.33,3.87-1.57,1.95,2.49-2.55-4.26,4.76-1.33,1.65c.34.58.74,1.11,1.2,1.6.2.21.41.41.63.61.05.02.1.03.15.05l2.91-6.76-2.26,6.95ZM41.81,44.71s0,0,0,0c0,0,0,0,0,0ZM26.46,40.39l3.59,1.01-.98-4.27c-1.1.87-2,1.98-2.61,3.26ZM34.9,39.15l-.04.96,1.2-2.31-1.16,1.34Z"/>
        </g>
        <path class="cls-2" d="M33.36,30.21c-1.53,0-3.06-.36-4.45-1.07-2.63-1.34-4.53-3.79-5.16-6.67-.38-1.71-1.17-4-1.61-4.7.36.57,2.02,2.21,4.85,2.52-.26-.09-.5-.17-.7-.23l1.33-4.83,1.18-14.53c.95.08,1.84.26,2.68.52l.04-.13c.54.15,3.42.98,6.56,2.61,7.44,3.87,9.77,8.92,10.43,12.48.82,4.48-1.54,8.93-5.7,10.77l-5.45,2.41c-1.27.56-2.62.84-3.97.84Z"/>
        <path class="cls-2" d="M31.62,71.94c-7.21,0-12.42-6.2-14.37-8.96-1.75-2.47-2.27-5.61-1.41-8.51.87-2.9,3.02-5.24,5.84-6.35,24.72-9.66,28.02-17.34,28.44-18.78,0,0,0,.01,0,.01,0,0,.05-.2.06-.24,0-.04.02-.15.03-.17,0-.03.01-.13.01-.13h0v-.08s0,0,0,0c0,0,0,0,0-.01-2.13-3.52-1.86-8.05.78-11.3,2.84-3.5,7.71-4.62,11.79-2.71,4.31,2.01,9.41,7.35,11.06,14.75,1.17,5.25,1.05,13.35-6.24,22.1-11.08,13.3-29.58,19.94-35.07,20.34-.31.02-.62.03-.92.03ZM50.75,29.53s0,0,0,0c0,0,0,0,0,0ZM50.75,29.52s0,0,0,0c0,0,0,0,0,0ZM50.75,29.52s0,0,0,0c0,0,0,0,0,0Z"/>
      </g>
      <g>
        <path class="cls-1" d="M26.94,58.26c-.63,0-1.33-.08-1.93-.36-5.16-2.37-12.16-10.85-14.96-21.93-2.58-10.21-2.43-23.21,6.5-26.27,5.07-1.74,9.35-1.56,12.71.52,3.58,2.21,5.17,6.04,5.83,8.36,3.66-1.14,11.1-1.13,11.18-1.13,4.85.17,11.58,2.48,14.91,7.14,1.89,2.64,2.38,5.71,1.42,8.87l-.19.66c-.54,1.83-1.16,3.91-2.38,5.48-4.94,6.35-12.78,10.63-19.69,14.41l-.76.41c-3.5,1.92-7.4,2.83-10.84,3.64-.13.03-.9.2-1.79.2ZM22.94,11.14c-1.67,0-3.53.35-5.55,1.04-4.53,1.55-8.5,8.55-4.81,23.15,2.51,9.91,8.84,18.04,13.51,20.18.36.16,1.31.16,2.03-.01,3.28-.77,6.99-1.64,10.18-3.38l.76-.41c6.69-3.66,14.27-7.8,18.88-13.72.92-1.18,1.46-3,1.93-4.61l.2-.67c.72-2.39.37-4.6-1.05-6.58-2.69-3.76-8.51-5.89-12.87-6.05-1.88-.07-9.13.39-10.73,1.12-.16.42-.54.74-1.01.82-.71.11-1.37-.35-1.5-1.05,0-.03-.01-.07-.02-.1-.08-.49-.99-5.89-5.04-8.4-1.41-.87-3.06-1.3-4.93-1.3Z"/>
        <path class="cls-1" d="M22.46,29.09c1.14-1.87,1.93-3.82,2.64-5.87.24-.7,1.01-1.06,1.7-.81,1.83.72.2,3.81-.37,5.02-.61,1.12-1.38,2.16-2.31,3.02-.44.41-1.13.39-1.54-.06-.34-.37-.38-.91-.13-1.31h0Z"/>
        <path class="cls-1" d="M22.49,20.53c2.72.26,5.44.98,7.84,2.31.6.33.81,1.1.47,1.69-.29.51-.89.73-1.43.56-2.36-.73-4.9-1.54-7.3-2.15-1.43-.39-1.05-2.52.42-2.41h0Z"/>
        <path class="cls-1" d="M34.05,25.33c.82,2.91,1.4,5.88,1.81,8.88.16,1.4-1.87,1.8-2.26.46-.61-2.19-1.06-4.41-1.46-6.64-.07-1.14-1-3.2.69-3.5.55-.06,1.06.29,1.21.8h0Z"/>
        <path class="cls-1" d="M29.5,31.07c2.44-1.99,5.15-3.57,8.12-4.6.85-.33,1.55.79.9,1.41-2.33,2.15-5.07,3.83-7.99,5.04-.55.21-1.17-.06-1.38-.61-.18-.46-.02-.95.35-1.24h0Z"/>
        <path class="cls-1" d="M40.8,36.78c.88-2.55,2.07-4.99,3.43-7.32.85-1.38,2.95-.29,2.34,1.19-.8,1.86-1.74,3.65-2.78,5.38-.62.84-1.27,2.78-2.6,1.93-.38-.28-.52-.76-.39-1.19h0Z"/>
        <path class="cls-1" d="M42.15,27.59c1.32-.07,8.09,1.94,6.58,3.86-.27.34-.73.45-1.12.31-1.73-.65-4.14-1.51-5.88-2.07-1.19-.41-.82-2.19.42-2.1h0Z"/>
        <path class="cls-1" d="M18.08,41.35l3.56-5.23c.41-.6,1.23-.76,1.83-.35.21.15.37.34.47.56l1.55,3.14-1.92-.47c1.34-.91,2.83-1.58,4.39-1.97.65-.19,1.34.19,1.51.85.05.19.05.39,0,.57l-1.54,6.82c-.13.56-.69.92-1.25.79-.55-.12-.89-.65-.8-1.2l1.19-6.89,1.52,1.42c-1.26.37-2.46.97-3.51,1.75-.63.48-1.58.25-1.92-.47,0,0-1.66-3.08-1.66-3.08l2.3.22-4.22,4.71c-.8.87-2.17-.2-1.51-1.18h0Z"/>
        <path class="cls-1" d="M36.16,42.08l-4.11-.77,1.54-.89c-.53,1.98-1.15,3.96-1.77,5.91-.03.11-.02.12-.04.04-.02-.07-.06-.1-.06-.08.31.3.72.15,1.28.14.55-.05,1.04.36,1.09.91.1,1.26-2.06,1.61-3.07,1.31-1.66-.51-2.06-2.09-1.5-3.56.5-1.85,1.03-3.69,1.63-5.51.22-.62.88-.95,1.5-.77l4.01,1.16c1.31.4.84,2.35-.5,2.12h0Z"/>
        <path class="cls-1" d="M32.34,42.05c-.07.26,0,.35.09.43.26.25.54.47.86.65.43.22.91.38,1.41.4.41.01.74.36.72.77s-.36.74-.77.72c-1-.04-2-.24-2.93-.64-.39-.13-.56-.44-1.06-.32-1.31-1.12.33-3.1,1.68-2.02h0Z"/>
        <path class="cls-1" d="M28.89,10.59s9.02,2.49,9.92,7.38l-5.45,2.41s-2.1-9.6-5.36-9.86"/>
        <path class="cls-1" d="M58.63,23.63s11.95,15.96-33.37,33.66c0,0,3.57,5.03,6.56,4.81s18.95-5.68,28.23-16.83c9.28-11.15,1.85-20.11-1.43-21.64Z"/>
      </g>
    </g>
  </g>
</svg>