<?xml version="1.0" encoding="UTF-8"?>
<svg id="Ebene_2" xmlns="http://www.w3.org/2000/svg" viewBox="0 0 90.61 72.34">
  <defs>
    <style>
      .cls-1 {
        fill: #ed5fc5;
      }

      .cls-2 {
        fill: #d9ed8e;
      }

      .cls-3 {
        fill: #d9ed8e;
      }
    </style>
  </defs>
  <g id="Ebene_1-2" data-name="Ebene_1">
    <g id="mail">
      <g>
        <g>
          <g>
            <path class="cls-3" d="M70.88,72.34c-.23,0-.44,0-.64,0l-47.14-.24c-4.14-.02-11.06-.06-16.54-4.91C-.07,61.32-.02,52.35,0,48.04l.15-25.93c.02-2.93.05-8.38,3.61-12.94C8.26,3.42,15.32,2.74,18.34,2.45h0c7.34-.7,14.44-.51,21.31-.33,1.14.03,2.28.06,3.43.09,3.42.08,7.06-.48,10.92-1.07,2.23-.34,4.54-.69,6.94-.94,10.12-1.06,18.61,2.02,23.3,8.43,3.81,5.21,4.2,11.3,4.46,15.33l1.8,27.95c.19,3.02.56,8.64-2.98,13.52-4.78,6.58-12.7,6.9-16.64,6.9ZM72.37,55.59h0,0ZM18.66,53.55c1,.35,3.62.36,4.53.36l47.14.24c.89.01,1.56-.02,2.07-.05-.02-.4-.04-.78-.06-1.01l-1.8-27.95c-.12-1.81-.31-4.83-.99-5.76-.5-.69-2.93-1.48-6.73-1.08-1.96.2-3.96.51-6.08.83-4.46.68-9.08,1.38-14.09,1.27-1.17-.03-2.33-.06-3.49-.09-6.62-.17-12.87-.34-19.11.25h0c-.74.07-1.29.14-1.69.21-.02.55-.03,1.13-.03,1.44l-.15,25.93c-.02,3.39.23,4.82.47,5.4Z"/>
            <path class="cls-3" d="M70.6,72.33h-.37s-47.13-.24-47.13-.24c-4.14-.02-11.06-.06-16.54-4.91C-.07,61.32-.02,52.35,0,48.04l.15-25.93c.02-2.93.05-8.38,3.61-12.94C8.26,3.41,15.32,2.74,18.34,2.45c3.56-.34,7.28-.5,11.7-.5,3.24,0,6.47.09,9.6.17,1.14.03,2.29.06,3.44.09.23,0,.45,0,.66,0,3.23,0,6.65-.52,10.27-1.07,2.23-.34,4.54-.69,6.93-.94C62.23.07,63.53,0,64.79,0,73.26,0,80.16,3.07,84.24,8.64c3.81,5.21,4.2,11.3,4.46,15.33l1.8,27.95c.19,3.02.56,8.64-2.98,13.52-5.01,6.9-13.65,6.9-16.91,6.9ZM19.15,53.05c.72.16,2.08.25,4.05.25l47.42.24c.44,0,.82,0,1.14-.02,0-.12-.01-.26-.02-.4l-1.8-27.95c-.1-1.51-.3-4.64-.87-5.44-.22-.31-1.56-.94-4.28-.94-.61,0-1.26.03-1.91.1-1.96.2-4.04.52-6.05.83-4.27.65-9.17,1.4-14.21,1.28-1.16-.03-2.32-.06-3.48-.09-3-.08-6.11-.16-9.12-.16-3.81,0-6.96.13-9.92.41-.46.04-.85.09-1.16.13,0,.27-.01.58-.01.92l-.15,25.93c-.02,2.83.16,4.22.35,4.9Z"/>
          </g>
          <path class="cls-3" d="M45.36,47.2c-.29,0-.59,0-.88-.02-6.74-.34-11.53-4.48-14.71-7.22-7.53-6.49-15.47-12.69-23.61-18.41l10.47-14.88c8.63,6.07,17.04,12.64,25.02,19.52.95.82,2.88,2.48,3.76,2.8.22-.05.79-.24,1.87-.86,5.38-3.1,9.74-8.47,14.36-14.15,2.15-2.64,4.37-5.37,6.79-8l13.38,12.32c-2.04,2.22-3.99,4.62-6.06,7.16-5.45,6.71-11.1,13.64-19.38,18.42-3.86,2.23-7.47,3.32-11.01,3.32Z"/>
          <rect class="cls-3" x="5.92" y="37.17" width="35.24" height="18.19" transform="translate(-26.11 31.13) rotate(-46.08)"/>
          <path class="cls-3" d="M75.28,65.93c-9.09-8.11-17.76-16.87-25.78-26.03l13.69-11.98c7.53,8.6,15.67,16.83,24.2,24.44l-12.11,13.57Z"/>
        </g>
        <g>
          <path class="cls-1" d="M19.2,11.51c-3.04.29-6.39.86-8.27,3.26-1.59,2.03-1.67,4.82-1.69,7.39-.05,8.64-.1,17.29-.15,25.93-.03,4.4.19,9.37,3.49,12.29,2.78,2.46,6.85,2.61,10.56,2.63,15.71.08,31.42.16,47.14.24,3.59.02,7.76-.24,9.87-3.15,1.54-2.12,1.44-4.98,1.27-7.59-.6-9.32-1.2-18.63-1.8-27.95-.24-3.68-.55-7.57-2.72-10.55-3.25-4.44-9.55-5.33-15.02-4.76-6.35.66-12.6,2.2-19.01,2.06-7.95-.18-15.72-.55-23.67.2Z"/>
          <path class="cls-2" d="M45.35,39.32c-.16,0-.31,0-.47-.01-4.04-.21-7.32-3.04-9.96-5.31-7.72-6.66-15.87-13.02-24.22-18.89l1.4-1.98c8.41,5.92,16.63,12.33,24.41,19.04,2.48,2.14,5.29,4.56,8.5,4.73,1.8.09,3.78-.52,6.21-1.93,6.64-3.83,11.45-9.74,16.53-16,2.07-2.55,4.22-5.18,6.48-7.64l1.78,1.64c-2.21,2.4-4.33,5-6.38,7.52-5,6.15-10.18,12.52-17.2,16.57-1.71.98-4.26,2.26-7.08,2.26Z"/>
          <rect class="cls-2" x="6.76" y="46.5" width="35.24" height="2.43" transform="translate(-22.61 21.96) rotate(-34.21)"/>
          <path class="cls-2" d="M80.12,61.4c-9.72-6.8-19.1-14.28-27.9-22.22l1.62-1.8c8.73,7.87,18.04,15.28,27.67,22.03l-1.39,1.99Z"/>
        </g>
      </g>
      <path class="cls-3" d="M54.6,36.38c.02,1.7-.75,3.22-1.42,4.35-.83,1.4-1.8,2.72-2.88,3.92-.77.87-1.74,1.77-3.1,1.97-.18.03-.36.04-.53.04-1.59,0-2.89-1.01-3.71-1.65-1.61-1.25-3.63-2.82-4.67-5.07-.7-1.51-.77-3.03-.22-4.27.8-1.78,2.91-2.85,5.04-2.52.78.11,1.49.55,2.18.97.36.22.94.58,1.21.63.1-.1.24-.34.35-.5.28-.45.63-1.01,1.2-1.4,1.13-.8,2.39-1.06,3.54-.75.98.26,1.73.9,2.24,1.69.5.79.77,1.73.77,2.59Z"/>
    </g>
  </g>
</svg>