<?xml version="1.0" encoding="UTF-8"?>
<svg id="Ebene_2" xmlns="http://www.w3.org/2000/svg" viewBox="0 0 65.79 84.18">
  <defs>
    <style>
      .cls-1 {
        fill: #ed5fc5;
      }

      .cls-2 {
        fill: #d9ed8e;
      }
    </style>
  </defs>
  <g id="Ebene_1-2" data-name="Ebene_1">
    <g id="matcha">
      <g>
        <path class="cls-1" d="M14.92,64.31c.22,2.87.58,6.04,2.7,7.99,2.06,1.89,5.14,2.03,7.94,2.06,6.21.08,12.43.15,18.64.23,1.95.02,4.11-.03,5.53-1.37,1.46-1.37,1.61-3.59,1.67-5.59.39-12.62.77-25.24,1.16-37.87.05-1.69-1.27-3.1-2.96-3.18-11.93-.55-23.91-.06-35.76,1.46-3.93.5-.79,12.22-.51,15.78.53,6.83,1.05,13.65,1.58,20.48Z"/>
        <path class="cls-1" d="M26.02,45.64c4.41.24,8.64,1.72,12.96,2.61s9.04,1.13,12.94-.94c-.32,6.59-.63,13.19-.95,19.78-.11,2.31-.32,4.85-1.98,6.46-1.65,1.61-4.2,1.76-6.51,1.77-6.17.02-12.35-.28-18.49-.89-2.34-.23-4.86-.6-6.52-2.26-1.05-1.05-1.6-2.48-2.05-3.89-1.61-5.1-2.81-12.16-1.21-17.42,1.32-4.34,7.83-5.44,11.8-5.22Z"/>
        <path class="cls-1" d="M29.68,52.29c1.44-2.34,13.92-43.44,13.92-43.44l13.32,5.56"/>
        <rect class="cls-1" x="22.85" y="45.32" width="6.73" height="6.73" transform="translate(-19.69 17.86) rotate(-27.82)"/>
        <polygon class="cls-1" points="32.14 46.41 30.76 50.09 27.62 44.14 29.46 40.8 32.14 46.41"/>
        <polygon class="cls-1" points="27.62 44.14 21.67 47.28 23.49 43.53 29.24 40.92 27.62 44.14"/>
        <rect class="cls-1" x="34.53" y="43.6" width="6.73" height="6.73" transform="translate(-18.75 26.15) rotate(-30.92)"/>
        <polygon class="cls-1" points="32.1 49.56 33.28 45.81 36.74 51.58 35.08 55.01 32.1 49.56"/>
        <polygon class="cls-1" points="36.74 51.58 42.51 48.13 40.89 51.97 35.29 54.89 36.74 51.58"/>
        <path class="cls-1" d="M8.85,27.26c13.77-.35,27.53-.71,41.3-1.06,2.21-.06,4.7-.26,6.48-1.35.55-.34.3-1.15-.35-1.12-3.39.14-10.16-.44-11.35-.44-4.64,0-9.29.03-13.93.08-5.61.06-19.23-2.3-22.15,3.88Z"/>
      </g>
      <g>
        <path class="cls-1" d="M44.88,83.45c-.29,0-.55,0-.79,0l-18.64-.23c-3.2-.04-9.14-.11-13.81-4.39-4.82-4.42-5.29-10.54-5.55-13.83h0s-1.58-20.48-1.58-20.48c-.03-.4-.25-1.66-.4-2.58-1.07-6.29-2.28-13.42,1.44-18.45,1.74-2.35,4.29-3.85,7.17-4.22,12.32-1.58,24.87-2.1,37.29-1.52,6.49.3,11.6,5.81,11.4,12.29l-1.16,37.86c-.07,2.34-.24,7.8-4.46,11.77-3.71,3.49-8.25,3.77-10.92,3.77ZM23.93,65.46c.66.05,1.41.05,1.74.06l16.94.21.93-30.47c-7.48-.13-14.99.17-22.44.89.16,1.1.34,2.15.46,2.84.27,1.6.51,2.98.6,4.17l1.58,20.48c.03.35.09,1.14.18,1.83Z"/>
        <path class="cls-1" d="M41.93,84.18c-6.26,0-12.59-.32-18.82-.94-2.56-.26-7.88-.79-11.9-4.82-2.42-2.43-3.53-5.28-4.23-7.49-1.54-4.9-3.75-14.37-1.23-22.65,2.61-8.57,12.31-11.94,20.75-11.48,3.83.21,7.35,1.09,10.46,1.88,1.33.33,2.59.65,3.8.9,4.08.84,6.07.42,7.01-.08,2.81-1.49,6.2-1.36,8.89.35,2.69,1.7,4.25,4.72,4.1,7.9l-.95,19.79c-.13,2.67-.4,8.24-4.64,12.38-4.36,4.25-10.18,4.27-12.66,4.28-.19,0-.39,0-.58,0ZM23.84,65.5c.27.04.61.08,1.04.12,5.72.57,11.52.84,17.27.85l.42-8.8c-1.71-.12-3.49-.37-5.36-.76-1.59-.33-3.1-.71-4.55-1.07-2.56-.64-4.98-1.25-7.11-1.37h0c-1.15-.06-2.33.1-3.12.3-.33,2.7.19,6.76,1.42,10.72Z"/>
        <path class="cls-1" d="M29.68,61.14c-1.58,0-3.18-.42-4.63-1.31-3.98-2.45-5.34-7.54-3.22-11.62,1.33-3.19,7.76-23.66,13.31-41.93.73-2.39,2.43-4.37,4.7-5.43,2.26-1.07,4.87-1.13,7.18-.16l13.32,5.56c4.51,1.88,6.64,7.07,4.76,11.58-1.88,4.51-7.06,6.64-11.58,4.76l-4.3-1.79c-10.17,33.18-11.39,35.15-12,36.14-1.67,2.72-4.57,4.21-7.55,4.21ZM22.15,47.65s0,0,0,0c0,0,0,0,0,0Z"/>
        <path class="cls-1" d="M24.81,62.08c-3.18,0-6.25-1.72-7.84-4.72l-3.14-5.95c-2.28-4.32-.62-9.68,3.7-11.96l5.95-3.14c2.08-1.1,4.5-1.32,6.75-.63,2.24.69,4.12,2.25,5.21,4.33l3.14,5.95c1.1,2.08,1.32,4.5.63,6.75-.69,2.24-2.25,4.12-4.33,5.21l-5.95,3.14c-1.32.69-2.73,1.02-4.12,1.02Z"/>
        <path class="cls-1" d="M30.76,58.94c-3.27,0-6.29-1.81-7.83-4.72l-3.14-5.95c-1.39-2.64-1.36-5.8.08-8.41l1.84-3.33c1.6-2.9,4.68-4.66,8-4.57,3.31.1,6.3,2.03,7.73,5.02l2.69,5.61c1.04,2.18,1.15,4.69.3,6.95l-1.39,3.68c-1.23,3.26-4.25,5.49-7.73,5.71-.19.01-.37.02-.56.02Z"/>
        <path class="cls-1" d="M21.67,56.13c-2.25,0-4.47-.85-6.16-2.49-2.75-2.66-3.48-6.79-1.8-10.24l1.83-3.75c.9-1.85,2.42-3.33,4.3-4.18l5.75-2.61c3.42-1.55,7.45-.78,10.05,1.93,2.6,2.71,3.21,6.77,1.51,10.12l-1.63,3.22c-.83,1.64-2.15,2.98-3.77,3.84l-5.95,3.14c-1.3.69-2.72,1.02-4.13,1.02Z"/>
        <path class="cls-1" d="M36.75,60.44c-3.01,0-5.94-1.54-7.6-4.3l-3.46-5.77c-2.51-4.19-1.15-9.63,3.04-12.14l5.77-3.46c4.2-2.51,9.63-1.15,12.14,3.04l3.46,5.77c2.51,4.19,1.15,9.63-3.04,12.14l-5.77,3.46c-1.42.85-2.99,1.26-4.54,1.26Z"/>
        <path class="cls-1" d="M35.08,63.86c-3.23,0-6.21-1.76-7.76-4.6l-2.99-5.45c-1.16-2.12-1.4-4.62-.68-6.92l1.19-3.75c1.05-3.32,3.95-5.72,7.41-6.12,3.46-.41,6.83,1.26,8.62,4.24l3.46,5.77c1.53,2.56,1.67,5.72.38,8.4l-1.66,3.43c-1.44,2.98-4.43,4.91-7.74,5-.08,0-.15,0-.23,0Z"/>
        <path class="cls-1" d="M35.29,63.74c-2.2,0-4.37-.82-6.05-2.39-2.74-2.57-3.57-6.58-2.06-10.02l1.45-3.3c.74-1.68,1.98-3.09,3.56-4.03l5.77-3.46c3.29-1.97,7.46-1.6,10.35.91,2.89,2.51,3.84,6.59,2.35,10.12l-1.62,3.84c-.8,1.9-2.24,3.46-4.06,4.41l-5.6,2.92c-1.29.67-2.7,1-4.09,1Z"/>
        <path class="cls-1" d="M8.85,36.11c-2.99,0-5.78-1.51-7.41-4.02-1.68-2.57-1.9-5.83-.59-8.61,4.89-10.36,18.44-9.57,26.53-9.1,1.4.08,2.71.16,3.52.15,4.69-.05,9.41-.08,14.03-.08.62,0,1.38.04,3.05.15,2.27.14,6.07.37,7.94.3,4.34-.17,8.21,2.58,9.46,6.7,1.25,4.11-.45,8.56-4.12,10.81-3.55,2.18-7.49,2.56-10.88,2.65l-41.3,1.06c-.08,0-.15,0-.23,0Z"/>
      </g>
      <g>
        <path class="cls-2" d="M44.71,75.91c-.17,0-.35,0-.52,0l-18.64-.23c-2.49-.03-6.26-.08-8.81-2.41-2.42-2.22-2.87-5.59-3.13-8.86l-1.58-20.48c-.06-.73-.25-1.9-.48-3.26-.95-5.61-1.6-10.44.07-12.7.52-.7,1.23-1.12,2.07-1.23,11.89-1.53,24-2.02,35.99-1.47,2.4.11,4.28,2.14,4.21,4.53l-1.16,37.87c-.05,1.75-.14,4.68-2.09,6.5-1.61,1.52-3.79,1.73-5.93,1.73ZM16.23,64.21c.22,2.85.56,5.54,2.28,7.12,1.67,1.53,4.29,1.69,7.07,1.72l18.64.23c1.84.03,3.58-.04,4.62-1.01,1.06-1,1.21-2.86,1.26-4.67l1.16-37.87c.03-.96-.74-1.79-1.71-1.83-11.83-.54-23.79-.06-35.53,1.45-.11.01-.19.05-.3.19-1.14,1.54-.13,7.5.41,10.7.24,1.42.45,2.64.51,3.49l1.58,20.48Z"/>
        <path class="cls-2" d="M26.02,45.64c4.41.24,8.64,1.72,12.96,2.61s9.04,1.13,12.94-.94c-.32,6.59-.63,13.19-.95,19.78-.11,2.31-.32,4.85-1.98,6.46-1.65,1.61-4.2,1.76-6.51,1.77-6.17.02-12.35-.28-18.49-.89-2.34-.23-4.86-.6-6.52-2.26-1.05-1.05-1.6-2.48-2.05-3.89-1.61-5.1-2.81-12.16-1.21-17.42,1.32-4.34,7.83-5.44,11.8-5.22Z"/>
        <path class="cls-2" d="M30.8,52.98l-2.23-1.37,1.12.69-1.12-.68c1.03-1.76,9.01-27.39,13.79-43.14.11-.35.36-.65.7-.81.34-.16.72-.17,1.06-.02l13.32,5.56-1.01,2.42-11.98-5c-2.81,9.22-12.26,40.12-13.64,42.36Z"/>
        <g>
          <rect class="cls-2" x="22.85" y="45.32" width="6.73" height="6.73" transform="translate(-19.69 17.86) rotate(-27.82)"/>
          <path class="cls-2" d="M24.81,54.41c-.42,0-.83-.23-1.05-.63l-3.14-5.95c-.3-.58-.08-1.29.49-1.59l5.95-3.14c.28-.15.6-.18.9-.08s.55.3.7.58l3.14,5.95c.15.28.18.6.08.9-.09.3-.3.55-.58.69l-5.95,3.14c-.18.09-.36.14-.55.14ZM23.26,47.77l2.04,3.86,3.86-2.04-2.04-3.86-3.86,2.04Z"/>
        </g>
        <g>
          <polygon class="cls-1" points="32.14 46.41 30.76 50.09 27.62 44.14 29.46 40.8 32.14 46.41"/>
          <path class="cls-2" d="M30.76,50.98c-.33,0-.63-.18-.78-.47l-3.14-5.95c-.14-.26-.14-.58,0-.84l1.84-3.33c.16-.29.45-.46.8-.46.33,0,.63.2.77.5l2.69,5.61c.1.22.11.47.03.69l-1.39,3.68c-.12.33-.43.55-.77.57-.02,0-.04,0-.06,0ZM28.62,44.15l2,3.79.56-1.49-1.78-3.72-.78,1.41Z"/>
        </g>
        <g>
          <polygon class="cls-1" points="27.62 44.14 21.67 47.28 23.49 43.53 29.24 40.92 27.62 44.14"/>
          <path class="cls-2" d="M21.67,48.46c-.3,0-.6-.11-.82-.33-.37-.36-.46-.91-.24-1.36l1.83-3.75c.12-.25.32-.44.57-.56l5.75-2.61c.46-.21.99-.1,1.34.26.35.36.43.9.2,1.35l-1.63,3.22c-.11.22-.29.4-.5.51l-5.95,3.14c-.17.09-.36.14-.55.14ZM24.37,44.43l-.06.12,1.29-.68-1.23.56Z"/>
        </g>
        <g>
          <rect class="cls-2" x="34.53" y="43.6" width="6.73" height="6.73" transform="translate(-18.75 26.15) rotate(-30.92)"/>
          <path class="cls-2" d="M36.74,52.76c-.4,0-.79-.2-1.01-.57l-3.46-5.77c-.33-.56-.15-1.28.41-1.62l5.77-3.46c.56-.34,1.28-.15,1.62.41l3.46,5.77c.33.56.15,1.28-.41,1.62l-5.77,3.46c-.19.11-.4.17-.61.17ZM34.9,46.22l2.25,3.75,3.75-2.25-2.25-3.75-3.75,2.25Z"/>
        </g>
        <g>
          <polygon class="cls-1" points="32.1 49.56 33.28 45.81 36.74 51.58 35.08 55.01 32.1 49.56"/>
          <path class="cls-2" d="M35.08,55.9c-.32,0-.62-.18-.78-.46l-2.99-5.45c-.12-.21-.14-.46-.07-.69l1.19-3.75c.11-.33.4-.57.74-.61.35-.04.68.13.86.42l3.46,5.77c.15.26.17.57.04.84l-1.66,3.43c-.14.3-.44.49-.77.5h-.02ZM33.05,49.47l1.98,3.61.7-1.45-2.2-3.68-.48,1.51Z"/>
        </g>
        <g>
          <polygon class="cls-1" points="36.74 51.58 42.51 48.13 40.89 51.97 35.29 54.89 36.74 51.58"/>
          <path class="cls-2" d="M35.29,55.77c-.22,0-.44-.08-.6-.24-.27-.26-.36-.66-.21-1l1.45-3.3c.07-.17.2-.31.36-.4l5.77-3.46c.33-.2.75-.16,1.03.09.29.25.38.66.24,1.01l-1.62,3.84c-.08.19-.22.35-.41.44l-5.6,2.92c-.13.07-.27.1-.41.1ZM37.44,52.2l-.33.74,3.09-1.61.44-1.05-3.21,1.92Z"/>
        </g>
        <path class="cls-2" d="M8.85,28.57c-.44,0-.86-.22-1.1-.6-.25-.38-.28-.86-.09-1.28,2.72-5.76,12.29-5.2,19.28-4.8,1.6.09,2.99.17,4.04.16,4.67-.05,9.36-.08,13.95-.08.41,0,1.32.06,2.58.13,2.57.16,6.46.4,8.71.31.93-.04,1.68.51,1.94,1.36.26.84-.08,1.72-.85,2.19-2.04,1.25-4.75,1.48-7.13,1.54l-41.3,1.06s-.02,0-.03,0ZM20.87,24.3c-3.39,0-6.78.32-8.93,1.57l38.06-.98c-.95-.05-1.85-.11-2.63-.16-1.12-.07-2.09-.13-2.42-.13-4.58,0-9.26.03-13.92.08-1.17,0-2.58-.07-4.22-.17-1.79-.1-3.86-.22-5.92-.22Z"/>
      </g>
    </g>
  </g>
</svg>