<?xml version="1.0" encoding="UTF-8"?>
<svg id="Ebene_2" xmlns="http://www.w3.org/2000/svg" viewBox="0 0 76.29 76.6">
  <defs>
    <style>
      .cls-1 {
        fill: #ed5fc5;
      }

      .cls-2 {
        fill: #d9ed8e;
      }
    </style>
  </defs>
  <g id="Ebene_1-2" data-name="Ebene_1">
    <g>
      <g>
        <g>
          <path class="cls-2" d="M38.2,76.6c-7.43,0-13.95-1.6-19.39-4.74-6.22-3.6-11.21-8.45-14.44-14.03C.45,51.06,0,43.44,0,38.29c0-5.68.49-13.05,4.27-19.6,3.93-6.79,10.3-11,14.76-13.58C24.9,1.72,31.35,0,38.2,0c7.36,0,13.87,1.61,19.36,4.78,5.4,3.12,9.87,7.84,13.68,14.43,3.36,5.8,5.06,12.22,5.06,19.08s-1.69,13.33-5.03,19.1c-3.45,5.96-8.13,10.68-13.93,14.03-5.94,3.44-12.38,5.18-19.14,5.18ZM38.2,19.6c-3.4,0-6.46.81-9.35,2.48-2.51,1.45-6.03,3.7-7.61,6.43-1.45,2.51-1.64,6.55-1.64,9.78,0,4.59.55,7.68,1.73,9.73,1.49,2.58,4.08,5.02,7.29,6.88,2.42,1.4,5.64,2.11,9.57,2.11,3.31,0,6.36-.83,9.32-2.54,2.83-1.64,5.04-3.89,6.78-6.88,1.61-2.79,2.4-5.82,2.4-9.28s-.79-6.45-2.42-9.27c-2.05-3.54-4.18-5.92-6.53-7.28-2.46-1.42-5.67-2.15-9.54-2.15Z"/>
          <path class="cls-2" d="M38.2,76.6c-7.43,0-13.95-1.6-19.39-4.74-6.22-3.6-11.21-8.45-14.44-14.03C.45,51.06,0,43.44,0,38.29c0-5.68.49-13.05,4.27-19.6,3.93-6.79,10.3-11,14.76-13.58C24.9,1.72,31.35,0,38.2,0c7.36,0,13.87,1.61,19.36,4.78,5.4,3.12,9.87,7.84,13.68,14.43,3.36,5.8,5.06,12.22,5.06,19.08s-1.69,13.33-5.03,19.1c-3.45,5.96-8.13,10.68-13.93,14.03-5.94,3.44-12.38,5.18-19.14,5.18ZM38.2,19.6c-3.4,0-6.46.81-9.35,2.48-2.51,1.45-6.03,3.7-7.61,6.43-1.45,2.51-1.64,6.55-1.64,9.78,0,4.59.55,7.68,1.73,9.73,1.49,2.58,4.08,5.02,7.29,6.88,2.42,1.4,5.64,2.11,9.57,2.11,3.31,0,6.36-.83,9.32-2.54,2.83-1.64,5.04-3.89,6.78-6.88,1.61-2.79,2.4-5.82,2.4-9.28s-.79-6.45-2.42-9.27c-2.05-3.54-4.18-5.92-6.53-7.28-2.46-1.42-5.67-2.15-9.54-2.15Z"/>
        </g>
        <path class="cls-2" d="M29.04,54.24c-1.53,0-3.04-.13-4.51-.39-6.67-1.19-11.95-4.92-14.87-10.5-3.89-7.41-3.42-16.44,1.24-24.15,4.73-7.81,12.62-12.48,21.13-12.48,13.12,0,23.02,10.23,23.02,23.79,0,10.09-7.49,18.01-14.91,21.38-3.41,1.55-7.28,2.36-11.09,2.36ZM32.03,26.32c-1.54,0-3.25,1.19-4.36,3.02-.8,1.32-1.45,3.4-.66,4.91.51.44,3.02.7,5.01-.21,2.1-.96,3.41-2.92,3.42-3.53,0-1.91-.59-4.19-3.42-4.19Z"/>
        <path class="cls-2" d="M30.7,48.07c-1.25,0-2.6-.13-4.06-.44-5.83-1.23-8.95-4.32-10.55-6.71-2.35-3.52-3.11-7.7-2.12-11.79.25-1.05.62-2.07,1.08-3.03l-1.61-1.34,2.63-.7c.04-.8.16-1.58.34-2.35.96-4.02,3.59-7.25,7.41-9.09,3.24-1.56,6.9-1.85,10.88-.86,3.89.97,6.95,2.87,9.1,5.66,2.48,3.21,3.45,7.1,2.74,10.97-.16.86-.4,1.7-.73,2.53.07.44.12.88.15,1.32l2.04,1.97-2.07.36c-.04.47-.11.95-.19,1.42-.76,4.21-3.26,7.75-7.01,9.96-1.78,1.05-4.47,2.11-8.03,2.11ZM29.99,30.79c.34.04,1.27.02,2.35-.5.05-.03.11-.05.16-.08-.04-.06-.07-.12-.11-.18-.62-.92-1.35-1.39-1.72-1.55-.35,0-1.08.12-1.88.6-.17.1-.33.21-.49.34,0,0,0,0,0,0,.66.86,1.4,1.27,1.69,1.38ZM32.4,30.04h0s0,0,0,0ZM30.81,28.48h0,0Z"/>
      </g>
      <g>
        <g>
          <path class="cls-1" d="M66.49,38.29c0,5.25-1.26,9.95-3.71,14.19s-5.98,7.93-10.35,10.46c-4.24,2.45-8.98,3.86-14.23,3.86s-10.24-.97-14.48-3.42-8.33-6.08-10.86-10.45-3.05-9.38-3.05-14.63.5-10.45,2.96-14.69c2.53-4.37,6.81-7.47,11.19-10s9-3.8,14.25-3.8,10.21,1.01,14.45,3.46c4.37,2.53,7.58,6.48,10.11,10.85,2.45,4.24,3.74,8.92,3.74,14.18Z"/>
          <path class="cls-1" d="M66.49,38.29c0,5.25-1.26,9.95-3.71,14.19s-5.98,7.93-10.35,10.46c-4.24,2.45-8.98,3.86-14.23,3.86s-10.24-.97-14.48-3.42-8.33-6.08-10.86-10.45-3.05-9.38-3.05-14.63.5-10.45,2.96-14.69c2.53-4.37,6.81-7.47,11.19-10s9-3.8,14.25-3.8,10.21,1.01,14.45,3.46c4.37,2.53,7.58,6.48,10.11,10.85,2.45,4.24,3.74,8.92,3.74,14.18Z"/>
        </g>
        <path class="cls-2" d="M45.25,30.51c0,5.39-4.47,10.32-9.17,12.46-5.8,2.63-14.48,2.06-17.74-4.16-4.91-9.36,3.08-22.28,13.69-22.28,8.23,0,13.22,6.36,13.22,13.99Z"/>
        <path class="cls-1" d="M24.24,35.48c-.84-1.26-1.09-2.6-.74-4.04.23-.94.67-1.74,1.32-2.39s1.46-1.05,2.43-1.21c-.75-.72-1.19-1.42-1.31-2.08s-.12-1.25,0-1.76c.27-1.14.98-1.98,2.13-2.53s2.56-.6,4.27-.18,2.93,1.13,3.71,2.14,1.06,2.07.86,3.2c-.09.51-.32,1.03-.68,1.56s-1,.93-1.93,1.17c.77.64,1.31,1.38,1.61,2.22s.36,1.73.19,2.66c-.26,1.41-1.04,2.51-2.35,3.28s-3.03.96-5.11.53-3.57-1.3-4.41-2.57ZM27.33,32.06c-.19.83-.09,1.53.27,2.1s.97.94,1.8,1.12,1.52.09,2.08-.28.91-.95,1.08-1.78.06-1.54-.31-2.08-.95-.9-1.74-1.08-1.47-.11-2.03.22-.95.92-1.14,1.78ZM29.49,26.69c.31.46.82.77,1.52.93s1.29.11,1.75-.17.74-.7.85-1.27c.12-.62.03-1.14-.27-1.58s-.8-.74-1.5-.91-1.26-.12-1.73.13-.77.69-.91,1.31c-.13.57-.03,1.09.29,1.55Z"/>
      </g>
    </g>
  </g>
</svg>