<?xml version="1.0" encoding="UTF-8"?>
<svg id="Ebene_2" xmlns="http://www.w3.org/2000/svg" viewBox="0 0 76.63 76.75">
  <defs>
    <style>
      .cls-1 {
        fill: #ed5fc5;
      }

      .cls-2 {
        fill: #d9ed8e;
      }

      .cls-3 {
        fill: #d9ed8e;
      }
    </style>
  </defs>
  <g id="Ebene_1-2" data-name="Ebene_1">
    <g>
      <g>
        <g>
          <path class="cls-1" d="M38.41,75.45c-6.85,0-13.31-1.64-18.68-4.75-5.6-3.24-10.31-7.97-13.61-13.69-3.2-5.52-4.88-11.97-4.88-18.66s1.69-13.12,4.89-18.65c3.06-5.3,7.72-9.77,13.83-13.31,6.01-3.48,12.22-5.24,18.46-5.24,6.63,0,13.08,1.7,18.65,4.92,5.61,3.25,10.32,7.97,13.61,13.65,3.1,5.36,4.74,11.81,4.74,18.63s-1.61,13.39-4.67,18.67c-3.2,5.53-7.94,10.22-13.71,13.55-5.5,3.18-11.94,4.86-18.62,4.86ZM38.41,20.76c-2.75,0-5.66.88-8.65,2.6-3.1,1.8-5.35,3.87-6.68,6.16-1.48,2.55-2.26,5.61-2.26,8.84s.78,6.3,2.25,8.84c1.57,2.71,3.86,5.03,6.46,6.54,2.39,1.38,5.46,2.12,8.87,2.12s6.28-.77,8.8-2.23c2.77-1.6,5.1-3.88,6.56-6.4,1.33-2.3,2.03-5.36,2.03-8.86s-.73-6.43-2.11-8.82c-1.55-2.68-3.84-4.98-6.46-6.5-2.59-1.5-5.64-2.29-8.83-2.29Z"/>
          <path class="cls-1" d="M38.26,76.75c-4.88,0-9.77-.87-14.34-2.62l-.09-.04C9.59,68.5-.19,53.84,0,38.41c-.03-10.72,4.22-20.71,11.65-27.41C23.51.17,39.01-2.89,53.06,2.84c14.34,5.76,23.81,20.03,23.56,35.53.22,15.78-8.75,29.37-23.46,35.52l-.14.06c-4.67,1.87-9.72,2.8-14.77,2.8ZM31.85,53.41c4.14,1.54,8.94,1.54,12.89,0,6.47-2.74,9.96-8.02,9.84-14.88v-.21s0-.21,0-.21c.17-6.5-3.77-12.52-9.8-14.97-3.99-1.64-8.53-1.6-12.18.09l-.21.09c-3.91,1.71-10.45,5.93-10.33,15v.13s0,.13,0,.13c-.09,6.34,4.03,12.57,9.78,14.83Z"/>
        </g>
        <g>
          <path class="cls-1" d="M31.98,46.16c-.2,0-.4,0-.61-.02-7.13-.37-11.97-7.15-11.5-16.1.15-2.9.84-5.63,2-7.91,2.33-4.57,6.5-7.15,11.12-6.91,7.13.37,11.97,7.15,11.5,16.1h0c-.46,8.7-5.68,14.83-12.51,14.83ZM25.02,30.31c.57,1.49,2.93,4.28,6.94,4.49,4.01.21,6.65-2.32,7.37-3.74-.57-1.49-2.93-4.28-6.94-4.49-4.03-.21-6.65,2.32-7.37,3.74l9.68.51-9.68-.51ZM39.45,31.48h0ZM24.91,29.9h0s0,0,0,0Z"/>
          <path class="cls-1" d="M45.46,46.16c-4.39,0-8.29-2.55-10.52-6.92-1.16-2.28-1.85-5.01-2-7.91-.47-8.96,4.37-15.73,11.5-16.1,4.64-.24,8.79,2.34,11.12,6.9,1.16,2.28,1.85,5.01,2,7.91.47,8.96-4.37,15.73-11.5,16.1-.2.01-.4.02-.6.02ZM38.1,31.06c.72,1.42,3.38,3.96,7.37,3.74,4.01-.21,6.37-3,6.94-4.49-.72-1.42-3.37-3.95-7.37-3.74-4.01.21-6.37,3-6.94,4.49ZM37.98,31.48h0ZM52.52,29.9h0s0,0,0,0Z"/>
        </g>
        <path class="cls-1" d="M40.14,66.77c-1.11,0-2.26-.07-3.45-.23-16.12-2.14-23.53-15.14-25.36-22.48l19.02-4.75-.04-.15c.21.72,2.2,7.05,8.96,7.95,5.18.69,7.85-7.99,7.88-8.08l18.87,5.31c-2.28,8.11-10.51,22.43-25.88,22.43Z"/>
        <g>
          <path class="cls-1" d="M21.82,51.92l-10.48-16.56c2.38-1.51,6.88-4.17,10.25-5.05l4.95,18.97c.07-.02.15-.04.24-.07-.86.31-3.37,1.71-4.95,2.71Z"/>
          <path class="cls-1" d="M16.64,53.97c-3.49,0-6.86-1.77-8.81-4.92-2.79-4.51-1.75-10.36,2.42-13.62v.02c2.58-2.07,10.2-7.54,16.79-5.51,3.66,1.12,6.4,4.16,7.13,7.92l.1.58c.61,4.54-1.78,8.88-5.95,10.79-.25.11-.61.31-.97.5l-2.64,1.39c-1.16.61-2.36,1.25-3.68,1.86-1.42.67-2.92.99-4.4.99ZM18.31,47.11c.38.29.78.56,1.2.8,1.71.96,3.36,1.19,4.58,1.15,2.18-2.97,2.43-7.05.41-10.32-1.76-2.84-4.82-4.4-7.96-4.37-1.37,1.87-2.01,4.24-1.69,6.67l9.71-1.3-9.5,1.86,1.23,1.57-1.29-1.3c.46,2.07,1.62,3.9,3.27,5.21l-1.38-2.96,1.43,3Z"/>
        </g>
        <g>
          <path class="cls-1" d="M55.46,51.48c-.71-.4-3.31-1.48-5.46-2.26l6.65-18.44c8,2.88,9.89,4.48,10.7,5.17l-12.66,14.96c.44.38.76.56.77.56Z"/>
          <path class="cls-1" d="M61.01,53.73c-1.8,0-3.62-.47-5.25-1.44-.16-.07-.42-.18-.59-.25-.75-.31-1.51-.59-2.27-.88-1.18-.45-2.41-.91-3.68-1.46l-.11-.05c-5.06-2.24-7.53-8.06-5.63-13.25,1.89-5.19,7.53-8.04,12.83-6.51,1.1.32,3.38,1.16,5.41,2.07,3.99,1.78,7.87,4.07,9.19,8.73.97,3.43.12,7.04-2.28,9.67-2.02,2.22-4.81,3.37-7.62,3.37ZM54.13,37.17c-1.86,2.05-2.72,4.81-2.35,7.57.25,1.9,1.03,3.35,1.8,4.34,1.05-.03,2.08-.23,3.04-.6l2.29-5.49-2.23,5.47c.32-.13.64-.27.95-.44l3.06-4.19-2.22,3.69c1.3-.88,2.38-2.1,3.09-3.58l-.18-.16.18.16c.12-.26.23-.52.33-.79,1.15-3.15.43-6.57-1.62-8.98-1.9.15-3.74.88-5.26,2.17l-1.93,4.37,1.83-4.29c-.23.2-.46.42-.67.65l-.66,2.26.63-2.23s-.05.06-.08.09Z"/>
        </g>
      </g>
      <g>
        <g>
          <path class="cls-1" d="M65.61,38.36c0,4.97-1.03,9.75-3.35,13.76-2.39,4.14-6,7.59-10.13,9.98s-8.74,3.55-13.71,3.55-9.76-1.11-13.77-3.43c-4.14-2.39-7.64-5.97-10.04-10.11-2.32-4.01-3.57-8.78-3.57-13.75s1.25-9.73,3.57-13.74,6.11-7.34,10.25-9.73,8.59-3.92,13.55-3.92,9.73,1.29,13.74,3.61,7.64,5.93,10.03,10.07,3.42,8.76,3.42,13.72Z"/>
          <path class="cls-1" d="M66.83,38.36c.22,11.82-6.54,21.93-17.43,26.48-6.99,2.79-14.95,2.81-21.98.13-10.59-4.16-17.78-15.19-17.61-26.52-.04-7.47,2.8-15.12,8.42-20.19,8.6-7.85,20.15-10.84,31.14-6.35,10.66,4.28,17.71,14.96,17.47,26.45h0ZM64.39,38.36c.27-10.55-6.13-20.32-15.9-24.3-6.36-2.62-13.72-2.64-20.01.29-9.99,4.37-16.34,12.98-16.2,24.1-.14,10.31,6.45,20.37,16.08,24.12,6.35,2.39,13.76,2.43,20.09-.08,10.1-4.23,16.13-13.11,15.94-24.12h0Z"/>
        </g>
        <g>
          <ellipse class="cls-1" cx="32.18" cy="30.69" rx="5.68" ry="2.53" transform="translate(-.15 61.22) rotate(-87)"/>
          <ellipse class="cls-1" cx="45.25" cy="30.69" rx="2.53" ry="5.68" transform="translate(-1.54 2.41) rotate(-3)"/>
        </g>
        <path class="cls-1" d="M20.84,41.69s3.33,13.3,17.14,15.14,18.6-15.14,18.6-15.14"/>
        <g>
          <path class="cls-1" d="M16.58,43.64s5.09-3.22,7.48-3.84"/>
          <path class="cls-1" d="M16.28,43.16c.8-.79,7.9-5.35,8.28-3.43.03.25-.11.49-.33.59-.59.27-1.2.6-1.81.92,0,0-1.82.96-1.82.96-1.22.65-2.46,1.31-3.73,1.9-.59.28-1.11-.55-.59-.95h0Z"/>
        </g>
        <g>
          <path class="cls-1" d="M53.33,40s6.34,2.29,7.69,3.43"/>
          <path class="cls-1" d="M53.58,39.31c1.01.28,8.95,3.2,7.8,4.45-.18.2-.48.21-.69.06-.5-.3-1.16-.58-1.78-.84-1.93-.79-3.91-1.47-5.83-2.29-.84-.37-.37-1.64.5-1.38h0Z"/>
        </g>
      </g>
      <g>
        <path class="cls-2" d="M66.83,38.36c.22,11.82-6.54,21.93-17.43,26.48-6.99,2.79-14.95,2.81-21.98.13-10.59-4.16-17.78-15.19-17.61-26.52-.04-7.47,2.8-15.12,8.42-20.19,8.6-7.85,20.15-10.84,31.14-6.35,10.66,4.28,17.71,14.96,17.47,26.45h0ZM64.39,38.36c.27-10.55-6.13-20.32-15.9-24.3-6.36-2.62-13.72-2.64-20.01.29-9.99,4.37-16.34,12.98-16.2,24.1-.14,10.31,6.45,20.37,16.08,24.12,6.35,2.39,13.76,2.43,20.09-.08,10.1-4.23,16.13-13.11,15.94-24.12h0Z"/>
        <g>
          <ellipse class="cls-3" cx="32.18" cy="30.69" rx="5.68" ry="2.53" transform="translate(-.15 61.22) rotate(-87)"/>
          <ellipse class="cls-3" cx="45.25" cy="30.69" rx="2.53" ry="5.68" transform="translate(-1.54 2.41) rotate(-3)"/>
        </g>
        <path class="cls-2" d="M40.04,58.27c-.72,0-1.46-.05-2.23-.15-14.53-1.93-18.2-15.98-18.24-16.12-.17-.7.25-1.41.95-1.58.7-.17,1.41.25,1.58.95h0c.13.51,3.31,12.47,16.05,14.16,5.19.69,9.64-1.43,13.21-6.3,2.77-3.78,3.95-7.86,3.96-7.9.2-.69.92-1.1,1.61-.9.69.2,1.1.92.9,1.61-.05.17-4.73,16.23-17.8,16.23Z"/>
        <path class="cls-2" d="M16.28,43.16c.8-.79,7.9-5.35,8.28-3.43.03.25-.11.49-.33.59-.59.27-1.2.6-1.81.92,0,0-1.82.96-1.82.96-1.22.65-2.46,1.31-3.73,1.9-.59.28-1.11-.55-.59-.95h0Z"/>
        <path class="cls-2" d="M53.58,39.31c1.01.28,8.95,3.2,7.8,4.45-.18.2-.48.21-.69.06-.5-.3-1.16-.58-1.78-.84-1.93-.79-3.91-1.47-5.83-2.29-.84-.37-.37-1.64.5-1.38h0Z"/>
      </g>
    </g>
  </g>
</svg>