<?xml version="1.0" encoding="UTF-8"?>
<svg xmlns="http://www.w3.org/2000/svg" version="1.1" viewBox="0 0 71.2 71.9">
  <defs>
    <style>
      .cls-1 {
        fill: #ed5fc5;
      }

      .cls-2 {
        fill: #d9ed8e;
      }
    </style>
  </defs>
  <!-- Generator: Adobe Illustrator 28.7.1, SVG Export Plug-In . SVG Version: 1.2.0 Build 142)  -->
  <g>
    <g id="Ebene_2">
      <g id="Ebene_1-2">
        <g id="textedit">
          <g>
            <g>
              <path class="cls-2" d="M16.5,30.5c-7.6-.8-13-7.4-12.2-15s.2-1.8.4-2.4c0-.2,0-.3,0-.5C5.6,4.9,12.3-.7,19.8,0s2.7.5,3.6.9c7.3,1.2,12.4,7.5,11.6,14.8s-.3,2.1-.5,2.7v.2c-.8,7.5-7.4,12.8-15.1,12h-.1c-.7,0-1.5,0-2.8-.1h0ZM15.4,14.8c.1,2,1.3,3.9,3,4.9,2.4,0,4.6-1.4,5.5-3.4-.3-2.3-2-4.4-4.2-5.1-1.9.4-3.5,1.8-4.3,3.6Z"/>
              <path class="cls-2" d="M16.5,30.5c-7.6-.8-13-7.4-12.2-15s.2-1.8.4-2.4c0-.2,0-.3,0-.5C5.6,4.9,12.3-.7,19.8,0s2.7.5,3.6.9c7.3,1.2,12.4,7.5,11.6,14.8s-.3,2.1-.5,2.7v.2c-.8,7.5-7.4,12.8-15.1,12h-.1c-.7,0-1.5,0-2.8-.1h0ZM15.4,14.8c.1,2,1.3,3.9,3,4.9,2.4,0,4.6-1.4,5.5-3.4-.3-2.3-2-4.4-4.2-5.1-1.9.4-3.5,1.8-4.3,3.6Z"/>
            </g>
            <g>
              <path class="cls-2" d="M15.3,67.3c-1.4-.1-2.1-.3-2.9-.4-.4,0-.6-.1-1.2-.2-7-.7-11.9-6.9-11.1-14s0-.8,0-1.2c0-.8,0-1.6.2-3,.7-7.1,6.9-12.1,14-11.3s2.1.3,2.7.4c.4,0,.7.1,1.4.2,7.2.8,12.3,6.9,11.6,13.9s-.5,3-.8,4h0c0,0,0,0,0,0-.8,7.2-6.8,12.2-13.9,11.5h0ZM10.4,51.1c.3,2.4,1.7,4.5,3.7,5.6,2.3-.4,4.4-2.1,5.3-4.3-.5-2-2-3.7-3.9-4.7-2.1.3-4,1.6-5.1,3.4Z"/>
              <path class="cls-2" d="M15.3,67.3c-1.4-.1-2.1-.3-2.9-.4-.4,0-.6-.1-1.2-.2-7-.7-11.9-6.9-11.1-14s0-.8,0-1.2c0-.8,0-1.6.2-3,.7-7.1,6.9-12.1,14-11.3s2.1.3,2.7.4c.4,0,.7.1,1.4.2,7.2.8,12.3,6.9,11.6,13.9s-.5,3-.8,4h0c0,0,0,0,0,0-.8,7.2-6.8,12.2-13.9,11.5h0ZM10.4,51.1c.3,2.4,1.7,4.5,3.7,5.6,2.3-.4,4.4-2.1,5.3-4.3-.5-2-2-3.7-3.9-4.7-2.1.3-4,1.6-5.1,3.4Z"/>
            </g>
            <g>
              <path class="cls-2" d="M53.9,71.9c-1.6-.2-2.5-.3-3.3-.5-.6,0-1-.2-2-.3-6.7-.7-11.3-6.5-10.6-13.3l.3-2.7.3-2.6c.7-6.7,6.6-11.7,13.2-11s2.2.3,2.9.4c.6,0,1.1.2,2.3.3,6.7.7,11.6,6.7,10.9,13.4s-.4,2.6-.5,3.4c0,.5-.2.9-.3,1.8-.7,6.7-6.7,11.6-13.3,10.9h0ZM48.5,56.1c.5,2.2,1.9,4,3.8,5,2.2-.5,4.1-1.9,5.1-3.8-.6-2.1-2-3.8-3.9-4.9-2.1.5-4,1.8-5,3.7h0Z"/>
              <path class="cls-2" d="M53.9,71.9c-1.6-.2-2.5-.3-3.3-.5-.6,0-1-.2-2-.3-6.7-.7-11.3-6.5-10.6-13.3l.3-2.7.3-2.6c.7-6.7,6.6-11.7,13.2-11s2.2.3,2.9.4c.6,0,1.1.2,2.3.3,6.7.7,11.6,6.7,10.9,13.4s-.4,2.6-.5,3.4c0,.5-.2.9-.3,1.8-.7,6.7-6.7,11.6-13.3,10.9h0ZM48.5,56.1c.5,2.2,1.9,4,3.8,5,2.2-.5,4.1-1.9,5.1-3.8-.6-2.1-2-3.8-3.9-4.9-2.1.5-4,1.8-5,3.7h0Z"/>
            </g>
            <g>
              <path class="cls-2" d="M56.6,34.5c-1.3-.1-2.1-.3-2.9-.4-.4,0-.6-.1-1.2-.2-7.1-.8-12.3-7-11.6-14s.5-3,.8-3.9h0c0,0,0,0,0-.1.8-7.1,7-12.3,13.9-11.6s2,.3,2.6.4c.4,0,.7.1,1.4.2,6.9.7,12.2,7.2,11.4,14.1s0,.8,0,1.2c0,.8,0,1.6-.2,2.9-.7,6.9-7.3,12.2-14.3,11.4h0ZM51.7,19.3c.5,2,1.8,3.7,3.7,4.5,2.1-.3,4-1.6,5-3.3-.2-2.4-1.6-4.5-3.7-5.5-2.4.4-4.3,2-5.1,4.3h0Z"/>
              <path class="cls-2" d="M56.6,34.5c-1.3-.1-2.1-.3-2.9-.4-.4,0-.6-.1-1.2-.2-7.1-.8-12.3-7-11.6-14s.5-3,.8-3.9h0c0,0,0,0,0-.1.8-7.1,7-12.3,13.9-11.6s2,.3,2.6.4c.4,0,.7.1,1.4.2,6.9.7,12.2,7.2,11.4,14.1s0,.8,0,1.2c0,.8,0,1.6-.2,2.9-.7,6.9-7.3,12.2-14.3,11.4h0ZM51.7,19.3c.5,2,1.8,3.7,3.7,4.5,2.1-.3,4-1.6,5-3.3-.2-2.4-1.6-4.5-3.7-5.5-2.4.4-4.3,2-5.1,4.3h0Z"/>
            </g>
            <g>
              <path class="cls-2" d="M32.6,66.2c-6.8-.7-13.5-1.9-20.2-3.5l-7.4-1.8-.2-7.6c-.3-13.7,1.1-27.3,4.3-40.6l1.8-7.4,7.6-.2c13.7-.3,27.3,1.1,40.6,4.3l7.4,1.8.2,7.6c.3,13.7-1.1,27.3-4.3,40.6l-1.8,7.4-7.6.2c-6.8.2-13.7-.1-20.5-.8ZM24.6,45.2c6.7,1.2,13.5,1.9,20.3,2.1,1.2-6.7,1.9-13.5,2.1-20.3-6.7-1.2-13.5-1.9-20.3-2.1-1.2,6.7-1.9,13.5-2.1,20.3Z"/>
              <path class="cls-2" d="M32.6,66.2c-6.8-.7-13.5-1.9-20.2-3.5l-7.4-1.8-.2-7.6c-.3-13.7,1.1-27.3,4.3-40.6l1.8-7.4,7.6-.2c13.7-.3,27.3,1.1,40.6,4.3l7.4,1.8.2,7.6c.3,13.7-1.1,27.3-4.3,40.6l-1.8,7.4-7.6.2c-6.8.2-13.7-.1-20.5-.8ZM24.6,45.2c6.7,1.2,13.5,1.9,20.3,2.1,1.2-6.7,1.9-13.5,2.1-20.3-6.7-1.2-13.5-1.9-20.3-2.1-1.2,6.7-1.9,13.5-2.1,20.3Z"/>
            </g>
            <path class="cls-2" d="M29.8,56c-2.7-.3-5.3-1.7-7-3.8-1.8-2.2-2.5-5-2.2-8.1v-2.9s1.2-1.5,1.2-1.5c-.9-.6-1.8-1.4-2.5-2.3-1.8-2.3-2.6-5.2-2.1-8.1v-.5c.1-.1.1-.3.1-.4.3-4,.8-9,5.5-11.9,2-1.2,4.4-1.7,6.7-1.4l16.9,1.8c5.6.6,9.7,5.5,9.2,11.1l-.5,5.7c-.2,2.8-1.6,5.5-3.8,7.2-.8.7-1.8,1.2-2.8,1.6.5,1.6.6,3.6,0,6-1,5.2-5.9,8.9-11.2,8.3l-7.7-.8h0Z"/>
          </g>
          <g>
            <path class="cls-1" d="M20.5,20.8c-1.5-.2-1.5,0-3-.1-2.2-.2-3.7-2-3.4-4.2s.3-1.4.4-2.9c.2-2.2,1.9-4,4.1-3.7s1.4.6,2.9.8c2.2.2,3.9,1.9,3.6,4.1s-.4,1.4-.5,2.9c-.2,2.2-2,3.4-4.2,3.2h0Z"/>
            <path class="cls-1" d="M9.9,53.7c.2-2.1,0-2.1.2-4.1s1.5-2.7,3.2-2.6,2.1.3,4.1.6,3,1.4,2.8,3.1-.6,2-.9,4.1-1.4,2.9-3,2.8-2-.4-4.1-.6-2.5-1.5-2.4-3.1h0Z"/>
            <path class="cls-1" d="M49.7,61.4c2.6.3,2.6.5,5.2.7s2.4-.9,2.5-2.2c.3-2.6.5-2.6.8-5.2s-.9-2.5-2.2-2.6c-2.6-.3-2.6-.4-5.2-.6s-2.2,1-2.4,2.2c-.3,2.6-.3,2.6-.6,5.2s.6,2.3,1.9,2.4Z"/>
            <path class="cls-1" d="M61.1,22.1c.2-2,0-2.1.3-4.1s-1.1-3.2-2.7-3.3-2-.3-4.1-.6-2.9,1.3-3.1,2.8-.6,2-.8,4,1.3,3,2.9,3.2,2,.4,4.1.6,3.3-1.1,3.5-2.7h0Z"/>
            <path class="cls-1" d="M33.5,57.7c-6.4-.7-12.8-1.8-19.1-3.3l-1-.2v-1c-.3-12.9,1-25.9,4-38.4l.2-1h1c12.9-.3,25.9,1,38.4,4l1,.2v1c.3,12.9-1,25.9-4,38.4l-.2,1h-1c-6.5.2-12.9,0-19.4-.8ZM16,52.1c11.7,2.7,23.7,4,35.8,3.8,2.7-11.7,4-23.7,3.8-35.8-11.7-2.7-23.7-4-35.8-3.8-2.7,11.7-4,23.7-3.8,35.8Z"/>
            <path class="cls-1" d="M43.9,33.2c-.3,0-.5-.3-.5-.6.2-2.3-.8-4.5-3.2-4.6-.4,0-1.4-.4-1.5.4-.2,1.4-1.5,14.5-1.7,15.6.4,1.7,2.9-.8,2.1,2.5,0,.3-.3.5-.6.5l-7.7-.8c-.7,0-.4-1.1-.3-1.6,1-1.2,2.2.3,2.4-2.8l1.5-13.8c0-.7-.9-.6-1.3-.7-2.5-.2-3.8,1.3-4.1,3.8,0,.3-.3.5-.6.4-.4,0-1.5,0-1.4-.7.3-.3.3-6.6,1.3-6.2l17.1,1.8c.3,0,.5.3.5.6l-.5,5.8c0,.7-1.1.4-1.5.4h0Z"/>
          </g>
        </g>
      </g>
    </g>
  </g>
</svg>