<?xml version="1.0" encoding="UTF-8"?>
<svg id="Ebene_2" xmlns="http://www.w3.org/2000/svg" viewBox="0 0 68.03 67.82">
  <defs>
    <style>
      .cls-1 {
        fill: #ed5fc5;
      }

      .cls-2 {
        fill: #d9ed8e;
      }
    </style>
  </defs>
  <g id="Ebene_1-2" data-name="Ebene_1">
    <g id="textedit">
      <g>
        <g>
          <path class="cls-2" d="M14.23,30.62c-7.67,0-13.69-6.01-13.69-13.68,0-1.11.06-1.79.11-2.4.02-.24.03-.28.03-.55C.68,6.27,6.76,0,14.23,0c1.58,0,2.76.22,3.72.48,7.41.38,13.11,6.18,13.11,13.51,0,1.28-.1,2.1-.19,2.77v.17c-.01,7.56-6.02,13.48-13.7,13.48h-.12c-.68.1-1.52.2-2.82.2ZM11.48,15.09c.36,2.02,1.7,3.74,3.46,4.54,2.39-.27,4.41-1.88,5.13-3.97-.52-2.29-2.4-4.14-4.71-4.6-1.8.64-3.27,2.17-3.88,4.03Z"/>
          <path class="cls-2" d="M14.23,30.62c-7.67,0-13.69-6.01-13.69-13.68,0-1.11.06-1.79.11-2.4.02-.24.03-.28.03-.55C.68,6.27,6.76,0,14.23,0c1.58,0,2.76.22,3.72.48,7.41.38,13.11,6.18,13.11,13.51,0,1.28-.1,2.1-.19,2.77v.17c-.01,7.56-6.02,13.48-13.7,13.48h-.12c-.68.1-1.52.2-2.82.2ZM11.48,15.09c.36,2.02,1.7,3.74,3.46,4.54,2.39-.27,4.41-1.88,5.13-3.97-.52-2.29-2.4-4.14-4.71-4.6-1.8.64-3.27,2.17-3.88,4.03Z"/>
        </g>
        <g>
          <path class="cls-2" d="M16.86,67.28c-1.36,0-2.16-.06-2.94-.13-.4-.04-.61-.05-1.21-.05-7.02,0-12.52-5.58-12.52-12.71,0-.59-.02-.77-.05-1.18-.07-.78-.14-1.6-.14-2.97,0-7.13,5.58-12.71,12.71-12.71,1.34,0,2.09.05,2.69.08.44.03.73.05,1.46.05,7.28,0,12.99,5.53,12.99,12.58,0,1.87-.21,3.07-.41,4.04v.06s-.01.03-.01.04c0,7.23-5.52,12.89-12.57,12.89ZM10.34,51.75c.51,2.37,2.17,4.34,4.31,5.16,2.29-.69,4.12-2.55,4.77-4.85-.75-1.92-2.38-3.51-4.37-4.22-2.1.55-3.85,2.02-4.71,3.91Z"/>
          <path class="cls-2" d="M16.86,67.28c-1.36,0-2.16-.06-2.94-.13-.4-.04-.61-.05-1.21-.05-7.02,0-12.52-5.58-12.52-12.71,0-.59-.02-.77-.05-1.18-.07-.78-.14-1.6-.14-2.97,0-7.13,5.58-12.71,12.71-12.71,1.34,0,2.09.05,2.69.08.44.03.73.05,1.46.05,7.28,0,12.99,5.53,12.99,12.58,0,1.87-.21,3.07-.41,4.04v.06s-.01.03-.01.04c0,7.23-5.52,12.89-12.57,12.89ZM10.34,51.75c.51,2.37,2.17,4.34,4.31,5.16,2.29-.69,4.12-2.55,4.77-4.85-.75-1.92-2.38-3.51-4.37-4.22-2.1.55-3.85,2.02-4.71,3.91Z"/>
        </g>
        <g>
          <path class="cls-2" d="M55.74,67.82c-1.64,0-2.55-.06-3.29-.11-.57-.04-.99-.07-1.98-.07-6.72,0-11.97-5.3-11.97-12.06,0-1.34,0-2.02,0-2.69,0-.64,0-1.29,0-2.57,0-6.78,5.36-12.29,11.96-12.29,1.47,0,2.26.02,2.95.05.58.02,1.16.04,2.32.04,6.78,0,12.29,5.47,12.29,12.2,0,1.71-.08,2.66-.14,3.42-.04.55-.07.92-.07,1.84,0,6.74-5.42,12.23-12.08,12.23ZM48.74,52.72c.68,2.11,2.26,3.78,4.3,4.57,2.13-.72,3.84-2.31,4.65-4.33-.77-1.99-2.37-3.61-4.36-4.42-2.07.68-3.75,2.22-4.59,4.19Z"/>
          <path class="cls-2" d="M55.74,67.82c-1.64,0-2.55-.06-3.29-.11-.57-.04-.99-.07-1.98-.07-6.72,0-11.97-5.3-11.97-12.06,0-1.34,0-2.02,0-2.69,0-.64,0-1.29,0-2.57,0-6.78,5.36-12.29,11.96-12.29,1.47,0,2.26.02,2.95.05.58.02,1.16.04,2.32.04,6.78,0,12.29,5.47,12.29,12.2,0,1.71-.08,2.66-.14,3.42-.04.55-.07.92-.07,1.84,0,6.74-5.42,12.23-12.08,12.23ZM48.74,52.72c.68,2.11,2.26,3.78,4.3,4.57,2.13-.72,3.84-2.31,4.65-4.33-.77-1.99-2.37-3.61-4.36-4.42-2.07.68-3.75,2.22-4.59,4.19Z"/>
        </g>
        <g>
          <path class="cls-2" d="M54.47,30.37c-1.34,0-2.13-.06-2.89-.12-.4-.03-.6-.05-1.2-.05-7.17,0-13-5.69-13-12.69,0-1.85.2-3.02.4-3.98v-.07s.01-.03.01-.05c0-7.16,5.65-12.99,12.59-12.99,1.32,0,2.06.04,2.65.08.44.03.72.04,1.45.04,6.97,0,12.86,5.89,12.86,12.86,0,.58.02.77.05,1.17.07.77.13,1.58.13,2.93,0,6.97-5.98,12.86-13.05,12.86ZM48.06,15.74c.69,1.95,2.22,3.46,4.18,4.12,2.1-.54,3.82-1.98,4.66-3.85-.48-2.38-2.08-4.28-4.22-5.08-2.3.62-4.04,2.42-4.62,4.8Z"/>
          <path class="cls-2" d="M54.47,30.37c-1.34,0-2.13-.06-2.89-.12-.4-.03-.6-.05-1.2-.05-7.17,0-13-5.69-13-12.69,0-1.85.2-3.02.4-3.98v-.07s.01-.03.01-.05c0-7.16,5.65-12.99,12.59-12.99,1.32,0,2.06.04,2.65.08.44.03.72.04,1.45.04,6.97,0,12.86,5.89,12.86,12.86,0,.58.02.77.05,1.17.07.77.13,1.58.13,2.93,0,6.97-5.98,12.86-13.05,12.86ZM48.06,15.74c.69,1.95,2.22,3.46,4.18,4.12,2.1-.54,3.82-1.98,4.66-3.85-.48-2.38-2.08-4.28-4.22-5.08-2.3.62-4.04,2.42-4.62,4.8Z"/>
        </g>
        <g>
          <path class="cls-2" d="M33.95,64.41c-6.83,0-13.65-.44-20.43-1.32l-7.51-.98-.98-7.51c-1.76-13.56-1.76-27.3,0-40.86l.98-7.51,7.51-.98c13.56-1.76,27.3-1.76,40.86,0l7.51.98.98,7.51c1.76,13.56,1.76,27.3,0,40.86l-.98,7.51-7.51.98c-6.78.88-13.61,1.32-20.43,1.32ZM23.75,44.36c6.78.5,13.6.5,20.38,0,.5-6.78.5-13.6,0-20.38-6.78-.5-13.6-.5-20.38,0-.5,6.78-.5,13.6,0,20.38Z"/>
          <path class="cls-2" d="M33.95,64.41c-6.83,0-13.65-.44-20.43-1.32l-7.51-.98-.98-7.51c-1.76-13.56-1.76-27.3,0-40.86l.98-7.51,7.51-.98c13.56-1.76,27.3-1.76,40.86,0l7.51.98.98,7.51c1.76,13.56,1.76,27.3,0,40.86l-.98,7.51-7.51.98c-6.78.88-13.61,1.32-20.43,1.32ZM23.75,44.36c6.78.5,13.6.5,20.38,0,.5-6.78.5-13.6,0-20.38-6.78-.5-13.6-.5-20.38,0-.5,6.78-.5,13.6,0,20.38Z"/>
        </g>
        <path class="cls-2" d="M30.1,54.52c-2.76,0-5.43-1.11-7.36-3.07-2.01-2.05-3.01-4.68-2.99-7.82l-.3-2.89,1.03-1.59c-1-.5-1.9-1.16-2.71-1.99-2.02-2.06-3.09-4.91-2.92-7.81l.03-.55c0-.13,0-.27,0-.42-.08-4.03-.17-9.05,4.19-12.44,1.86-1.45,4.18-2.19,6.5-2.12h16.96c5.64,0,10.19,4.42,10.34,10.06l.15,5.76c.08,2.84-1,5.6-2.99,7.59-.77.78-1.63,1.41-2.57,1.89.62,1.57.96,3.54.7,5.98-.46,5.28-4.91,9.44-10.31,9.44h-7.77Z"/>
      </g>
      <g>
        <path class="cls-1" d="M17.17,20.58c-1.47,0-1.47.2-2.95.2-2.2,0-3.85-1.65-3.85-3.85,0-1.47.14-1.47.14-2.95,0-2.2,1.51-4.15,3.71-4.15,1.47,0,1.47.46,2.95.46,2.2,0,4.04,1.49,4.04,3.7,0,1.47-.2,1.47-.2,2.95,0,2.2-1.65,3.64-3.85,3.64Z"/>
        <path class="cls-1" d="M10.03,54.39c0-2.08-.19-2.08-.19-4.15,0-1.66,1.21-2.87,2.87-2.87,2.08,0,2.08.13,4.15.13,1.66,0,3.15,1.09,3.15,2.75,0,2.08-.42,2.08-.42,4.15,0,1.66-1.07,3.06-2.73,3.06-2.08,0-2.08-.18-4.15-.18-1.66,0-2.68-1.21-2.68-2.87Z"/>
        <path class="cls-1" d="M50.48,57.81c2.63,0,2.63.18,5.26.18,1.27,0,2.25-1.13,2.25-2.4,0-2.63.21-2.63.21-5.26,0-1.27-1.19-2.37-2.46-2.37-2.63,0-2.63-.08-5.26-.08-1.27,0-2.12,1.18-2.12,2.45,0,2.63-.02,2.63-.02,5.26,0,1.27.87,2.22,2.14,2.22Z"/>
        <path class="cls-1" d="M57.69,17.51c0-2.05-.18-2.05-.18-4.1,0-1.59-1.44-3.03-3.03-3.03-2.05,0-2.05-.13-4.1-.13-1.59,0-2.76,1.56-2.76,3.15,0,2.05-.41,2.05-.41,4.1,0,1.59,1.58,2.85,3.17,2.85,2.05,0,2.05.18,4.1.18,1.59,0,3.21-1.44,3.21-3.03Z"/>
        <path class="cls-1" d="M33.95,55.88c-6.46,0-12.92-.42-19.33-1.25l-1-.13-.13-1c-1.67-12.83-1.67-25.83,0-38.66l.13-1,1-.13c12.83-1.67,25.83-1.67,38.66,0l1,.13.13,1c1.67,12.83,1.67,25.83,0,38.66l-.13,1-1,.13c-6.41.83-12.87,1.25-19.33,1.25ZM15.96,52.16c11.94,1.47,24.03,1.47,35.98,0,1.47-11.94,1.47-24.03,0-35.98-11.94-1.47-24.03-1.47-35.98,0-1.47,11.94-1.47,24.03,0,35.98Z"/>
        <path class="cls-1" d="M41.74,30.44c-.28,0-.5-.22-.51-.5-.03-2.28-1.25-4.41-3.69-4.28-.43.05-1.46-.21-1.44.51-.02,1.45.06,14.62-.06,15.71.54,1.63,2.78-1.09,2.34,2.3,0,.28-.23.51-.51.51h-7.76c-.73.02-.47-1.08-.51-1.51.85-1.31,2.22.11,2.13-3.09,0,0,0-13.89,0-13.89.02-.69-.96-.48-1.38-.51-2.47.08-3.59,1.72-3.69,4.25-.01.28-.23.5-.51.5-.41-.03-1.52.2-1.48-.52.22-.36-.38-6.55.64-6.27,0,0,17.22,0,17.22,0,.28,0,.5.22.51.5l.15,5.77c.03.73-1.04.48-1.47.52Z"/>
      </g>
    </g>
  </g>
</svg>