<?xml version="1.0" encoding="UTF-8"?>
<svg id="Ebene_2" xmlns="http://www.w3.org/2000/svg" viewBox="0 0 92.52 124.37">
  <defs>
    <style>
      .cls-1 {
        fill: #ed5fc5;
      }

      .cls-2 {
        fill: #d9ed8e;
      }
    </style>
  </defs>
  <g id="Ebene_1-2" data-name="Ebene_1">
    <g>
      <g>
        <path class="cls-1" d="M10.22,38.39c.56,1.06,1.57,1.8,2.54,2.5.91.66,1.91,1.34,3.04,1.29,4.58-.2,2.88-7.67.3-9.41-3.32-2.25-7.68,2.19-5.87,5.61Z"/>
        <path class="cls-1" d="M76.11,53.32c-1.25,1.13-1.83,2.98-1.38,4.61s1.94,2.93,3.62,3.1,3.43-.85,4.04-2.42c.41-1.04.34-2.2.25-3.32-.11-1.37-.47-3.12-2.06-3.37-1.41-.22-3.44.48-4.47,1.41Z"/>
        <path class="cls-1" d="M53.86,10.04c.42-.46,1.2-.23,1.29.39.23,1.6-.17,3.4.58,4.85.33.63.86,1.14,1.37,1.63l5.19,4.95c.37.35.28.97-.17,1.21-2.17,1.15-5.18.62-7.31,2-1.72,1.12-2.47,3.24-3.67,4.91-.42.58-1.35.3-1.36-.42-.03-1.8-.19-3.59-.83-5.25-1.3-3.35-4.33-5.62-6.62-8.4-.4-.48-.05-1.21.58-1.22l2.9-.03c1.08-.01,2.67.28,3.69-.13.89-.36,1.58-1.47,2.21-2.15l2.15-2.34Z"/>
        <g>
          <path class="cls-1" d="M22.92,62.83c-2.23-.7-4.55-1.45-6.26-3.04s-2.63-4.31-1.46-6.34c1.39-2.43,4.7-2.66,7.48-2.97,2.2-.24,4.68-.93,5.6-2.94.55-1.2.4-2.6.1-3.89-.62-2.69-1.8-5.25-2.2-7.98s.2-5.87,2.45-7.49c1.68-1.21,3.95-1.31,5.96-.82,2.92.7,5.54,2.56,7.17,5.08,1.11,1.72,1.87,3.83,3.63,4.89,1.41.85,3.18.83,4.81.58,6.35-.96,12.13-4.81,18.55-4.99,1.71-.05,3.61.27,4.67,1.61,1.19,1.5.87,3.71.11,5.47-1.47,3.4-4.27,6.02-6.4,9.05-2.13,3.03-3.63,7.03-2.09,10.4.7,1.52,1.94,2.72,3.12,3.9s2.37,2.45,2.92,4.03.3,3.57-1.02,4.59c-.9.7-2.11.84-3.25.91-5.65.38-11.36-.08-16.89-1.36"/>
          <path class="cls-1" d="M22.92,62.83c-2.23-.7-4.55-1.45-6.26-3.04s-2.63-4.31-1.46-6.34c1.39-2.43,4.7-2.66,7.48-2.97,2.2-.24,4.68-.93,5.6-2.94.55-1.2.4-2.6.1-3.89-.62-2.69-1.8-5.25-2.2-7.98s.2-5.87,2.45-7.49c1.68-1.21,3.95-1.31,5.96-.82,2.92.7,5.54,2.56,7.17,5.08,1.11,1.72,1.87,3.83,3.63,4.89,1.41.85,3.18.83,4.81.58,6.35-.96,12.13-4.81,18.55-4.99,1.71-.05,3.61.27,4.67,1.61,1.19,1.5.87,3.71.11,5.47-1.47,3.4-4.27,6.02-6.4,9.05-2.13,3.03-3.63,7.03-2.09,10.4.7,1.52,1.94,2.72,3.12,3.9s2.37,2.45,2.92,4.03.3,3.57-1.02,4.59c-.9.7-2.11.84-3.25.91-5.65.38-11.36-.08-16.89-1.36"/>
        </g>
        <path class="cls-1" d="M16.89,108.16c-.33,1.01-.64,2.11-.3,3.12.5,1.5,2.18,2.19,3.67,2.7,1.42.49,3.06.96,4.35.18.99-.6,1.46-1.77,1.86-2.86l5.29-14.33c.11-.3.52-.33.67-.05,1.02,1.91,2.38,3.65,4.13,4.91,1.19.86,2.59,1.48,4.03,1.74s2.89-.9,2.93-2.42c.36-12.65.29-25.32-.21-37.97-.06-1.58-.18-3.3-1.96-4.15-.72-.34-1.54-.43-2.33-.3-1.89.32-3.34,1.62-4.68,2.91-7.53,7.24-14.06,15.44-20.57,23.61-1.38,1.74-2.79,3.51-3.41,5.68-.2.71-.17,1.49.17,2.14.68,1.32,2.04,1.27,3.24,1.18,2.21-.17,4.43-.34,6.64-.5.74-.06,2.02-.52,2.25.37.16.63-.83,1.92-1.1,2.47-1.83,3.74-3.39,7.61-4.67,11.57Z"/>
      </g>
      <g>
        <path class="cls-1" d="M15.67,51.99c-4.28,0-7.32-2.19-8.65-3.15-1.34-.97-3.83-2.76-5.47-5.88h0C-1.4,37.37-.04,30.39,4.86,26c4.81-4.31,11.53-4.85,16.72-1.34,5.29,3.58,8.12,11.69,6.32,18.08-1.52,5.37-6.1,8.99-11.68,9.24-.19,0-.37.01-.55.01ZM15.68,32.39c-.1,0-.21,0-.32,0-2.83.12-5.55,2.28-6.32,5.01-.58,2.04.32,2.65,1.56,3.49,2.28,1.54,5.43,1.41,7.34-.3,1.78-1.6,2.18-4.45.94-6.78l-8.67,4.58,8.67-4.58c-.21-.4-.43-.7-.6-.91-.53-.23-1.42-.51-2.6-.51Z"/>
        <path class="cls-1" d="M78.74,70.84c-.45,0-.9-.02-1.36-.07-5.69-.57-10.55-4.68-12.09-10.23-1.44-5.18.23-10.86,4.25-14.49h0c3.26-2.95,8.31-4.49,12.56-3.82,4.56.72,9.66,4.31,10.32,12.25.13,1.57.37,4.5-.9,7.71-2.07,5.24-7.2,8.65-12.77,8.65ZM72.93,56.39c.38,1.66,2.39,4.62,6.13,5.21,1.98.31,2.84-.3,3.62-1,1.48-1.34,2.04-3.32,1.49-5.28-.63-2.25-2.48-3.8-4.85-4.03-1.52-.15-2.94.26-4.07,1.1l.86.95-.86-.95c-.86.64-1.54,1.54-1.97,2.63-.24.6-.32,1.09-.35,1.38ZM82.69,60.59h0s0,0,0,0Z"/>
        <path class="cls-1" d="M50.56,40.1c-1.05,0-2.12-.16-3.16-.48-4.35-1.36-7.32-5.33-7.4-9.89-.02-1.38-.14-1.79-.17-1.86-.21-.51-1.47-1.83-2.31-2.7-.85-.88-1.81-1.89-2.75-3.03-2.56-3.11-3.12-7.49-1.42-11.15,1.7-3.66,5.41-6.06,9.45-6.1l2.5-.03,1.34-1.46c2.74-2.98,7.01-4.14,10.88-2.94,3.87,1.19,6.74,4.55,7.32,8.56.1.68.15,1.32.17,1.88l4.05,3.86c2.44,2.34,3.63,5.72,3.17,9.07-.46,3.35-2.52,6.29-5.5,7.88-2.35,1.25-4.64,1.64-6.27,1.88-.36.62-.8,1.34-1.34,2.1-2.02,2.82-5.23,4.4-8.56,4.4ZM61.08,16.67h0s0,0,0,0Z"/>
        <g>
          <path class="cls-1" d="M62.97,82.82c-5.12,0-10.23-.58-15.23-1.73l4.4-19.1c1.21.28,2.42.51,3.65.69-1.99-5.06-1.41-10.87,1.58-16.42-1.78.56-3.68,1.05-5.7,1.35-4.36.66-8.17.02-11.33-1.88-.71-.43-1.36-.9-1.93-1.39.16,1.97.02,4.61-1.22,7.3-1.29,2.8-4.75,7.63-13.44,8.58h0s-3.75,11.96-3.75,11.96c-2.64-.83-6.64-2.08-10.01-5.23-5.21-4.86-6.59-12.59-3.28-18.38,2.71-4.73,7.16-6.49,10.76-7.24-.38-1.29-.74-2.69-.97-4.25-.99-6.83,1.47-13.29,6.43-16.85,3.81-2.74,8.91-3.61,13.98-2.39,5.34,1.29,10.12,4.67,13.11,9.29.16.25.31.5.46.74,1.42-.38,2.97-.95,4.58-1.55,3.87-1.42,8.27-3.04,13.45-3.18,7.14-.21,10.97,3.24,12.62,5.31,3.3,4.15,3.83,9.93,1.43,15.46-1.52,3.5-3.72,6.21-5.49,8.38-.7.86-1.37,1.68-1.89,2.42-.3.43-.52.81-.66,1.11.15.15.3.31.44.44l.18.18c1.36,1.37,3.9,3.91,5.23,7.72,2.02,5.77.3,12.03-4.27,15.58-3.35,2.59-7.03,2.84-8.6,2.94-1.5.1-3,.15-4.51.15ZM62.15,71.25h0s0,0,0,0Z"/>
          <path class="cls-1" d="M62.97,82.82c-5.12,0-10.23-.58-15.23-1.73l4.4-19.1c1.21.28,2.42.51,3.65.69-1.99-5.06-1.41-10.87,1.58-16.42-1.78.56-3.68,1.05-5.7,1.35-4.36.66-8.17.02-11.33-1.88-.71-.43-1.36-.9-1.93-1.39.16,1.97.02,4.61-1.22,7.3-1.29,2.8-4.75,7.63-13.44,8.58h0s-3.75,11.96-3.75,11.96c-2.64-.83-6.64-2.08-10.01-5.23-5.21-4.86-6.59-12.59-3.28-18.38,2.71-4.73,7.16-6.49,10.76-7.24-.38-1.29-.74-2.69-.97-4.25-.99-6.83,1.47-13.29,6.43-16.85,3.81-2.74,8.91-3.61,13.98-2.39,5.34,1.29,10.12,4.67,13.11,9.29.16.25.31.5.46.74,1.42-.38,2.97-.95,4.58-1.55,3.87-1.42,8.27-3.04,13.45-3.18,7.14-.21,10.97,3.24,12.62,5.31,3.3,4.15,3.83,9.93,1.43,15.46-1.52,3.5-3.72,6.21-5.49,8.38-.7.86-1.37,1.68-1.89,2.42-.3.43-.52.81-.66,1.11.15.15.3.31.44.44l.18.18c1.36,1.37,3.9,3.91,5.23,7.72,2.02,5.77.3,12.03-4.27,15.58-3.35,2.59-7.03,2.84-8.6,2.94-1.5.1-3,.15-4.51.15ZM62.15,71.25h0s0,0,0,0Z"/>
        </g>
        <path class="cls-1" d="M23.03,124.37c-2.71,0-4.93-.76-5.96-1.12-1.91-.66-7.7-2.65-9.78-8.86-1.39-4.14-.22-7.72.27-9.25.2-.63.41-1.25.63-1.87-3.56-1.3-5.45-3.9-6.38-5.71-1.47-2.86-1.78-6.16-.88-9.32,1.16-4.07,3.47-6.97,5.17-9.1,6.6-8.29,13.43-16.86,21.44-24.57,1.58-1.52,4.87-4.68,9.86-5.51,2.82-.47,5.64-.08,8.17,1.12,4.76,2.27,7.29,6.51,7.53,12.61.51,12.81.58,25.81.21,38.63-.1,3.6-1.76,6.96-4.56,9.23-2.78,2.26-6.39,3.19-9.9,2.56-.81-.15-1.62-.35-2.42-.6l-.77,2.08c-.6,1.63-2.01,5.46-5.99,7.86-2.28,1.38-4.6,1.81-6.64,1.81ZM40.95,100.36h0s0,0,0,0ZM26.62,84.88c1.18.58,2.24,1.37,3.12,2.34.54-.13,1.08-.21,1.64-.25.87-.06,1.72-.01,2.55.14.01-3.6-.01-7.2-.07-10.8-2.48,2.78-4.88,5.67-7.24,8.58Z"/>
      </g>
      <g>
        <path class="cls-2" d="M15.68,43.5c-1.55,0-2.83-.93-3.69-1.54-.99-.71-2.22-1.6-2.93-2.95h0c-1.13-2.14-.53-4.89,1.46-6.67,1.89-1.69,4.36-1.94,6.29-.63,2.28,1.54,3.72,5.87,2.91,8.73-.53,1.86-1.94,2.98-3.88,3.07-.06,0-.11,0-.17,0ZM11.37,37.78c.43.81,1.3,1.44,2.15,2.05.82.59,1.57,1.07,2.21,1.05.81-.04,1.26-.38,1.48-1.17.54-1.92-.62-5.02-1.86-5.86-1.39-.94-2.71.08-3.09.41-.9.81-1.56,2.25-.9,3.51h0Z"/>
        <path class="cls-2" d="M78.73,62.35c-.17,0-.33,0-.5-.02-2.2-.22-4.15-1.88-4.75-4.05-.58-2.07.13-4.45,1.76-5.92,1.37-1.24,3.81-2.01,5.55-1.73,1.88.29,2.94,1.83,3.16,4.56.11,1.33.17,2.63-.33,3.9-.77,1.95-2.77,3.27-4.89,3.27ZM80.02,53.18c-.97,0-2.34.49-3.03,1.11h0c-.9.81-1.31,2.16-.99,3.29.31,1.13,1.36,2.03,2.49,2.15,1.11.11,2.3-.59,2.7-1.6.29-.75.25-1.68.16-2.73-.17-2.06-.77-2.16-.96-2.19-.11-.02-.23-.03-.36-.03Z"/>
        <path class="cls-2" d="M50.55,31.6c-.21,0-.41-.03-.62-.09-.85-.26-1.42-1.04-1.44-1.92-.02-1.49-.13-3.22-.74-4.8-.81-2.07-2.4-3.74-4.09-5.5-.78-.81-1.58-1.65-2.32-2.55-.5-.61-.61-1.44-.27-2.16.34-.73,1.05-1.18,1.85-1.19l2.9-.03c.34,0,.73.02,1.14.04.73.04,1.63.1,2.08-.08.35-.14.81-.71,1.18-1.16.19-.23.38-.46.55-.65l2.15-2.34c.54-.59,1.36-.81,2.13-.57.76.24,1.31.87,1.42,1.66.1.66.1,1.31.1,1.94,0,.94,0,1.84.35,2.49.23.45.68.88,1.12,1.29l5.19,4.96c.48.45.71,1.12.62,1.77-.09.65-.49,1.23-1.07,1.54-1.22.65-2.56.84-3.86,1.02-1.27.18-2.46.35-3.35.92-.92.6-1.55,1.67-2.21,2.81-.34.59-.7,1.19-1.11,1.77-.39.55-1.02.86-1.67.86ZM44.13,15.98c.46.51.94,1.01,1.41,1.5,1.79,1.87,3.65,3.8,4.64,6.36.51,1.3.73,2.66.84,3.9.02-.03.03-.06.05-.08.79-1.35,1.6-2.75,3.04-3.68,1.37-.89,2.99-1.12,4.41-1.32.81-.11,1.59-.22,2.26-.44l-4.58-4.37c-.56-.53-1.19-1.14-1.63-1.97-.63-1.21-.64-2.53-.64-3.69,0-.1,0-.2,0-.3l-1.26,1.38c-.15.16-.29.34-.45.53-.56.69-1.26,1.55-2.23,1.94-1,.4-2.18.33-3.22.26-.34-.02-.66-.04-.95-.04l-1.7.02Z"/>
        <path class="cls-2" d="M62.97,74.33c-4.48,0-8.95-.51-13.33-1.52-.7-.16-1.14-.86-.98-1.57.16-.7.87-1.14,1.57-.98,5.41,1.25,10.96,1.69,16.51,1.33.95-.06,1.92-.16,2.54-.64.86-.67.94-2.11.59-3.13-.46-1.31-1.5-2.42-2.62-3.54l-.18-.18c-1.2-1.2-2.44-2.45-3.2-4.11-1.51-3.3-.71-7.56,2.21-11.7.74-1.06,1.56-2.06,2.36-3.04,1.55-1.9,3.01-3.69,3.91-5.78.28-.64,1.1-2.83.06-4.13-.78-.98-2.39-1.15-3.61-1.11-3.36.09-6.55,1.27-9.93,2.51-2.71,1-5.52,2.03-8.47,2.47-1.52.23-3.77.4-5.68-.75-1.59-.96-2.47-2.54-3.26-3.94-.27-.48-.52-.93-.79-1.35-1.45-2.25-3.78-3.9-6.38-4.52-1.92-.46-3.71-.24-4.89.61-1.88,1.35-2.23,4.11-1.92,6.24.21,1.48.68,2.91,1.17,4.43.36,1.11.73,2.26,1.01,3.44.28,1.24.57,3.07-.19,4.73-.95,2.07-3.19,3.31-6.65,3.69l-.41.04c-2.5.27-5.09.54-6.08,2.27-.84,1.47-.04,3.56,1.22,4.73,1.53,1.43,3.78,2.13,5.76,2.75.69.22,1.07.95.86,1.64-.22.69-.95,1.07-1.64.86-2.25-.7-4.8-1.5-6.76-3.33-2.03-1.89-3.26-5.23-1.7-7.94,1.66-2.89,5.21-3.27,8.07-3.57l.4-.04c2.48-.27,4.01-1.01,4.56-2.18.43-.93.21-2.19.02-3.05-.25-1.07-.59-2.12-.94-3.22-.51-1.56-1.03-3.16-1.27-4.86-.42-2.89.15-6.7,2.98-8.73,1.8-1.3,4.37-1.67,7.03-1.03,3.25.78,6.15,2.84,7.97,5.64.32.49.6,1,.88,1.5.68,1.23,1.33,2.38,2.32,2.98.91.55,2.16.68,3.94.41,2.68-.4,5.24-1.34,7.95-2.34,3.42-1.26,6.96-2.56,10.75-2.67,2.6-.07,4.58.65,5.73,2.1,1.33,1.67,1.44,4.15.29,6.8-1.05,2.42-2.69,4.44-4.28,6.39-.76.94-1.56,1.91-2.25,2.89-1.12,1.59-3.55,5.65-1.97,9.1.57,1.23,1.59,2.26,2.68,3.35l.18.18c1.28,1.29,2.59,2.7,3.23,4.52.8,2.28.2,4.77-1.46,6.05-1.2.93-2.68,1.1-3.97,1.18-1.31.09-2.63.13-3.94.13Z"/>
        <path class="cls-2" d="M22.99,115.88c-1.23,0-2.4-.4-3.16-.66-1.31-.45-3.73-1.28-4.48-3.52-.46-1.37-.09-2.75.3-3.93h0c1.3-4,2.89-7.95,4.74-11.74.08-.17.22-.41.39-.67.06-.09.14-.22.22-.36-.17.03-.34.05-.49.06l-6.64.5c-1.1.08-3.39.26-4.5-1.89-.48-.93-.57-2.03-.26-3.1.69-2.43,2.26-4.4,3.64-6.14,6.43-8.07,13.08-16.42,20.69-23.73,1.57-1.5,3.15-2.89,5.37-3.25,1.07-.18,2.18-.03,3.11.41,2.54,1.21,2.64,3.76,2.7,5.28.5,12.62.57,25.43.21,38.06-.03,1.12-.55,2.17-1.42,2.88-.86.7-1.97.99-3.05.79-1.6-.29-3.18-.97-4.56-1.97-1.3-.94-2.47-2.16-3.48-3.65l-4.61,12.51c-.39,1.06-.98,2.66-2.41,3.52-.73.44-1.52.6-2.29.6ZM21.72,92.29c.85,0,1.88.26,2.2,1.51.26,1-.37,2.02-.92,2.92-.11.18-.21.33-.26.45-1.8,3.68-3.34,7.52-4.6,11.4h0c-.27.82-.51,1.68-.3,2.3.3.89,1.55,1.43,2.85,1.88,1.15.4,2.45.78,3.25.3.6-.36.96-1.24,1.31-2.19l5.29-14.33c.23-.62.8-1.05,1.46-1.09.65-.05,1.28.3,1.59.87,1.03,1.92,2.29,3.43,3.74,4.47,1.07.77,2.28,1.29,3.5,1.51.45.08.78-.12.94-.25.28-.23.45-.57.46-.93.36-12.57.29-25.32-.21-37.88-.07-1.76-.25-2.56-1.22-3.02-.45-.22-1-.28-1.55-.19-1.48.25-2.68,1.31-3.99,2.56-7.48,7.19-14.07,15.47-20.45,23.48-1.29,1.62-2.62,3.29-3.17,5.22-.12.43-.09.86.07,1.19.24.47.67.57,1.98.48l6.64-.5c.12,0,.26-.04.41-.06.22-.04.59-.1,1-.1ZM16.89,108.16h0,0Z"/>
      </g>
    </g>
  </g>
</svg>