<?xml version="1.0" encoding="UTF-8"?>
<svg id="Ebene_2" xmlns="http://www.w3.org/2000/svg" viewBox="0 0 74.25 93.87">
  <defs>
    <style>
      .cls-1 {
        fill: #ed5fc5;
      }

      .cls-2 {
        fill: #d9ed8e;
      }
    </style>
  </defs>
  <g id="Ebene_1-2" data-name="Ebene_1">
    <g id="ux">
      <g>
        <path class="cls-1" d="M16.52,77.6c-.33,1.01-.64,2.12-.3,3.13.5,1.5,2.19,2.2,3.68,2.71,1.42.49,3.07.96,4.36.18,1-.6,1.47-1.77,1.87-2.87l5.3-14.38c.11-.3.52-.33.67-.05,1.03,1.91,2.39,3.66,4.14,4.93,1.2.86,2.59,1.48,4.04,1.75s2.9-.9,2.94-2.43c.36-12.7.29-25.41-.21-38.11-.06-1.58-.18-3.31-1.97-4.17-.72-.34-1.55-.43-2.34-.3-1.9.32-3.35,1.62-4.7,2.92-7.56,7.26-14.11,15.49-20.64,23.69-1.39,1.74-2.8,3.52-3.42,5.7-.2.71-.17,1.49.17,2.15.68,1.33,2.04,1.28,3.25,1.19,2.22-.17,4.45-.34,6.67-.51.74-.06,2.03-.52,2.26.37.16.63-.83,1.93-1.1,2.48-1.83,3.75-3.4,7.64-4.69,11.61Z"/>
        <path class="cls-1" d="M31.39,22.41c-2.03-3.13-4.44-6.03-7.17-8.61"/>
        <path class="cls-1" d="M44.43,21.55c2.14-3.46,3.39-7.59,3.56-11.71"/>
        <path class="cls-1" d="M51.75,32.91c4.38-1.04,8.62-2.43,12.66-4.15"/>
      </g>
      <g>
        <path class="cls-1" d="M22.69,93.87c-2.72,0-4.95-.77-5.99-1.13-1.91-.66-7.73-2.66-9.81-8.89-1.39-4.15-.22-7.74.27-9.27,0,0,0,0,0,0,.2-.63.41-1.26.63-1.88-3.57-1.31-5.47-3.91-6.41-5.73-1.47-2.86-1.79-6.18-.89-9.35,1.16-4.09,3.49-7.01,5.19-9.13,6.63-8.32,13.48-16.92,21.52-24.65,1.58-1.52,4.88-4.69,9.89-5.53,2.84-.47,5.66-.08,8.19,1.12,4.78,2.28,7.32,6.54,7.56,12.66.51,12.86.58,25.9.21,38.78-.1,3.61-1.77,6.98-4.57,9.26-2.79,2.27-6.41,3.2-9.94,2.57-.82-.15-1.63-.35-2.43-.6l-.77,2.08c-.6,1.64-2.02,5.48-6.02,7.89-2.29,1.38-4.61,1.82-6.66,1.82ZM26.29,54.23c1.19.58,2.25,1.38,3.13,2.34.54-.13,1.1-.22,1.66-.25.86-.06,1.72,0,2.55.14.01-3.61-.01-7.23-.07-10.84-2.49,2.8-4.9,5.69-7.27,8.61Z"/>
        <path class="cls-1" d="M31.4,32.25c-3.22,0-6.38-1.58-8.26-4.48-1.61-2.48-3.52-4.78-5.68-6.82-3.94-3.73-4.11-9.96-.38-13.9,3.73-3.94,9.96-4.12,13.9-.38,3.29,3.11,6.2,6.61,8.66,10.4,2.96,4.56,1.66,10.65-2.9,13.6-1.65,1.07-3.51,1.59-5.34,1.59Z"/>
        <path class="cls-1" d="M44.42,31.38c-1.77,0-3.55-.48-5.17-1.47-4.62-2.86-6.04-8.92-3.19-13.54,1.25-2.02,2-4.48,2.09-6.92C38.38,4.02,42.98-.2,48.38,0c5.43.21,9.65,4.79,9.44,10.22-.23,5.86-1.97,11.57-5.02,16.5-1.86,3.01-5.08,4.66-8.37,4.66Z"/>
        <path class="cls-1" d="M51.74,42.74c-4.45,0-8.49-3.05-9.56-7.57-1.25-5.29,2.02-10.59,7.3-11.84,3.83-.91,7.55-2.13,11.07-3.63,5-2.13,10.77.19,12.91,5.18,2.13,5-.19,10.77-5.18,12.91-4.54,1.94-9.34,3.51-14.26,4.68-.76.18-1.53.27-2.28.27Z"/>
      </g>
      <g>
        <path class="cls-2" d="M16.52,77.6c-.33,1.01-.64,2.12-.3,3.13.5,1.5,2.19,2.2,3.68,2.71,1.42.49,3.07.96,4.36.18,1-.6,1.47-1.77,1.87-2.87l5.3-14.38c.11-.3.52-.33.67-.05,1.03,1.91,2.39,3.66,4.14,4.93,1.2.86,2.59,1.48,4.04,1.75s2.9-.9,2.94-2.43c.36-12.7.29-25.41-.21-38.11-.06-1.58-.18-3.31-1.97-4.17-.72-.34-1.55-.43-2.34-.3-1.9.32-3.35,1.62-4.7,2.92-7.56,7.26-14.11,15.49-20.64,23.69-1.39,1.74-2.8,3.52-3.42,5.7-.2.71-.17,1.49.17,2.15.68,1.33,2.04,1.28,3.25,1.19,2.22-.17,4.45-.34,6.67-.51.74-.06,2.03-.52,2.26.37.16.63-.83,1.93-1.1,2.48-1.83,3.75-3.4,7.64-4.69,11.61Z"/>
        <path class="cls-2" d="M31.39,23.72c-.43,0-.85-.21-1.1-.6-1.98-3.05-4.32-5.86-6.97-8.37-.53-.5-.55-1.33-.05-1.85.5-.53,1.33-.55,1.85-.05,2.8,2.65,5.28,5.63,7.37,8.85.39.61.22,1.42-.39,1.81-.22.14-.47.21-.71.21Z"/>
        <path class="cls-2" d="M44.43,22.86c-.24,0-.47-.06-.69-.2-.62-.38-.81-1.19-.42-1.81,2.01-3.25,3.21-7.19,3.36-11.07.03-.72.62-1.29,1.36-1.26.72.03,1.29.64,1.26,1.36-.17,4.33-1.5,8.72-3.75,12.35-.25.4-.68.62-1.12.62Z"/>
        <path class="cls-2" d="M51.75,34.22c-.59,0-1.13-.41-1.27-1.01-.17-.7.27-1.41.97-1.58,4.3-1.02,8.49-2.39,12.45-4.08.67-.28,1.44.03,1.72.69.28.67-.03,1.44-.69,1.72-4.1,1.75-8.43,3.17-12.87,4.22-.1.02-.2.04-.3.04Z"/>
      </g>
    </g>
  </g>
</svg>