<?xml version="1.0" encoding="UTF-8"?>
<svg id="Ebene_2" xmlns="http://www.w3.org/2000/svg" viewBox="0 0 83.06 82.78">
  <defs>
    <style>
      .cls-1 {
        fill: #ed5fc5;
      }

      .cls-2 {
        fill: #d9ed8e;
      }
    </style>
  </defs>
  <g id="Ebene_1-2" data-name="Ebene_1">
    <g id="vinyl">
      <g>
        <g>
          <path class="cls-2" d="M42.06,82.78c-10.13,0-19.82-3.81-27.49-10.86C6.54,64.55,1.31,54,.22,42.99-.95,31.18,2.57,20.15,10.13,11.93,17.72,3.66,28.35-.55,40.05.06c10.61.56,20.94,4.98,29.09,12.46,8.16,7.5,13.07,17.27,13.82,27.52.78,10.6-2.95,20.95-10.48,29.16-7.51,8.18-17.58,12.98-28.35,13.53-.69.04-1.38.05-2.06.05ZM37.85,19.67c-3.95,0-9.1,1.06-13.23,5.56-3.72,4.05-5.43,9.67-4.82,15.83.62,6.26,3.56,12.23,8.09,16.38,4.27,3.92,9.69,5.92,15.25,5.64,5.59-.28,10.87-2.84,14.87-7.19,3.88-4.23,5.73-9.21,5.35-14.41-.38-5.23-3.05-10.37-7.51-14.47-4.72-4.33-10.84-7-16.81-7.31-.38-.02-.77-.03-1.17-.03Z"/>
          <path class="cls-2" d="M42.06,82.78c-10.13,0-19.82-3.81-27.49-10.86C6.54,64.55,1.31,54,.22,42.99-.95,31.18,2.57,20.15,10.13,11.93,17.72,3.66,28.35-.55,40.05.06c10.61.56,20.94,4.98,29.09,12.46,8.16,7.5,13.07,17.27,13.82,27.52.78,10.6-2.95,20.95-10.48,29.16-7.51,8.18-17.58,12.98-28.35,13.53-.69.04-1.38.05-2.06.05ZM37.85,19.67c-3.95,0-9.1,1.06-13.23,5.56-3.72,4.05-5.43,9.67-4.82,15.83.62,6.26,3.56,12.23,8.09,16.38,4.27,3.92,9.69,5.92,15.25,5.64,5.59-.28,10.87-2.84,14.87-7.19,3.88-4.23,5.73-9.21,5.35-14.41-.38-5.23-3.05-10.37-7.51-14.47-4.72-4.33-10.84-7-16.81-7.31-.38-.02-.77-.03-1.17-.03Z"/>
        </g>
        <path class="cls-2" d="M41.39,60.93c-9.98,0-18.1-8.67-18.1-19.33s8.12-19.34,18.1-19.34,18.1,8.67,18.1,19.34-8.12,19.33-18.1,19.33ZM40.14,41.6c.29.17.72.34,1.25.34s.96-.16,1.25-.34c-.29-.17-.72-.34-1.25-.34s-.96.16-1.25.34Z"/>
        <path class="cls-2" d="M19.63,67.21c-10.22-10.28-11.66-19.57-11.84-21.33l19.56-2.04s0-.12-.04-.34c.03.18.85,4.4,6.27,9.85l-13.95,13.87Z"/>
        <path class="cls-2" d="M25.06,68.96c-10.64-8.46-12.48-17.47-12.75-19.19l19.45-2.96s0-.15-.08-.42c.04.14.91,3.43,5.62,7.17l-12.24,15.4Z"/>
        <path class="cls-2" d="M23.85,64.15c-1.13-.76-11.05-7.83-11.05-23.55h19.67c0,5.13,2.37,7.21,2.63,7.43-.2-.17-.33-.24-.33-.24l-10.93,16.36Z"/>
        <path class="cls-2" d="M47.22,40.48c-.16-1.5-.7-2.03-.76-2.08,0,0,.17.15.66.43l9.65-17.14c4.04,2.27,9.08,8.01,10.01,16.69l-19.56,2.1Z"/>
        <path class="cls-2" d="M70.52,44.24l-19.67-.11c.01-2.63-1.92-6.3-2.86-7.67l.04.05,16.05-11.38c.67.94,6.5,9.45,6.45,19.1Z"/>
        <path class="cls-2" d="M54.09,46.86c-1.49-10.26-5.27-13.93-5.31-13.97.22.21.36.29.36.29l11.98-15.6c1.62,1.24,9.82,8.36,12.44,26.45l-19.47,2.82Z"/>
        <path class="cls-2" d="M54.01,38.72c-1.48-5.54-5.76-10.11-5.8-10.15l14.16-13.65c.8.82,7.86,8.33,10.64,18.72l-19,5.08Z"/>
        <path class="cls-2" d="M41.39,52.31c-5.88,0-10.67-4.9-10.67-10.92s4.78-10.92,10.67-10.92,10.67,4.9,10.67,10.92-4.78,10.92-10.67,10.92ZM41.39,32.63c-4.97,0-9.01,3.92-9.01,8.75s4.04,8.75,9.01,8.75,9.01-3.92,9.01-8.75-4.04-8.75-9.01-8.75Z"/>
      </g>
      <g>
        <path class="cls-1" d="M21.23,64.68c-12.92-11.86-15.72-33.19-3.85-46.1,11.86-12.92,32.2-10.68,45.11,1.19,12.92,11.86,14.62,29.86,2.75,42.78-11.86,12.92-31.09,14-44.01,2.14Z"/>
        <ellipse class="cls-2" cx="41.39" cy="41.6" rx="8.27" ry="9.5"/>
        <path class="cls-2" d="M26.61,61.58c-.34,0-.67-.13-.93-.39-8.52-8.56-9.37-15.9-9.41-16.21-.07-.72.45-1.37,1.17-1.44.71-.07,1.36.45,1.44,1.16.01.12.88,6.81,8.66,14.63.51.51.51,1.34,0,1.85-.26.25-.59.38-.92.38Z"/>
        <path class="cls-2" d="M31.18,62.57c-.29,0-.57-.09-.82-.28-8.46-6.73-9.58-13.52-9.62-13.8-.11-.72.38-1.38,1.1-1.49.71-.11,1.38.38,1.49,1.09.02.11,1.1,6.13,8.66,12.15.57.45.66,1.28.21,1.84-.26.33-.64.49-1.03.49Z"/>
        <path class="cls-2" d="M29.31,57.28c-.25,0-.5-.07-.73-.22-.3-.2-7.26-4.98-7.26-16.46,0-.72.59-1.31,1.31-1.31s1.31.59,1.31,1.31c0,10.01,5.85,14.11,6.1,14.28.6.41.75,1.22.35,1.82-.25.38-.67.58-1.09.58Z"/>
        <path class="cls-2" d="M57,40.74c-.66,0-1.23-.5-1.3-1.17-.64-5.92-4.25-8.09-4.41-8.18-.62-.36-.84-1.16-.48-1.79.36-.63,1.15-.85,1.78-.49.2.11,4.93,2.85,5.72,10.18.08.72-.44,1.37-1.16,1.44-.05,0-.09,0-.14,0Z"/>
        <path class="cls-2" d="M60.68,45.5h0c-.72,0-1.31-.59-1.3-1.32.03-6.26-4.35-12.53-4.39-12.59-.42-.59-.28-1.41.31-1.83.59-.42,1.41-.28,1.83.31.2.28,4.92,7.01,4.88,14.12,0,.72-.59,1.3-1.31,1.3Z"/>
        <path class="cls-2" d="M63.82,46.76c-.64,0-1.2-.47-1.3-1.12-2.06-14.24-8.14-19.17-8.2-19.22-.57-.45-.67-1.27-.23-1.84.44-.57,1.26-.68,1.83-.24.28.22,6.97,5.51,9.2,20.91.1.72-.39,1.38-1.11,1.49-.06,0-.13.01-.19.01Z"/>
        <path class="cls-2" d="M63.51,37.49c-.58,0-1.11-.39-1.27-.97-2.08-7.78-7.82-13.78-7.88-13.84-.5-.52-.49-1.35.03-1.85.52-.5,1.35-.49,1.85.03.25.26,6.27,6.53,8.53,14.99.19.7-.23,1.42-.93,1.61-.11.03-.23.05-.34.05Z"/>
        <ellipse class="cls-1" cx="41.39" cy="41.38" rx=".83" ry="1.09"/>
      </g>
    </g>
  </g>
</svg>