<?xml version="1.0" encoding="UTF-8"?>
<svg xmlns="http://www.w3.org/2000/svg" version="1.1" viewBox="0 0 219.1 102.1">
  <defs>
    <style>
      .cls-1 {
        fill: #f0ebe6;
      }
    </style>
  </defs>
  <!-- Generator: Adobe Illustrator 28.7.1, SVG Export Plug-In . SVG Version: 1.2.0 Build 142)  -->
  <g>
    <g id="Ebene_2">
      <g id="Ebene_1-2">
        <g>
          <g>
            <path class="cls-1" d="M22.4,51.8c-1.5,0-3.1-.1-4.8-.3-1.7-.2-3.3-.7-4.7-1.4-1.5-.7-2.7-1.8-3.6-3.3s-1.4-3.4-1.4-5.9v-15.1H0v-9.9h.2c1.7,0,3.1,0,4.1-.2,1-.1,1.8-.5,2.3-1.1.5-.6.8-1.5,1-2.8.2-1.3.2-3,.2-5.3v-2.1h13.4v11.5h9.7v9.9h-9.7v11.6c0,1.3.1,2.4.5,3.2s1.1,1.3,2.5,1.3,1.5,0,2.2-.2c.7-.2,1.2-.3,1.6-.5v9.6c-.5.2-1.2.4-2.2.6s-2.1.3-3.4.3h0Z"/>
            <path class="cls-1" d="M53.9,51.8c-4,0-7.5-.8-10.5-2.3s-5.3-3.7-7-6.4c-1.7-2.8-2.5-6-2.5-9.6s.8-6.8,2.5-9.6,4-4.9,7-6.4c3-1.5,6.5-2.3,10.5-2.3s7.5.8,10.5,2.3c3,1.5,5.3,3.7,7,6.4s2.5,5.9,2.5,9.6-.8,6.8-2.5,9.6-4,4.9-7,6.4c-3,1.5-6.5,2.3-10.5,2.3ZM53.9,41.7c1.4,0,2.5-.3,3.5-1s1.7-1.6,2.2-2.9c.5-1.2.8-2.7.8-4.4s-.3-3.1-.8-4.4c-.5-1.2-1.3-2.2-2.2-2.8s-2.1-1-3.5-1-2.5.3-3.5,1c-1,.7-1.7,1.6-2.2,2.8s-.8,2.7-.8,4.4.3,3.1.8,4.4,1.3,2.2,2.2,2.9c1,.7,2.1,1,3.5,1Z"/>
            <path class="cls-1" d="M78.8,50.9V15.8h13.3v35.1h-13.3ZM103.2,50.9v-17.6c0-1.2,0-2.4-.3-3.5s-.7-2-1.4-2.7c-.7-.7-1.9-1.1-3.5-1.1s-2.5.3-3.4.9-1.5,1.4-1.9,2.5-.6,2.4-.6,3.9l-2.6-2.6c0-3.2.7-6,1.9-8.3,1.3-2.3,3.1-4.1,5.3-5.4s4.8-1.9,7.6-1.9,5.4.6,7.1,1.8c1.8,1.2,3,2.9,3.8,5.1.8,2.2,1.2,4.6,1.2,7.4v21.5h-13.3Z"/>
            <path class="cls-1" d="M128.4,11.7c-2,0-3.7-.5-5.1-1.5-1.5-1-2.2-2.5-2.2-4.3s.7-3.3,2.2-4.3S126.5,0,128.4,0s3.7.5,5.1,1.5c1.5,1,2.2,2.5,2.2,4.3s-.7,3.3-2.2,4.3-3.2,1.5-5.1,1.5h0ZM121.9,50.9V15.8h13.2v35.1s-13.2,0-13.2,0Z"/>
            <path class="cls-1" d="M152.4,51.7c-2.5,0-4.8-.4-6.7-1.2s-3.6-2-4.7-3.5c-1.1-1.5-1.7-3.4-1.7-5.6s.7-4.7,2.2-6.3c1.5-1.6,3.4-2.8,5.7-3.6,2.3-.8,4.7-1.3,7.2-1.5,3.6-.3,5.9-.6,7.2-.9s1.9-.7,1.9-1.3h0c0-.9-.5-1.5-1.5-2.1s-2.3-.9-3.9-.9-3.1.3-3.9,1c-.9.6-1.3,1.6-1.3,2.8h-13.1c0-3,.8-5.4,2.5-7.4s3.9-3.5,6.7-4.5,5.9-1.5,9.3-1.5,6.3.5,9.1,1.4c2.8,1,5.1,2.5,6.9,4.5,1.8,2,2.6,4.5,2.6,7.6v13.6c0,1,0,1.9,0,2.8,0,.9.2,1.7.4,2.5.2.8.6,1.5,1,2.1s.7,1,1,1.2h-13c-.2-.2-.5-.6-.9-1.1-.4-.5-.7-1.1-.9-1.8-.3-1-.6-1.9-.7-2.8s-.2-1.9-.2-3.2l2.9,2c-.6,1.6-1.6,3-3,4.1-1.4,1.2-3.1,2-5,2.6s-3.9.9-5.9.9h0ZM156.4,42.3c1.1,0,2.3-.2,3.4-.8,1.1-.5,2-1.3,2.8-2.5s1.1-2.8,1.1-4.8v-1.3l3.4,2.7c-1.4.5-3.1.9-4.9,1.3-1.8.3-3.5.6-5.1.8-1.5.2-2.6.4-3.4.7s-1.1.9-1.1,1.6.3,1.3,1,1.7c.7.3,1.6.5,2.8.5h0Z"/>
          </g>
          <g>
            <path class="cls-1" d="M3.4,101.2v-35.1h13.3v35.1H3.4ZM25.5,101.2v-17.9c0-.9,0-1.8-.1-2.6s-.3-1.6-.5-2.2c-.3-.7-.7-1.2-1.2-1.6s-1.3-.6-2.2-.6-1.5.2-2,.5-1.1.9-1.5,1.5-.7,1.5-.9,2.4-.3,2-.3,3.1l-2.5-3c0-3.2.5-6,1.6-8.3s2.6-4.1,4.6-5.4c2-1.3,4.4-1.9,7.1-1.9s5.4.7,7.1,2c1.6,1.3,2.7,3.1,3.3,5.3s.9,4.5.9,7v21.5h-13.2ZM47.5,101.2v-17.9c0-1,0-2-.2-2.8-.1-.8-.3-1.6-.6-2.2-.3-.6-.7-1.1-1.2-1.4s-1.2-.5-2.1-.5-1.5.2-2,.5c-.6.4-1.1.9-1.5,1.5-.4.7-.7,1.5-.9,2.4s-.3,2-.3,3.1l-2.5-3c0-3.2.5-6,1.6-8.3s2.6-4.1,4.6-5.4c2-1.3,4.4-1.9,7.1-1.9s5.4.7,7.1,2c1.6,1.3,2.8,3.1,3.3,5.3s.9,4.5.9,7v21.5h-13.3,0Z"/>
            <path class="cls-1" d="M85.3,102c-4,0-7.4-.8-10.5-2.3s-5.3-3.7-7-6.4-2.5-5.9-2.5-9.6.8-6.8,2.5-9.6,4-4.9,7-6.4,6.5-2.3,10.5-2.3,7.4.8,10.5,2.3c3,1.5,5.3,3.7,7,6.4s2.5,5.9,2.5,9.6-.8,6.8-2.5,9.6-4,4.9-7,6.4-6.5,2.3-10.5,2.3ZM85.3,92c1.4,0,2.5-.3,3.5-1s1.7-1.6,2.2-2.9c.5-1.2.8-2.7.8-4.4s-.3-3.1-.8-4.3c-.5-1.2-1.3-2.2-2.2-2.8s-2.1-1-3.5-1-2.5.3-3.5,1c-1,.7-1.7,1.6-2.2,2.8-.5,1.2-.8,2.7-.8,4.3s.3,3.1.8,4.4,1.3,2.2,2.2,2.9c1,.7,2.1,1,3.5,1Z"/>
            <path class="cls-1" d="M125.5,102.1c-2.1,0-4.1-.2-6.2-.7-2-.5-3.9-1.2-5.5-2.2-1.7-1-3-2.3-4-3.8s-1.5-3.3-1.5-5.3v-.3h13.2v.3c0,.9.4,1.6,1.2,1.9.8.4,1.9.6,3.2.6s1.1,0,1.7-.2,1.2-.3,1.7-.6c.5-.3.7-.7.7-1.2,0-.7-.5-1.2-1.5-1.5s-2.8-.6-5.2-1c-1.5-.2-3.1-.6-4.8-1.1-1.7-.5-3.2-1.1-4.7-1.9-1.5-.8-2.7-1.9-3.6-3.2-.9-1.3-1.4-2.8-1.4-4.7s.8-4.7,2.3-6.4,3.6-3,6.2-3.9c2.6-.9,5.4-1.3,8.4-1.3s5.6.5,8.1,1.5,4.6,2.4,6.2,4.2,2.4,3.9,2.4,6.4v.3h-13.1v-.3c0-.6-.2-1.1-.6-1.5s-.9-.6-1.4-.8-1.2-.3-1.7-.3-1,0-1.6.2-1.1.3-1.6.6c-.4.3-.7.7-.7,1.2s.3.8.8,1.1c.6.3,1.3.6,2.3.8,1,.2,2.1.4,3.3.6,1.2.2,2.7.5,4.4.9s3.3,1,4.8,1.8c1.6.8,2.9,1.8,3.9,3.2,1,1.3,1.5,3,1.5,5.1s-.5,4.1-1.5,5.6c-1,1.5-2.4,2.7-4.1,3.7-1.7.9-3.6,1.6-5.6,2s-4.1.6-6.1.6h0Z"/>
            <path class="cls-1" d="M152.9,87.3v-7.9h20.7l-1,1.7v-1.1c0-.8-.2-1.5-.6-2.3s-1.1-1.5-2.1-2c-1-.6-2.2-.8-3.9-.8s-2.9.3-3.9,1-1.9,1.6-2.4,2.9c-.5,1.3-.8,2.9-.8,4.7s.2,3.6.8,5,1.3,2.4,2.4,3.1c1.1.7,2.5,1.1,4.3,1.1s2,0,2.7-.2,1.4-.3,1.8-.6.8-.5,1-.8c.2-.3.4-.6.4-.8h13.1c-.1,1.5-.7,3-1.7,4.5-1,1.4-2.3,2.7-3.9,3.8s-3.7,2-6.1,2.7-5,1-8,1-7.7-.8-10.7-2.3-5.3-3.7-7-6.5c-1.6-2.8-2.4-5.9-2.4-9.5s.8-6.9,2.5-9.7,4-4.9,7.1-6.4c3-1.5,6.6-2.3,10.6-2.3s7.7.8,10.7,2.3c3,1.6,5.3,3.8,7,6.6s2.4,6.2,2.4,10.2,0,1.2,0,1.7c0,.5,0,.8-.1,1.1,0,0-32.9,0-32.9,0Z"/>
            <path class="cls-1" d="M190.8,101.2v-35.1h13.4v13l-2.3-1.8c.3-1.9.9-3.6,1.6-5,.7-1.5,1.6-2.7,2.7-3.8s2.3-1.8,3.7-2.3,3-.8,4.7-.8,2.5,0,3.2.3c.7.2,1.2.3,1.4.4l-1.8,11.6c-.2-.1-.6-.3-1.3-.5-.7-.2-1.5-.3-2.5-.3-1.7,0-3.2.3-4.4.8s-2.1,1.3-2.9,2.2-1.3,1.9-1.6,3.1-.5,2.3-.5,3.4v14.8h-13.4,0Z"/>
          </g>
        </g>
      </g>
    </g>
  </g>
</svg>