<?xml version="1.0" encoding="UTF-8"?>
<svg xmlns="http://www.w3.org/2000/svg" version="1.1" viewBox="0 0 438.52 60.08">
  <defs>
    <style>
      .cls-1 {
        fill: #303030;
      }
    </style>
  </defs>
  <!-- Generator: Adobe Illustrator 28.7.1, SVG Export Plug-In . SVG Version: 1.2.0 Build 142)  -->
  <g>
    <g id="Ebene_1">
      <g>
        <path class="cls-1" d="M47.5,21.59h-.39c.6-5.42-.47-9.58-2.2-12.4-1.15-1.88-3.09-3.77-6.38-3.77h-.86c-2.51,0-4.27,1.33-5.25,4.47l-13.92,41.92c-1.47,4.32-.71,6.75,3.34,6.99l-.14.47H1.27l.14-.47c3.81-.31,6.67-2.83,8.04-6.99L23.45,9.89c.98-3.06.31-4.47-2.44-4.47h-.86c-3.69,0-7.27,2.04-9.84,4.16C7.12,12.17,3.69,15.94.31,21.59h-.31L7.84,3.61h43.73l-4.07,17.98Z"/>
        <path class="cls-1" d="M35.14,44.35c1.97-14.13,13.51-25.98,25.05-25.98,8.64,0,13.63,6.44,12.35,15.62-2,14.36-13.42,25.9-25.35,25.9-8.24,0-13.34-6.28-12.05-15.54ZM64.41,32.58c1.01-7.22-.46-12.48-4.54-12.48-7.85,0-14.92,14.68-16.43,25.51-1.02,7.3.52,12.64,4.99,12.64,7.46,0,14.51-15.15,15.98-25.67Z"/>
        <path class="cls-1" d="M120.91,44.59c-2.43,4.47-8.02,15.31-15.79,15.31-4.32,0-5.8-2.9-4.36-7.61l7.03-22.29c1.42-4.55.38-6.67-2.37-6.67-3.53,0-9.58,7.38-14.37,16.41l-6.18,19.55h-8.48l10.11-32.03c.61-2.12,0-3.45-1.8-3.45-3.53,0-7.56,6.36-8.44,7.62l-.38-.08c2.65-4.4,7.53-12.95,15.23-12.95,4.32,0,5.81,2.83,4.28,7.61l-3.13,10.05c6.33-11.07,12.82-17.66,19.02-17.66,5.57,0,7.59,3.53,5.23,10.91l-6.92,22.06c-.7,2.2-.36,3.14,1.13,3.14,4.16,0,8.87-8.48,9.71-9.97l.46.08Z"/>
        <path class="cls-1" d="M126.04,52.28l7.88-25.04c.61-2.12-.07-3.45-1.79-3.45-3.45,0-7.45,6.12-8.44,7.62l-.38-.08c2.68-4.55,7.61-12.95,15.23-12.95,4.32,0,5.81,2.83,4.28,7.61l-7.9,25.12c-.78,2.2-.47,3.38,1.1,3.38,4,0,8.68-8.24,9.63-9.97l.46.08c-2.46,4.71-8.1,15.31-15.79,15.31-4.32,0-5.81-2.83-4.28-7.61ZM136.52,5.73c.46-3.3,3.39-5.73,6.76-5.73s5.47,2.43,5.01,5.73c-.45,3.22-3.39,5.73-6.61,5.73-3.38,0-5.62-2.51-5.17-5.73Z"/>
        <path class="cls-1" d="M190.23,44.59c-2.34,4.4-7.94,15.31-15.79,15.31-4.48,0-5.6-3.22-4.28-7.61l3.26-10.44c-3.69,7.3-10.21,18.05-18.69,18.05-4.79,0-8.36-3.69-7.26-11.54,2.14-15.38,15.09-29.99,25.92-29.99,3.22,0,5.5,1.65,6.63,3.69,2.92-.71,6.07-1.88,9.19-4.55h.24l-10.44,33.83c-.71,2.28-.28,3.14,1.13,3.14,4.4,0,8.96-8.56,9.71-9.97l.38.08ZM174.5,38.54l4.67-14.92c-.86-2.28-2.83-3.92-5.73-3.92-6.99,0-15.5,11.54-17.42,25.28-1.04,7.46,1,9.73,3.9,9.73,5.5,0,11.66-10.44,14.58-16.17Z"/>
      </g>
      <g>
        <path class="cls-1" d="M200.14,59.48V19.45h11.09v10.86l-2.08-3.12c1.34-2.73,3.3-4.8,5.88-6.21,2.58-1.41,5.48-2.12,8.71-2.12,3.67,0,6.89.93,9.67,2.79,2.78,1.86,4.61,4.7,5.51,8.52l-4.09-1.12c1.34-3.07,3.47-5.54,6.4-7.4,2.93-1.86,6.32-2.79,10.19-2.79,3.17,0,5.99.63,8.45,1.9,2.46,1.27,4.38,3.2,5.77,5.8,1.39,2.6,2.08,5.94,2.08,10.01v22.92h-11.61v-21.13c0-3.22-.66-5.6-1.97-7.14-1.31-1.54-3.16-2.31-5.54-2.31-1.74,0-3.27.38-4.61,1.15-1.34.77-2.37,1.91-3.09,3.42-.72,1.51-1.08,3.48-1.08,5.91v20.09h-11.61v-21.13c0-3.22-.66-5.6-1.97-7.14-1.31-1.54-3.21-2.31-5.69-2.31-1.69,0-3.2.38-4.54,1.15-1.34.77-2.38,1.91-3.12,3.42s-1.12,3.48-1.12,5.91v20.09h-11.61Z"/>
        <path class="cls-1" d="M297.45,60.08c-4.22,0-7.97-.89-11.27-2.68-3.3-1.79-5.89-4.23-7.78-7.33-1.89-3.1-2.83-6.63-2.83-10.6s.94-7.58,2.83-10.68c1.88-3.1,4.48-5.53,7.78-7.29,3.3-1.76,7.05-2.64,11.27-2.64s8.06.88,11.38,2.64c3.32,1.76,5.93,4.19,7.81,7.29,1.88,3.1,2.83,6.66,2.83,10.68s-.94,7.56-2.83,10.64c-1.88,3.08-4.49,5.51-7.81,7.29-3.32,1.79-7.12,2.68-11.38,2.68ZM297.45,50.55c1.98,0,3.73-.43,5.25-1.3,1.51-.87,2.73-2.14,3.65-3.83s1.38-3.67,1.38-5.95-.46-4.32-1.38-5.95c-.92-1.64-2.13-2.89-3.65-3.76-1.51-.87-3.24-1.3-5.17-1.3s-3.67.43-5.21,1.3c-1.54.87-2.77,2.12-3.68,3.76-.92,1.64-1.38,3.62-1.38,5.95s.46,4.27,1.38,5.95c.92,1.69,2.14,2.96,3.68,3.83,1.54.87,3.25,1.3,5.13,1.3Z"/>
        <path class="cls-1" d="M340.68,60.08c-3.42,0-6.7-.41-9.82-1.23s-5.63-1.85-7.51-3.09l3.79-8.26c1.88,1.09,4.08,2,6.58,2.72,2.5.72,4.97,1.08,7.4,1.08,2.68,0,4.58-.32,5.69-.97,1.12-.64,1.67-1.54,1.67-2.68,0-.94-.43-1.65-1.3-2.12-.87-.47-2.01-.83-3.42-1.08-1.41-.25-2.99-.5-4.72-.74-1.74-.25-3.46-.59-5.17-1.04-1.71-.45-3.3-1.08-4.76-1.9-1.46-.82-2.63-1.95-3.5-3.39-.87-1.44-1.3-3.3-1.3-5.58,0-2.53.74-4.77,2.23-6.73,1.49-1.96,3.6-3.48,6.32-4.58,2.73-1.09,6.03-1.64,9.9-1.64,2.78,0,5.57.31,8.37.93,2.8.62,5.17,1.48,7.11,2.57l-3.94,8.26c-1.89-1.09-3.81-1.86-5.77-2.31-1.96-.45-3.83-.67-5.62-.67-2.68,0-4.61.35-5.8,1.04-1.19.7-1.79,1.59-1.79,2.68,0,.99.45,1.75,1.34,2.27.89.52,2.06.91,3.5,1.15,1.44.25,3.03.5,4.76.74s3.45.59,5.13,1.04c1.69.45,3.26,1.08,4.72,1.9,1.46.82,2.63,1.95,3.5,3.39.87,1.44,1.3,3.3,1.3,5.58,0,2.43-.74,4.6-2.23,6.51-1.49,1.91-3.63,3.41-6.44,4.5-2.8,1.09-6.21,1.64-10.23,1.64Z"/>
        <path class="cls-1" d="M386.59,60.08c-4.56,0-8.56-.89-11.98-2.68-3.42-1.79-6.08-4.23-7.96-7.33-1.89-3.1-2.83-6.63-2.83-10.6s.91-7.51,2.72-10.64,4.34-5.57,7.59-7.33c3.25-1.76,6.91-2.64,10.97-2.64s7.45.84,10.6,2.53c3.15,1.69,5.64,4.07,7.48,7.14,1.83,3.08,2.75,6.77,2.75,11.09,0,.45-.03.96-.08,1.53-.05.57-.1,1.1-.15,1.6h-32.51v-6.77h26.41l-4.54,2.01c.05-2.08-.35-3.89-1.19-5.43-.84-1.54-2.01-2.74-3.5-3.61-1.49-.87-3.22-1.3-5.21-1.3s-3.73.43-5.25,1.3c-1.51.87-2.69,2.08-3.53,3.65-.84,1.56-1.26,3.41-1.26,5.54v1.79c0,2.23.5,4.17,1.49,5.8.99,1.64,2.35,2.89,4.09,3.76,1.74.87,3.82,1.3,6.25,1.3,2.08,0,3.93-.32,5.54-.97,1.61-.64,3.09-1.61,4.43-2.9l6.17,6.7c-1.83,2.08-4.14,3.68-6.92,4.8-2.78,1.12-5.98,1.67-9.6,1.67Z"/>
        <path class="cls-1" d="M413.67,59.48V19.45h11.09v11.38l-1.56-3.35c1.19-2.83,3.1-4.97,5.73-6.44,2.63-1.46,5.83-2.19,9.6-2.19v10.79c-.45-.1-.88-.17-1.3-.22-.42-.05-.83-.07-1.23-.07-3.27,0-5.88.92-7.81,2.75-1.93,1.84-2.9,4.66-2.9,8.48v18.9h-11.61Z"/>
      </g>
    </g>
  </g>
</svg>